<svg id="Layer_1" data-name="Layer 1" xmlns="http://www.w3.org/2000/svg" viewBox="0 0 600 600"><defs><style>.cls-1{fill:#fafcf8;}.cls-2{fill:#1595a3;}.cls-3{fill:#ea8024;}.cls-4{fill:#225378;}.cls-5{fill:#b3e1e8;}</style></defs><title>refocus-iconography</title><circle class="cls-1" cx="298.76" cy="298.76" r="298.68" transform="translate(-67.14 510.01) rotate(-75)"/><circle class="cls-2" cx="438.8" cy="297.94" r="39.75" transform="matrix(0.26, -0.97, 0.97, 0.26, 37.44, 644.67)"/><circle class="cls-3" cx="437.55" cy="296.69" r="39.75" transform="translate(37.72 642.55) rotate(-75)"/><circle class="cls-2" cx="150.66" cy="348.98" r="39.75" transform="translate(-225.42 404.18) rotate(-75)"/><circle class="cls-3" cx="149.41" cy="347.73" r="39.75" transform="translate(-225.14 402.05) rotate(-75)"/><path class="cls-2" d="M301.07,14.94a286.53,286.53,0,1,1-91.66,15.18,287,287,0,0,1,91.66-15.18h0m0-12.45C169.19,2.5,48.5,90.5,12.74,223.94-30,383.28,64.6,547.05,223.94,589.75A299,299,0,0,0,301.43,600C433.3,600,554,512,589.75,378.55c42.69-159.34-51.86-323.11-211.2-365.81A299,299,0,0,0,301.06,2.49h0Z"/><path class="cls-4" d="M298.58,12.45a286.53,286.53,0,1,1-91.66,15.18,287,287,0,0,1,91.66-15.18h0m0-12.45C166.7,0,46,88,10.25,221.45c-42.69,159.34,51.86,323.11,211.2,365.81a299,299,0,0,0,77.49,10.25c131.87,0,252.56-88,288.32-221.45C630,216.72,535.4,52.95,376.06,10.25A299,299,0,0,0,298.57,0h0Z"/><path class="cls-2" d="M521.27,298h-2.82L436.86,118.28l0.21,0a5.12,5.12,0,0,0-1.78-10.09L142.71,159.74a5.12,5.12,0,0,0-4.15,5.93h0a5.12,5.12,0,0,0,5.93,4.15l0.58-.1L63.74,348.91H61.21a4.84,4.84,0,0,0-4.38,6.87,102.45,102.45,0,0,0,186.6-.06,4.83,4.83,0,0,0-4.41-6.81h-2.89L154.07,168.14l130.54-23V316.62h-0.06c-1.06,78.15-13.57,150.09-38.21,208.14h87.23c-24.64-58.05-37.15-130-38.21-208.14H295.3V143.24l131.45-23.18L346,298h-2.49a4.84,4.84,0,0,0-4.38,6.87,102.45,102.45,0,0,0,186.6-.06A4.83,4.83,0,0,0,521.27,298ZM70.77,348.91L150,174.28,229.3,348.91H70.77ZM353.06,298l79.22-174.52L511.49,298H353.06Z"/><path class="cls-5" d="M520,296.79h-2.82L435.61,117l0.21,0A5.12,5.12,0,0,0,434,106.91L141.47,158.5a5.12,5.12,0,0,0-4.15,5.93h0a5.12,5.12,0,0,0,5.93,4.15l0.58-.1L62.49,347.67H60a4.84,4.84,0,0,0-4.38,6.87,102.45,102.45,0,0,0,186.6-.06,4.83,4.83,0,0,0-4.41-6.81h-2.89L152.83,166.9l130.54-23V315.37H283.3c-1.06,78.15-13.57,150.09-38.21,208.14h87.23c-24.64-58.05-37.15-130-38.21-208.14h-0.06V142L425.5,118.82l-80.78,178h-2.49a4.84,4.84,0,0,0-4.38,6.87,102.45,102.45,0,0,0,186.6-.06A4.83,4.83,0,0,0,520,296.79ZM69.52,347.67L148.79,173l79.27,174.63H69.52Zm282.29-50.88L431,122.27l79.22,174.52H351.82Z"/></svg>
