<svg id="Layer_1" data-name="Layer 1" xmlns="http://www.w3.org/2000/svg" viewBox="0 0 600 600"><defs><style>.cls-1{fill:#fafcf8;}.cls-2{fill:#1595a3;}.cls-3{fill:#225378;}.cls-4{fill:#b3e1e8;}.cls-5{fill:#ea8024;}</style></defs><title>refocus-iconography</title><circle class="cls-1" cx="298.76" cy="298.76" r="298.68" transform="translate(-67.14 510.01) rotate(-75)"/><polygon class="cls-2" points="348.77 317.99 522.29 266.23 341.27 270.63 345.1 240.89 317.99 253.72 266.23 80.19 270.63 261.22 240.89 257.39 253.72 284.5 80.19 336.26 261.22 331.86 257.39 361.6 284.5 348.77 336.26 522.29 331.86 341.27 361.6 345.1 348.77 317.99"/><path class="cls-2" d="M301.07,14.94a286.53,286.53,0,1,1-91.66,15.18,287,287,0,0,1,91.66-15.18h0m0-12.45C169.19,2.5,48.5,90.5,12.74,223.94-30,383.28,64.6,547.05,223.94,589.75A299,299,0,0,0,301.43,600C433.3,600,554,512,589.75,378.55c42.69-159.34-51.86-323.11-211.2-365.81A299,299,0,0,0,301.06,2.49h0Z"/><path class="cls-3" d="M298.58,12.45a286.53,286.53,0,1,1-91.66,15.18,287,287,0,0,1,91.66-15.18h0m0-12.45C166.7,0,46,88,10.25,221.45c-42.69,159.34,51.86,323.11,211.2,365.81a299,299,0,0,0,77.49,10.25c131.87,0,252.56-88,288.32-221.45C630,216.72,535.4,52.95,376.06,10.25A299,299,0,0,0,298.57,0h0Z"/><polygon class="cls-4" points="346.28 315.5 519.8 263.74 338.78 268.14 342.61 238.4 315.5 251.23 263.74 77.71 268.14 258.73 238.4 254.91 251.23 282.01 77.71 333.77 258.73 329.37 254.91 359.11 282.01 346.28 333.77 519.8 329.37 338.78 359.11 342.61 346.28 315.5"/><polygon class="cls-2" points="378.2 109.18 369.95 43.37 329.9 96.24 358.29 86.88 378.2 109.18"/><polygon class="cls-2" points="223.67 492.69 231.92 558.5 271.97 505.63 243.58 514.98 223.67 492.69"/><polygon class="cls-5" points="376.2 107.18 367.95 41.37 327.9 94.24 356.29 84.88 376.2 107.18"/><polygon class="cls-5" points="221.67 490.69 229.92 556.5 269.97 503.63 241.58 512.98 221.67 490.69"/></svg>