<svg id="Layer_1" data-name="Layer 1" xmlns="http://www.w3.org/2000/svg" viewBox="0 0 600 600"><defs><style>.cls-1{fill:#b3e1e8;}.cls-2{fill:#1595a3;}.cls-3{fill:#fafcf8;}.cls-4{fill:#225378;}.cls-5{fill:#ea8024;}</style></defs><title>refocus-iconography</title><circle class="cls-1" cx="298.76" cy="298.76" r="298.68" transform="matrix(0.26, -0.97, 0.97, 0.26, -67.14, 510.01)"/><path class="cls-2" d="M78.21,500.1q-5.89-6.54-11.38-13.41Q72.32,493.55,78.21,500.1Z"/><path class="cls-2" d="M21.73,406.83A297.66,297.66,0,0,0,222.86,587.9c2.45,0.66,5.05,1.32,7.73,2h17.48V276.15L21.81,406.78Z"/><path class="cls-2" d="M117,536.18q-7-5.45-13.7-11.3Q110,530.72,117,536.18Z"/><path class="cls-2" d="M162.4,565.17q-12.1-6.27-23.45-13.54Q150.29,558.89,162.4,565.17Z"/><path class="cls-2" d="M84.2,506.55q9.13,9.56,19.14,18.33Q93.34,516.13,84.2,506.55Z"/><path class="cls-2" d="M138.94,551.63q-7.56-4.84-14.78-10.1Q131.38,546.79,138.94,551.63Z"/><path class="cls-2" d="M14.32,385.1l8.77,15.19L295.23,243.17,68.69,112.38l-0.24-.14A298.42,298.42,0,0,0,14.32,385.1Z"/><path class="cls-2" d="M216.5,13.21q-3,.88-6,1.82Q213.5,14.08,216.5,13.21Z"/><path class="cls-2" d="M209.46,15.35q-3.11,1-6.19,2.05Q206.35,16.35,209.46,15.35Z"/><path class="cls-2" d="M195.1,20.34q-2.93,1.1-5.84,2.27Q192.17,21.45,195.1,20.34Z"/><path class="cls-2" d="M253.67,4.88q-3.26.51-6.51,1.1Q250.4,5.4,253.67,4.88Z"/><path class="cls-2" d="M201.95,17.86q-3.12,1.09-6.21,2.24Q198.83,18.94,201.95,17.86Z"/><path class="cls-2" d="M238.46,7.69q-3.07.65-6.11,1.36Q235.4,8.34,238.46,7.69Z"/><path class="cls-2" d="M245.77,6.24q-3.26.6-6.51,1.27Q242.51,6.84,245.77,6.24Z"/><path class="cls-2" d="M223.59,11.23q-3.2.85-6.37,1.76Q220.39,12.07,223.59,11.23Z"/><path class="cls-2" d="M231.31,9.29q-3.19.76-6.36,1.59Q228.12,10,231.31,9.29Z"/><path class="cls-2" d="M188.19,23q-3,1.22-6,2.5Q185.18,24.26,188.19,23Z"/><path class="cls-2" d="M311.57,1.51q-2.31-.09-4.61-0.15Q309.26,1.42,311.57,1.51Z"/><path class="cls-2" d="M305.23,1.33q-2.25,0-4.49,0Q303,1.28,305.23,1.33Z"/><path class="cls-2" d="M181.87,26.35A297.54,297.54,0,0,0,84,94.5L75,110.24l271.86,157V5.65h0A296.51,296.51,0,0,0,181.87,26.35Z"/><path class="cls-2" d="M299.53,1.27q-3.38,0-6.75.09Q296.15,1.28,299.53,1.27Z"/><path class="cls-2" d="M344.91,4.72c1.91,0.29,3.82.6,5.73,0.93C348.74,5.32,346.82,5,344.91,4.72Z"/><path class="cls-2" d="M318.36,1.85q-2.83-.18-5.66-0.3Q315.52,1.67,318.36,1.85Z"/><path class="cls-2" d="M343.25,4.47q-2.17-.32-4.33-0.61Q341.08,4.15,343.25,4.47Z"/><path class="cls-2" d="M324.19,2.28Q322,2.1,319.8,2,322,2.1,324.19,2.28Z"/><path class="cls-2" d="M337.33,3.65q-2.85-.36-5.7-0.67Q334.48,3.29,337.33,3.65Z"/><path class="cls-2" d="M330.93,2.91q-2.52-.27-5-0.49Q328.41,2.65,330.93,2.91Z"/><path class="cls-2" d="M168.68,31.75q2.82-1.38,5.68-2.71Q171.5,30.37,168.68,31.75Z"/><path class="cls-2" d="M111.81,68.05Q114.35,66,116.93,64,114.35,66,111.81,68.05Z"/><path class="cls-2" d="M123.57,59q2.62-1.92,5.29-3.78Q126.19,57.08,123.57,59Z"/><path class="cls-2" d="M142.26,46.39Q145,44.67,147.8,43,145,44.67,142.26,46.39Z"/><path class="cls-2" d="M129.86,54.53q2.65-1.83,5.33-3.61Q132.5,52.69,129.86,54.53Z"/><path class="cls-2" d="M135.52,50.7q2.78-1.83,5.6-3.59Q138.3,48.87,135.52,50.7Z"/><path class="cls-2" d="M117.16,63.81q2.65-2,5.34-4Q119.81,61.77,117.16,63.81Z"/><path class="cls-2" d="M105.85,73q2.48-2.12,5-4.18Q108.33,70.89,105.85,73Z"/><path class="cls-2" d="M94.8,82.93q2.43-2.29,4.9-4.53Q97.22,80.64,94.8,82.93Z"/><path class="cls-2" d="M260.91,3.84q-3.12.41-6.23,0.89Q257.79,4.25,260.91,3.84Z"/><path class="cls-2" d="M99.8,78.31q2.51-2.26,5.07-4.45Q102.31,76.05,99.8,78.31Z"/><path class="cls-2" d="M83.54,94.12q2.35-2.46,4.76-4.87Q85.9,91.66,83.54,94.12Z"/><path class="cls-2" d="M283.74,1.71q-3.18.17-6.34,0.41Q280.57,1.88,283.74,1.71Z"/><path class="cls-2" d="M291.38,1.4q-3.36.1-6.72,0.26Q288,1.49,291.38,1.4Z"/><path class="cls-2" d="M276.44,2.19q-3.33.26-6.64,0.61Q273.11,2.46,276.44,2.19Z"/><path class="cls-2" d="M268.4,2.94q-3.32.35-6.63,0.78Q265.08,3.29,268.4,2.94Z"/><path class="cls-2" d="M93.89,83.79q-2.37,2.26-4.7,4.57Q91.52,86,93.89,83.79Z"/><path class="cls-2" d="M154.8,39q2.89-1.61,5.82-3.15Q157.69,37.4,154.8,39Z"/><path class="cls-2" d="M161.83,35.21q2.87-1.5,5.78-2.94Q164.71,33.71,161.83,35.21Z"/><path class="cls-2" d="M174.9,28.79q3-1.38,6-2.7Q177.9,27.41,174.9,28.79Z"/><path class="cls-2" d="M148.84,42.41q2.74-1.61,5.51-3.16Q151.58,40.8,148.84,42.41Z"/><path class="cls-2" d="M503.41,82.08a298.54,298.54,0,0,0-126.27-70c-2.55-.68-5.27-1.37-8.32-2.09h-17V324.52l226.4-130.71,0.26-.15A300.7,300.7,0,0,0,503.41,82.08Z"/><path class="cls-2" d="M586.06,216.16l-9.15-15.86L306,356.74l0.59,1L531.23,487.49l0.37,0.21A298.48,298.48,0,0,0,586.06,216.16Z"/><path class="cls-2" d="M432.44,567.7q2.83-1.4,5.63-2.86Q435.27,566.3,432.44,567.7Z"/><path class="cls-2" d="M425.3,571.13q2.87-1.33,5.71-2.72Q428.16,569.79,425.3,571.13Z"/><path class="cls-2" d="M439.16,564.26q2.6-1.37,5.18-2.79Q441.76,562.89,439.16,564.26Z"/><path class="cls-2" d="M445.26,561q2.79-1.55,5.54-3.17Q448,559.41,445.26,561Z"/><path class="cls-2" d="M452.14,557q2.73-1.61,5.42-3.28Q454.86,555.4,452.14,557Z"/><path class="cls-2" d="M418.87,574q2.68-1.16,5.33-2.38Q421.55,572.84,418.87,574Z"/><path class="cls-2" d="M397.83,582.22q2.78-1,5.55-2Q400.61,581.25,397.83,582.22Z"/><path class="cls-2" d="M390.78,584.57q3-1,6.08-2Q393.83,583.6,390.78,584.57Z"/><path class="cls-2" d="M412,576.91q2.93-1.19,5.84-2.44Q414.9,575.72,412,576.91Z"/><path class="cls-2" d="M404.58,579.79q3-1.11,5.88-2.28Q407.54,578.68,404.58,579.79Z"/><path class="cls-2" d="M477.18,540.44q2.51-1.85,5-3.75Q479.7,538.6,477.18,540.44Z"/><path class="cls-2" d="M488.88,531.38q2.5-2,5-4.14Q491.38,529.34,488.88,531.38Z"/><path class="cls-2" d="M458.62,553.06q2.55-1.6,5.07-3.25Q461.17,551.46,458.62,553.06Z"/><path class="cls-2" d="M494.77,526.46q2.47-2.12,4.91-4.3Q497.24,524.34,494.77,526.46Z"/><path class="cls-2" d="M525,489.62l-271.65-157L253,594.36a298.32,298.32,0,0,0,262.53-88.46Z"/><path class="cls-2" d="M499.9,522q2.49-2.24,4.93-4.55Q502.39,519.71,499.9,522Z"/><path class="cls-2" d="M482.65,536.33q2.61-2,5.16-4.09Q485.25,534.31,482.65,536.33Z"/><path class="cls-2" d="M471,544.89q2.62-1.83,5.2-3.71Q473.6,543.07,471,544.89Z"/><path class="cls-2" d="M464.41,549.35q2.7-1.78,5.36-3.62Q467.11,547.56,464.41,549.35Z"/><path class="cls-2" d="M383.21,586.89q3-.89,6.07-1.84Q386.26,586,383.21,586.89Z"/><path class="cls-2" d="M505.76,516.53q2.37-2.24,4.69-4.54Q508.13,514.29,505.76,516.53Z"/><path class="cls-2" d="M269.49,597.15q-2.16-.22-4.31-0.48Q267.34,596.93,269.49,597.15Z"/><path class="cls-2" d="M263.43,596.46l-3.92-.52Z"/><path class="cls-2" d="M252.42,594.89c1.82,0.3,3.63.57,5.45,0.83C256.06,595.46,254.24,595.18,252.42,594.89Z"/><path class="cls-2" d="M276.09,597.77q-2.72-.22-5.45-0.49Q273.37,597.55,276.09,597.77Z"/><path class="cls-2" d="M294.51,598.7q2.55,0,5.09.05Q297.06,598.74,294.51,598.7Z"/><path class="cls-2" d="M294.21,598.69q-2.7-.05-5.4-0.16Q291.51,598.63,294.21,598.69Z"/><path class="cls-2" d="M300.94,598.74c2.29,0,4.57,0,6.85-.09C305.51,598.71,303.22,598.74,300.94,598.74Z"/><path class="cls-2" d="M516.08,506.27q-2.35,2.46-4.76,4.86Q513.72,508.73,516.08,506.27Z"/><path class="cls-2" d="M287.24,598.46l-3.95-.2Z"/><path class="cls-2" d="M281.56,598.16q-2.12-.13-4.25-0.3Q279.44,598,281.56,598.16Z"/><path class="cls-2" d="M346.69,595.07c2.19-.35,4.38-0.71,6.56-1.11C351.07,594.36,348.88,594.72,346.69,595.07Z"/><path class="cls-2" d="M361.27,592.38q3.14-.66,6.27-1.39Q364.42,591.72,361.27,592.38Z"/><path class="cls-2" d="M353.8,593.86q3.11-.57,6.19-1.21Q356.9,593.28,353.8,593.86Z"/><path class="cls-2" d="M376.11,588.86q2.93-.77,5.84-1.61Q379,588.09,376.11,588.86Z"/><path class="cls-2" d="M369,590.65q3.17-.76,6.32-1.57Q372.16,589.9,369,590.65Z"/><path class="cls-2" d="M324,597.79c2.27-.18,4.53-0.38,6.78-0.62C328.5,597.4,326.24,597.6,324,597.79Z"/><path class="cls-2" d="M307.91,598.65c2.3-.06,4.59-0.16,6.89-0.27C312.5,598.5,310.21,598.59,307.91,598.65Z"/><path class="cls-2" d="M316.07,598.32q3.31-.18,6.6-0.43Q319.38,598.14,316.07,598.32Z"/><path class="cls-2" d="M338.86,596.21q3.23-.43,6.45-0.92Q342.1,595.78,338.86,596.21Z"/><path class="cls-2" d="M331,597.14c2.2-.23,4.4-0.49,6.59-0.77C335.39,596.65,333.2,596.91,331,597.14Z"/><path class="cls-3" d="M77,498.85q-5.89-6.54-11.38-13.41Q71.08,492.31,77,498.85Z"/><path class="cls-3" d="M20.49,405.58A297.66,297.66,0,0,0,221.61,586.66c2.45,0.66,5.05,1.32,7.73,2h17.48V274.91L20.56,405.54Z"/><path class="cls-3" d="M115.79,534.93q-7-5.45-13.7-11.3Q108.76,529.48,115.79,534.93Z"/><path class="cls-3" d="M161.15,563.92q-12.1-6.27-23.45-13.54Q149,557.64,161.15,563.92Z"/><path class="cls-3" d="M83,505.31q9.13,9.56,19.14,18.33Q92.1,514.88,83,505.31Z"/><path class="cls-3" d="M137.7,550.38q-7.56-4.84-14.78-10.1Q130.13,545.54,137.7,550.38Z"/><path class="cls-3" d="M13.08,383.86L21.85,399,294,241.93,67.44,111.13,67.2,111A298.42,298.42,0,0,0,13.08,383.86Z"/><path class="cls-3" d="M215.25,12q-3,.88-6,1.82Q212.25,12.84,215.25,12Z"/><path class="cls-3" d="M208.21,14.11q-3.11,1-6.19,2.05Q205.11,15.1,208.21,14.11Z"/><path class="cls-3" d="M193.86,19.1q-2.93,1.1-5.84,2.27Q190.92,20.2,193.86,19.1Z"/><path class="cls-3" d="M252.42,3.64q-3.26.51-6.51,1.1Q249.16,4.16,252.42,3.64Z"/><path class="cls-3" d="M200.7,16.62q-3.12,1.09-6.21,2.24Q197.58,17.7,200.7,16.62Z"/><path class="cls-3" d="M237.22,6.44q-3.07.65-6.11,1.36Q234.15,7.09,237.22,6.44Z"/><path class="cls-3" d="M244.53,5q-3.26.6-6.51,1.27Q241.26,5.59,244.53,5Z"/><path class="cls-3" d="M222.35,10q-3.2.85-6.37,1.76Q219.15,10.83,222.35,10Z"/><path class="cls-3" d="M230.06,8q-3.19.76-6.36,1.59Q226.87,8.8,230.06,8Z"/><path class="cls-3" d="M186.95,21.79q-3,1.22-6,2.5Q183.94,23,186.95,21.79Z"/><path class="cls-3" d="M310.33,0.26Q308,0.17,305.71.12,308,0.17,310.33.26Z"/><path class="cls-3" d="M304,0.08q-2.25,0-4.49,0Q301.73,0,304,.08Z"/><path class="cls-3" d="M180.62,25.11A297.54,297.54,0,0,0,82.8,93.25L73.71,109,345.57,266V4.4h0A296.51,296.51,0,0,0,180.62,25.11Z"/><path class="cls-3" d="M298.28,0q-3.38,0-6.75.09Q294.9,0,298.28,0Z"/><path class="cls-3" d="M343.67,3.47c1.91,0.29,3.82.6,5.73,0.93C347.49,4.07,345.58,3.77,343.67,3.47Z"/><path class="cls-3" d="M317.11,0.61q-2.83-.18-5.66-0.3Q314.28,0.43,317.11.61Z"/><path class="cls-3" d="M342,3.23q-2.17-.32-4.33-0.61Q339.84,2.91,342,3.23Z"/><path class="cls-3" d="M322.94,1q-2.19-.18-4.39-0.33Q320.75,0.85,322.94,1Z"/><path class="cls-3" d="M336.09,2.41q-2.85-.36-5.7-0.67Q333.24,2,336.09,2.41Z"/><path class="cls-3" d="M329.68,1.67q-2.52-.27-5-0.49Q327.16,1.4,329.68,1.67Z"/><path class="cls-3" d="M167.43,30.51q2.82-1.38,5.68-2.71Q170.25,29.12,167.43,30.51Z"/><path class="cls-3" d="M110.57,66.81q2.54-2.06,5.12-4.06Q113.11,64.75,110.57,66.81Z"/><path class="cls-3" d="M122.32,57.76q2.62-1.92,5.29-3.78Q124.95,55.84,122.32,57.76Z"/><path class="cls-3" d="M141,45.14q2.75-1.71,5.54-3.37Q143.77,43.43,141,45.14Z"/><path class="cls-3" d="M128.61,53.28q2.65-1.83,5.33-3.61Q131.26,51.45,128.61,53.28Z"/><path class="cls-3" d="M134.27,49.45q2.78-1.83,5.6-3.59Q137.05,47.63,134.27,49.45Z"/><path class="cls-3" d="M115.91,62.57q2.65-2,5.34-4Q118.57,60.53,115.91,62.57Z"/><path class="cls-3" d="M104.6,71.77q2.48-2.12,5-4.18Q107.08,69.65,104.6,71.77Z"/><path class="cls-3" d="M93.55,81.69q2.43-2.29,4.9-4.53Q96,79.39,93.55,81.69Z"/><path class="cls-3" d="M259.67,2.59q-3.12.41-6.23,0.89Q256.54,3,259.67,2.59Z"/><path class="cls-3" d="M98.56,77.06q2.51-2.26,5.07-4.45Q101.07,74.81,98.56,77.06Z"/><path class="cls-3" d="M82.3,92.87q2.35-2.46,4.76-4.87Q84.65,90.42,82.3,92.87Z"/><path class="cls-3" d="M282.5,0.47q-3.18.17-6.34,0.41Q279.32,0.64,282.5.47Z"/><path class="cls-3" d="M290.13,0.15q-3.36.1-6.72,0.26Q286.77,0.24,290.13.15Z"/><path class="cls-3" d="M275.19,0.95q-3.33.26-6.64,0.61Q271.86,1.22,275.19.95Z"/><path class="cls-3" d="M267.15,1.7q-3.32.35-6.63,0.78Q263.83,2,267.15,1.7Z"/><path class="cls-3" d="M92.64,82.54q-2.37,2.26-4.7,4.57Q90.27,84.8,92.64,82.54Z"/><path class="cls-3" d="M153.55,37.76q2.89-1.61,5.82-3.15Q156.45,36.15,153.55,37.76Z"/><path class="cls-3" d="M160.59,34q2.87-1.5,5.78-2.94Q163.46,32.47,160.59,34Z"/><path class="cls-3" d="M173.65,27.54q3-1.38,6-2.7Q176.65,26.16,173.65,27.54Z"/><path class="cls-3" d="M147.6,41.17q2.74-1.61,5.51-3.16Q150.33,39.56,147.6,41.17Z"/><path class="cls-3" d="M502.17,80.83a298.54,298.54,0,0,0-126.27-70c-2.55-.68-5.27-1.37-8.32-2.09h-17V323.28l226.4-130.71,0.26-.15A300.7,300.7,0,0,0,502.17,80.83Z"/><path class="cls-3" d="M584.82,214.91l-9.15-15.86-271,156.44,0.59,1L530,486.24l0.37,0.21A298.48,298.48,0,0,0,584.82,214.91Z"/><path class="cls-3" d="M431.19,566.46q2.83-1.4,5.63-2.86Q434,565.06,431.19,566.46Z"/><path class="cls-3" d="M424.05,569.88q2.87-1.33,5.71-2.72Q426.92,568.55,424.05,569.88Z"/><path class="cls-3" d="M437.92,563q2.6-1.37,5.18-2.79Q440.52,561.65,437.92,563Z"/><path class="cls-3" d="M444,559.72q2.79-1.55,5.54-3.17Q446.8,558.16,444,559.72Z"/><path class="cls-3" d="M450.89,555.77q2.73-1.61,5.42-3.28Q453.62,554.16,450.89,555.77Z"/><path class="cls-3" d="M417.63,572.76q2.68-1.16,5.33-2.38Q420.3,571.6,417.63,572.76Z"/><path class="cls-3" d="M396.58,581q2.78-1,5.55-2Q399.37,580,396.58,581Z"/><path class="cls-3" d="M389.54,583.33q3-1,6.08-2Q392.59,582.36,389.54,583.33Z"/><path class="cls-3" d="M410.71,575.66q2.93-1.19,5.84-2.44Q413.65,574.48,410.71,575.66Z"/><path class="cls-3" d="M403.34,578.54q3-1.11,5.88-2.28Q406.29,577.43,403.34,578.54Z"/><path class="cls-3" d="M475.94,539.2q2.51-1.85,5-3.75Q478.45,537.35,475.94,539.2Z"/><path class="cls-3" d="M487.63,530.14q2.5-2,5-4.14Q490.14,528.1,487.63,530.14Z"/><path class="cls-3" d="M457.38,551.82q2.55-1.6,5.07-3.25Q459.93,550.22,457.38,551.82Z"/><path class="cls-3" d="M493.52,525.21q2.47-2.12,4.91-4.3Q496,523.09,493.52,525.21Z"/><path class="cls-3" d="M523.73,488.38l-271.65-157L251.8,593.11a298.32,298.32,0,0,0,262.53-88.46Z"/><path class="cls-3" d="M498.65,520.71q2.49-2.24,4.93-4.55Q501.14,518.46,498.65,520.71Z"/><path class="cls-3" d="M481.41,535.08q2.61-2,5.16-4.09Q484,533.07,481.41,535.08Z"/><path class="cls-3" d="M469.73,543.65q2.62-1.83,5.2-3.71Q472.35,541.82,469.73,543.65Z"/><path class="cls-3" d="M463.17,548.1q2.7-1.78,5.36-3.62Q465.86,546.32,463.17,548.1Z"/><path class="cls-3" d="M382,585.65q3-.89,6.07-1.84Q385,584.76,382,585.65Z"/><path class="cls-3" d="M504.52,515.29q2.37-2.24,4.69-4.54Q506.88,513,504.52,515.29Z"/><path class="cls-3" d="M268.25,595.91q-2.16-.22-4.31-0.48Q266.09,595.69,268.25,595.91Z"/><path class="cls-3" d="M262.19,595.22l-3.92-.52Z"/><path class="cls-3" d="M251.18,593.64c1.82,0.3,3.63.57,5.45,0.83C254.81,594.21,253,593.94,251.18,593.64Z"/><path class="cls-3" d="M274.85,596.52q-2.72-.22-5.45-0.49Q272.13,596.3,274.85,596.52Z"/><path class="cls-3" d="M293.26,597.45q2.55,0,5.09.05Q295.81,597.5,293.26,597.45Z"/><path class="cls-3" d="M293,597.45q-2.7-.05-5.4-0.16Q290.27,597.39,293,597.45Z"/><path class="cls-3" d="M299.69,597.5c2.29,0,4.57,0,6.85-.09C304.26,597.47,302,597.49,299.69,597.5Z"/><path class="cls-3" d="M514.83,505q-2.35,2.46-4.76,4.86Q512.47,507.48,514.83,505Z"/><path class="cls-3" d="M286,597.22L282,597Z"/><path class="cls-3" d="M280.32,596.92q-2.12-.13-4.25-0.3Q278.2,596.78,280.32,596.92Z"/><path class="cls-3" d="M345.45,593.83c2.19-.35,4.38-0.71,6.56-1.11C349.83,593.11,347.64,593.48,345.45,593.83Z"/><path class="cls-3" d="M360,591.14q3.14-.66,6.27-1.39Q363.17,590.48,360,591.14Z"/><path class="cls-3" d="M352.55,592.61q3.11-.57,6.19-1.21Q355.66,592,352.55,592.61Z"/><path class="cls-3" d="M374.86,587.62q2.93-.77,5.84-1.61Q377.79,586.84,374.86,587.62Z"/><path class="cls-3" d="M367.74,589.41q3.17-.76,6.32-1.57Q370.92,588.66,367.74,589.41Z"/><path class="cls-3" d="M322.73,596.54c2.27-.18,4.53-0.38,6.78-0.62C327.25,596.16,325,596.36,322.73,596.54Z"/><path class="cls-3" d="M306.67,597.41c2.3-.06,4.59-0.16,6.89-0.27C311.26,597.25,309,597.35,306.67,597.41Z"/><path class="cls-3" d="M314.83,597.08q3.31-.18,6.6-0.43Q318.14,596.9,314.83,597.08Z"/><path class="cls-3" d="M337.62,595q3.23-.43,6.45-0.92Q340.85,594.54,337.62,595Z"/><path class="cls-3" d="M329.75,595.9c2.2-.23,4.4-0.49,6.59-0.77C334.15,595.41,332,595.67,329.75,595.9Z"/><path class="cls-2" d="M301.07,14.94a286.53,286.53,0,1,1-91.66,15.18,287,287,0,0,1,91.66-15.18h0m0-12.45C169.19,2.5,48.5,90.5,12.74,223.94-30,383.28,64.6,547.05,223.94,589.75A299,299,0,0,0,301.43,600C433.3,600,554,512,589.75,378.55c42.69-159.34-51.86-323.11-211.2-365.81A299,299,0,0,0,301.06,2.49h0Z"/><path class="cls-4" d="M298.58,12.45a286.53,286.53,0,1,1-91.66,15.18,287,287,0,0,1,91.66-15.18h0m0-12.45C166.7,0,46,88,10.25,221.45c-42.69,159.34,51.86,323.11,211.2,365.81a299,299,0,0,0,77.49,10.25c131.87,0,252.56-88,288.32-221.45C630,216.72,535.4,52.95,376.06,10.25A299,299,0,0,0,298.57,0h0Z"/><circle class="cls-2" cx="300.08" cy="300.08" r="34.96" transform="translate(-67.44 512.26) rotate(-75)"/><circle class="cls-5" cx="298.83" cy="298.83" r="34.96" transform="translate(-67.16 510.14) rotate(-75)"/></svg>