<svg id="Layer_1" data-name="Layer 1" xmlns="http://www.w3.org/2000/svg" viewBox="0 0 800 800"><defs><style>.cls-1{fill:#fff9f2;}.cls-2{opacity:0.4;}.cls-3{fill:#f9debf;}</style></defs><title>refocus-iconography</title><rect class="cls-1" width="800" height="800"/><g class="cls-2"><circle class="cls-3" cx="685.26" cy="585.81" r="30.53" transform="translate(-57.95 1096.1) rotate(-75)"/><circle class="cls-3" cx="471.65" cy="625" r="30.53" transform="translate(-254.13 918.82) rotate(-75)"/><path class="cls-3" d="M756.28,585.88h-2.17l-62.66-138,0.16,0a3.93,3.93,0,0,0-1.37-7.75L465.55,479.68a3.93,3.93,0,0,0-3.19,4.56h0a3.93,3.93,0,0,0,4.56,3.19l0.45-.08L404.9,625H403a3.72,3.72,0,0,0-3.36,5.28,78.68,78.68,0,0,0,143.31,0,3.71,3.71,0,0,0-3.39-5.23h-2.22l-63-138.82,100.25-17.68v131.7h0c-0.82,60-10.42,115.27-29.34,159.85h67c-18.92-44.58-28.53-99.83-29.34-159.85h0V467l100.95-17.8-62,136.67h-1.92a3.72,3.72,0,0,0-3.36,5.28,78.68,78.68,0,0,0,143.31,0A3.71,3.71,0,0,0,756.28,585.88ZM410.3,625l60.87-134.11L532.05,625H410.3Zm216.79-39.08,60.84-134,60.84,134H627.09Z"/></g><g class="cls-2"><polygon class="cls-3" points="243.34 247.55 374.71 208.36 237.66 211.69 240.55 189.17 220.03 198.88 180.85 67.51 184.17 204.56 161.66 201.67 171.37 222.19 40 261.37 177.05 258.04 174.16 280.56 194.67 270.85 233.86 402.22 230.53 265.17 253.05 268.06 243.34 247.55"/><polygon class="cls-3" points="265.98 89.83 259.74 40 229.42 80.03 250.91 72.95 265.98 89.83"/><polygon class="cls-3" points="148.99 380.17 155.24 430 185.56 389.97 164.07 397.05 148.99 380.17"/></g></svg>