<svg id="Layer_1" data-name="Layer 1" xmlns="http://www.w3.org/2000/svg" viewBox="0 0 600 600"><defs><style>.cls-1{fill:#fafcf8;}.cls-2{fill:#1595a3;}.cls-3{fill:#225378;}.cls-4{fill:#b3e1e8;}.cls-5{fill:#ea8024;}</style></defs><title>refocus-iconography</title><circle class="cls-1" cx="298.76" cy="301.24" r="298.68" transform="matrix(0.26, -0.97, 0.97, 0.26, -69.55, 511.85)"/><path class="cls-2" d="M301.07,14.94a286.53,286.53,0,1,1-91.66,15.18,287,287,0,0,1,91.66-15.18h0m0-12.45C169.19,2.5,48.5,90.5,12.74,223.94-30,383.28,64.6,547.05,223.94,589.75A299,299,0,0,0,301.43,600C433.3,600,554,512,589.75,378.55c42.69-159.34-51.86-323.11-211.2-365.81A299,299,0,0,0,301.06,2.49h0Z"/><path class="cls-3" d="M298.44,11.67a286.53,286.53,0,1,1-91.66,15.18,287,287,0,0,1,91.66-15.18h0m0-12.45c-131.87,0-252.56,88-288.32,221.45C-32.59,380,62,543.79,221.31,586.48a299,299,0,0,0,77.49,10.25c131.87,0,252.56-88,288.32-221.45C629.81,215.94,535.25,52.17,375.92,9.47A299,299,0,0,0,298.42-.78h0Z"/><path class="cls-2" d="M463.72,185.95C400.41,95.54,275.36,73.48,184.95,136.79S72.48,325.15,135.79,415.56C194.92,500,307.91,524.81,396.23,476.13,407,495.07,414.82,509,416.92,513c8.93,17-14.93,13.21-38.67,13.21H175.54V535H385.22c21.23,0,53.6,2,43.28-16.79-5.53-10-14.71-26.42-25.69-45.86q6-3.59,11.76-7.63C505,401.41,527,276.36,463.72,185.95ZM436.92,431l-29.12-27.66a147.66,147.66,0,0,0,14-17.16l32.9,23A187.55,187.55,0,0,1,436.92,431Zm-265.55-72c-27.55-60.59-8.94-134.28,47.51-173.81s132.06-31.81,179.58,14.8ZM310.29,325c13.75,24.36,36,63.41,56.69,99.74a141.32,141.32,0,0,1-165.93-23.25Zm5.71-4,112.14-78.52c27.55,60.59,8.94,134.28-47.51,173.81q-3.48,2.44-7.06,4.63C352.44,383.83,330.43,345.55,316,321Zm141.45,84.28L424,383.06a148.52,148.52,0,0,0,10.8-19.35l36.39,17A188.55,188.55,0,0,1,457.45,405.24Zm15.69-29-36.81-16a149.83,149.83,0,0,0,7.28-20.92l38.78,10.39A190.16,190.16,0,0,1,473.14,376.25ZM483.58,345l-39-9.39a150.31,150.31,0,0,0,3.57-21.86l40,3.5A190.83,190.83,0,0,1,483.58,345Zm4.9-32.59-40.07-2.47a149.69,149.69,0,0,0-.25-22.15l40-3.5A190,190,0,0,1,488.47,312.39Zm-0.79-33L447.78,284a148.33,148.33,0,0,0-4.1-21.78l38.8-10.4A188.26,188.26,0,0,1,487.68,279.44Zm-6.52-32.32-38.52,11.39a147.7,147.7,0,0,0-7.84-20.73l36.4-17A187.55,187.55,0,0,1,481.17,247.12Zm-12.07-30.69-36,17.9a149.58,149.58,0,0,0-11.33-19l32.9-23A189.91,189.91,0,0,1,469.09,216.43Zm-17.22-28.12-32.3,23.87a149,149,0,0,0-14.45-16.8l28.4-28.4A189.23,189.23,0,0,1,451.87,188.31ZM430,163.59l-27.66,29.12a147.73,147.73,0,0,0-17.16-14l23-32.9A187.52,187.52,0,0,1,430,163.59Zm-25.8-20.53-22.19,33.48a148.58,148.58,0,0,0-19.35-10.8l17-36.39A188.52,188.52,0,0,1,404.24,143.06Zm-29-15.69-16,36.81a149.75,149.75,0,0,0-20.92-7.28l10.39-38.78A190.16,190.16,0,0,1,375.25,127.37Zm-59-15A190.84,190.84,0,0,1,344,116.94l-9.39,39a150.36,150.36,0,0,0-21.86-3.57Zm-4.84-.37-2.47,40.07a149.59,149.59,0,0,0-22.15.25l-3.5-40A190,190,0,0,1,311.39,112Zm-33,.79,4.53,39.9a148.31,148.31,0,0,0-21.77,4.1L250.79,118A188.23,188.23,0,0,1,278.44,112.83Zm-32.32,6.52,11.39,38.52a147.75,147.75,0,0,0-20.73,7.84l-17-36.4A187.49,187.49,0,0,1,246.12,119.34Zm-30.69,12.07,17.9,36a149.62,149.62,0,0,0-19,11.33l-23-32.9A189.85,189.85,0,0,1,215.43,131.42Zm-28.12,17.22,23.87,32.3a149,149,0,0,0-16.8,14.45L166,167A189.26,189.26,0,0,1,187.31,148.64Zm-24.72,21.83,29.12,27.66a147.62,147.62,0,0,0-14,17.16l-32.9-23A187.49,187.49,0,0,1,162.59,170.46Zm-20.53,25.8,33.48,22.19a148.49,148.49,0,0,0-10.8,19.35l-36.39-17A188.54,188.54,0,0,1,142.06,196.27Zm-15.69,29,36.81,16a149.83,149.83,0,0,0-7.28,20.92l-38.78-10.39A190.12,190.12,0,0,1,126.37,225.26Zm-10.43,31.27,39,9.39a150.26,150.26,0,0,0-3.57,21.86l-40-3.5A190.86,190.86,0,0,1,115.94,256.53ZM111,289.12l40.07,2.47a149.59,149.59,0,0,0,.25,22.15l-40,3.5A190,190,0,0,1,111,289.12Zm0.79,33,39.9-4.53a148.32,148.32,0,0,0,4.1,21.78L117,349.72A188.27,188.27,0,0,1,111.83,322.07Zm6.52,32.32L156.86,343a147.72,147.72,0,0,0,7.84,20.73l-36.4,17A187.54,187.54,0,0,1,118.34,354.39Zm12.07,30.69,36-17.9a149.52,149.52,0,0,0,11.33,19l-32.9,23A189.82,189.82,0,0,1,130.42,385.08Zm17.22,28.12,32.3-23.87a149,149,0,0,0,14.45,16.8L166,434.52A189.23,189.23,0,0,1,147.64,413.2Zm21.83,24.72,27.66-29.12a147.67,147.67,0,0,0,17.16,14l-23,32.9A187.43,187.43,0,0,1,169.46,437.92Zm25.8,20.53L217.45,425a148.5,148.5,0,0,0,19.35,10.8l-17,36.39A188.49,188.49,0,0,1,195.27,458.45Zm29,15.69,16-36.81a149.73,149.73,0,0,0,20.92,7.28l-10.39,38.78A190.17,190.17,0,0,1,224.26,474.14Zm59,15a190.83,190.83,0,0,1-27.75-4.53l9.39-39a150.29,150.29,0,0,0,21.86,3.57Zm4.84,0.37,2.47-40.07a149.72,149.72,0,0,0,22.15-.25l3.5,40A190,190,0,0,1,288.12,489.47Zm33-.79-4.53-39.9a148.37,148.37,0,0,0,21.78-4.1l10.4,38.8A188.23,188.23,0,0,1,321.07,488.68Zm32.32-6.52L342,443.65a147.67,147.67,0,0,0,20.73-7.84l17,36.4A187.57,187.57,0,0,1,353.39,482.17Zm30.69-12.07-17.9-36q2.4-1.2,4.76-2.49c7,12.33,13.78,24.2,19.86,34.91Q387.46,468.4,384.08,470.09Zm13.3-7.32c-6.27-11.07-13-22.89-19.86-35,2.59-1.59,5.17-3.24,7.69-5l23,32.9Q402.9,459.46,397.38,462.77Zm-9.06-42.2a149.07,149.07,0,0,0,16.8-14.45l28.4,28.4a189.18,189.18,0,0,1-21.32,18.35Z"/><path class="cls-4" d="M462.72,183.95C399.41,93.54,274.36,71.48,183.95,134.79S71.48,323.15,134.79,413.56C193.92,498,306.91,522.81,395.23,474.13,406,493.07,413.82,507,415.92,511c8.93,17-14.93,13.21-38.67,13.21H174.54V533H384.22c21.23,0,53.6,2,43.28-16.79-5.53-10-14.71-26.42-25.69-45.86q6-3.59,11.76-7.63C504,399.41,526,274.36,462.72,183.95ZM435.92,429l-29.12-27.66a147.66,147.66,0,0,0,14-17.16l32.9,23A187.55,187.55,0,0,1,435.92,429Zm-265.55-72c-27.55-60.59-8.94-134.28,47.51-173.81s132.06-31.81,179.58,14.8ZM309.29,323c13.75,24.36,36,63.41,56.69,99.74a141.32,141.32,0,0,1-165.93-23.25Zm5.71-4,112.14-78.52c27.55,60.59,8.94,134.28-47.51,173.81q-3.48,2.44-7.06,4.63C351.44,381.83,329.43,343.55,315,319Zm141.45,84.28L423,381.06a148.52,148.52,0,0,0,10.8-19.35l36.39,17A188.55,188.55,0,0,1,456.45,403.24Zm15.69-29-36.81-16a149.83,149.83,0,0,0,7.28-20.92l38.78,10.39A190.16,190.16,0,0,1,472.14,374.25ZM482.58,343l-39-9.39a150.31,150.31,0,0,0,3.57-21.86l40,3.5A190.83,190.83,0,0,1,482.58,343Zm4.9-32.59-40.07-2.47a149.69,149.69,0,0,0-.25-22.15l40-3.5A190,190,0,0,1,487.47,310.39Zm-0.79-33L446.78,282a148.33,148.33,0,0,0-4.1-21.78l38.8-10.4A188.26,188.26,0,0,1,486.68,277.44Zm-6.52-32.32-38.52,11.39a147.7,147.7,0,0,0-7.84-20.73l36.4-17A187.55,187.55,0,0,1,480.17,245.12Zm-12.07-30.69-36,17.9a149.58,149.58,0,0,0-11.33-19l32.9-23A189.91,189.91,0,0,1,468.09,214.43Zm-17.22-28.12-32.3,23.87a149,149,0,0,0-14.45-16.8l28.4-28.4A189.23,189.23,0,0,1,450.87,186.31ZM429,161.59l-27.66,29.12a147.73,147.73,0,0,0-17.16-14l23-32.9A187.52,187.52,0,0,1,429,161.59Zm-25.8-20.53-22.19,33.48a148.58,148.58,0,0,0-19.35-10.8l17-36.39A188.52,188.52,0,0,1,403.24,141.06Zm-29-15.69-16,36.81a149.75,149.75,0,0,0-20.92-7.28l10.39-38.78A190.16,190.16,0,0,1,374.25,125.37Zm-59-15A190.84,190.84,0,0,1,343,114.94l-9.39,39a150.36,150.36,0,0,0-21.86-3.57Zm-4.84-.37-2.47,40.07a149.59,149.59,0,0,0-22.15.25l-3.5-40A190,190,0,0,1,310.39,110Zm-33,.79,4.53,39.9a148.31,148.31,0,0,0-21.77,4.1L249.79,116A188.23,188.23,0,0,1,277.44,110.83Zm-32.32,6.52,11.39,38.52a147.75,147.75,0,0,0-20.73,7.84l-17-36.4A187.49,187.49,0,0,1,245.12,117.34Zm-30.69,12.07,17.9,36a149.62,149.62,0,0,0-19,11.33l-23-32.9A189.85,189.85,0,0,1,214.43,129.42Zm-28.12,17.22,23.87,32.3a149,149,0,0,0-16.8,14.45L165,165A189.26,189.26,0,0,1,186.31,146.64Zm-24.72,21.83,29.12,27.66a147.62,147.62,0,0,0-14,17.16l-32.9-23A187.49,187.49,0,0,1,161.59,168.46Zm-20.53,25.8,33.48,22.19a148.49,148.49,0,0,0-10.8,19.35l-36.39-17A188.54,188.54,0,0,1,141.06,194.27Zm-15.69,29,36.81,16a149.83,149.83,0,0,0-7.28,20.92l-38.78-10.39A190.12,190.12,0,0,1,125.37,223.26Zm-10.43,31.27,39,9.39a150.26,150.26,0,0,0-3.57,21.86l-40-3.5A190.86,190.86,0,0,1,114.94,254.53ZM110,287.12l40.07,2.47a149.59,149.59,0,0,0,.25,22.15l-40,3.5A190,190,0,0,1,110,287.12Zm0.79,33,39.9-4.53a148.32,148.32,0,0,0,4.1,21.78L116,347.72A188.27,188.27,0,0,1,110.83,320.07Zm6.52,32.32L155.86,341a147.72,147.72,0,0,0,7.84,20.73l-36.4,17A187.54,187.54,0,0,1,117.34,352.39Zm12.07,30.69,36-17.9a149.52,149.52,0,0,0,11.33,19l-32.9,23A189.82,189.82,0,0,1,129.42,383.08Zm17.22,28.12,32.3-23.87a149,149,0,0,0,14.45,16.8L165,432.52A189.23,189.23,0,0,1,146.64,411.2Zm21.83,24.72,27.66-29.12a147.67,147.67,0,0,0,17.16,14l-23,32.9A187.43,187.43,0,0,1,168.46,435.92Zm25.8,20.53L216.45,423a148.5,148.5,0,0,0,19.35,10.8l-17,36.39A188.49,188.49,0,0,1,194.27,456.45Zm29,15.69,16-36.81a149.73,149.73,0,0,0,20.92,7.28l-10.39,38.78A190.17,190.17,0,0,1,223.26,472.14Zm59,15a190.83,190.83,0,0,1-27.75-4.53l9.39-39a150.29,150.29,0,0,0,21.86,3.57Zm4.84,0.37,2.47-40.07a149.72,149.72,0,0,0,22.15-.25l3.5,40A190,190,0,0,1,287.12,487.47Zm33-.79-4.53-39.9a148.37,148.37,0,0,0,21.78-4.1l10.4,38.8A188.23,188.23,0,0,1,320.07,486.68Zm32.32-6.52L341,441.65a147.67,147.67,0,0,0,20.73-7.84l17,36.4A187.57,187.57,0,0,1,352.39,480.17Zm30.69-12.07-17.9-36q2.4-1.2,4.76-2.49c7,12.33,13.78,24.2,19.86,34.91Q386.46,466.4,383.08,468.09Zm13.3-7.32c-6.27-11.07-13-22.89-19.86-35,2.59-1.59,5.17-3.24,7.69-5l23,32.9Q401.9,457.46,396.38,460.77Zm-9.06-42.2a149.07,149.07,0,0,0,16.8-14.45l28.4,28.4a189.18,189.18,0,0,1-21.32,18.35Z"/><polygon class="cls-2" points="96.85 142.44 78.9 168.6 277.17 304.61 141.17 502.88 167.33 520.82 303.33 322.55 501.6 458.56 519.54 432.39 321.28 296.39 457.28 98.12 431.12 80.18 295.12 278.45 96.85 142.44"/><polygon class="cls-5" points="95.85 140.44 77.9 166.6 276.17 302.61 140.17 500.88 166.33 518.82 302.33 320.55 500.6 456.56 518.54 430.39 320.28 294.39 456.28 96.12 430.12 78.18 294.12 276.45 95.85 140.44"/></svg>