<svg id="Layer_1" data-name="Layer 1" xmlns="http://www.w3.org/2000/svg" viewBox="0 0 600 600"><defs><style>.cls-1{fill:#fafcf8;}.cls-2{fill:#1595a3;}.cls-3{fill:#225378;}.cls-4{fill:#b3e1e8;}.cls-5{fill:#ea8024;}</style></defs><title>refocus-iconography</title><circle class="cls-1" cx="298.76" cy="301.24" r="298.68" transform="matrix(0.26, -0.97, 0.97, 0.26, -69.55, 511.85)"/><path class="cls-2" d="M301.07,14.94a286.53,286.53,0,1,1-91.66,15.18,287,287,0,0,1,91.66-15.18h0m0-12.45C169.19,2.5,48.5,90.5,12.74,223.94-30,383.28,64.6,547.05,223.94,589.75A299,299,0,0,0,301.43,600C433.3,600,554,512,589.75,378.55c42.69-159.34-51.86-323.11-211.2-365.81A299,299,0,0,0,301.06,2.49h0Z"/><path class="cls-3" d="M298.44,11.67a286.53,286.53,0,1,1-91.66,15.18,287,287,0,0,1,91.66-15.18h0m0-12.45c-131.87,0-252.56,88-288.32,221.45C-32.59,380,62,543.79,221.31,586.48a299,299,0,0,0,77.49,10.25c131.87,0,252.56-88,288.32-221.45C629.81,215.94,535.25,52.17,375.92,9.47A299,299,0,0,0,298.42-.78h0Z"/><path class="cls-2" d="M284.22,214.43S240.58,150,170.47,163.63,76,253.07,104.65,312.45s73,83.71,108.75,105.17,122.34,52.23,122.34,52.23,48.65-39.35,83-80.13,86.57-114.47,68.68-185.3-78-84.42-107.32-81.56S306.4,142.89,284.22,214.43Z"/><path class="cls-4" d="M283.22,212.43S239.58,148,169.47,161.63,75,251.07,103.65,310.45s73,83.71,108.75,105.17,122.34,52.23,122.34,52.23,48.65-39.35,83-80.13,86.57-114.47,68.68-185.3-78-84.42-107.32-81.56S305.4,140.89,283.22,212.43Z"/><polygon class="cls-2" points="99.97 138.52 81.52 164.33 277.09 304.18 137.25 499.75 163.05 518.21 302.9 322.63 498.48 462.48 516.93 436.67 321.35 296.82 461.2 101.25 435.39 82.79 295.55 278.37 99.97 138.52"/><polygon class="cls-5" points="98.97 136.52 80.52 162.33 276.09 302.18 136.25 497.75 162.05 516.21 301.9 320.63 497.48 460.48 515.93 434.67 320.35 294.82 460.2 99.25 434.39 80.79 294.55 276.37 98.97 136.52"/></svg>