<svg id="Layer_1" data-name="Layer 1" xmlns="http://www.w3.org/2000/svg" viewBox="0 0 600 600"><defs><style>.cls-1{fill:#fafcf8;}.cls-2{fill:#1595a3;}.cls-3{fill:#225378;}.cls-4{fill:#b3e1e8;}.cls-5{fill:#ea8024;}</style></defs><title>refocus</title><circle class="cls-1" cx="301.24" cy="301.24" r="298.68" transform="translate(-67.7 514.26) rotate(-75)"/><path class="cls-2" d="M301.07,14.94a286.53,286.53,0,1,1-91.66,15.18,287,287,0,0,1,91.66-15.18h0m0-12.45C169.19,2.5,48.5,90.5,12.74,223.94-30,383.28,64.6,547.05,223.94,589.75A299,299,0,0,0,301.43,600C433.3,600,554,512,589.75,378.55c42.69-159.34-51.86-323.11-211.2-365.81A299,299,0,0,0,301.06,2.49h0Z"/><path class="cls-3" d="M219.65,22.77A286.53,286.53,0,1,1,135.7,62.59a287,287,0,0,1,83.95-39.82h0m-3.44-12C89.43,47.11-2.38,164.93,0,303.06,2.78,468,138.76,599.42,303.69,596.61A299,299,0,0,0,381,585.14C507.79,548.85,599.6,431,597.25,292.89,594.44,128,458.46-3.47,293.53-.66a299,299,0,0,0-77.32,11.47h0Z"/><path class="cls-2" d="M83.24,308.42H83.08c-7.79.58-12.89,4.48-12.5,9.59s5.83,8.05,13.62,7.47h0.16c7.79-.58,12.89-4.48,12.5-9.59S91,307.83,83.24,308.42Z"/><path class="cls-2" d="M263.69,500.06c-5-1-9.29,3.53-10.75,11.21l0,0.16c-1.46,7.68,1,13.61,6,14.57s9.29-3.53,10.75-11.21l0-.16C271.16,506.95,268.72,501,263.69,500.06Z"/><polygon class="cls-2" points="400.17 501.65 409.42 496.85 398.42 486.97 400.17 501.65"/><path class="cls-2" d="M86.13,262l0.16,0c7.63,1.66,13.63-.62,14.72-5.63s-3.29-9.38-10.92-11l-0.16,0c-7.63-1.66-13.63.61-14.72,5.62S78.49,260.31,86.13,262Z"/><path class="cls-2" d="M196.34,500.18l-0.07.15a6.2,6.2,0,0,0,2.76,8.54,6,6,0,0,0,8.29-3l0.07-.15a6.18,6.18,0,0,0-2.79-8.47A6,6,0,0,0,196.34,500.18Z"/><path class="cls-2" d="M337.07,502l-3.11.62L338.56,526l3.11-.62c8.54-1.69,13.36-6.29,11.76-14.35l0-.16C351.81,502.78,345.61,500.35,337.07,502Z"/><path class="cls-2" d="M180,116.91c3.78-2.55,4.93-5.79,3-8.69l-0.09-.13c-2.05-3-5.41-2.92-9.06-.46L167,112.27l6.24,9.24Z"/><path class="cls-2" d="M459.22,137.95l0.11-.12c2.44-2.73,1.52-6-1.76-8.9l-6.19-5.54-7.44,8.31,6.12,5.48C453.46,140.23,456.88,140.56,459.22,137.95Z"/><path class="cls-2" d="M90.81,200.71c2.92,1.78,5.9,1.12,7-.69s0.4-4.72-2.59-6.54l-0.14-.08c-2.92-1.78-5.81-1.26-7,.69s-0.4,4.72,2.59,6.54Z"/><path class="cls-2" d="M297.45,30.5C148.39,33,29.61,155.93,32.15,305s125.43,267.84,274.49,265.3S574.47,444.86,571.94,295.8,446.51,28,297.45,30.5ZM434.23,89.73L427,104.31,401.33,91.57l-3.22,6.49,23.84,11.83-6.59,13.27-23.84-11.83L383.24,128l-17.06-8.47,25.33-51ZM472,297.5a170,170,0,1,1-172.83-167A170,170,0,0,1,472,297.5ZM315.8,53.22L314,74.47l17.94-19.88L354,56.46l-21.88,23,17.47,33.83L327,111.35,317.38,92.4,312,97.91,311,110l-19-1.61,4.81-56.77ZM260.48,93.69c-13-.13-24.76-1.6-27-13.43l0-.16c-2.05-10.63,4.67-20.46,20.09-23.44,10.79-2.08,19.27-1.07,26.73,2.79l-6.67,14.38a29.88,29.88,0,0,0-17.85-2.27c-2.8.54-3.89,1.75-3.63,3.1l0,0.16c0.29,1.52,2,2.18,8.13,2.16,14.81-.13,25.2,2.18,27.38,13.45l0,0.16c2.27,11.75-6,20.81-21,23.71-11.35,2.19-22.19,1-30.51-3.89l7.69-13.84a32.64,32.64,0,0,0,20.84,2.77c3.36-.65,4.62-1.8,4.33-3.32l0-.16C268.63,94.27,266.7,93.73,260.48,93.69Zm-43.16-26,21.54,52.74-17.63,7.2L199.68,74.88Zm-52,26.46c8.36-5.65,15.1-7.16,20.64-6.09,4.75,0.92,8.6,3.42,11.88,8.28l0.09,0.13c4.65,6.88,4.31,14.08.44,20.72l21.84,8.63L202.2,138l-18-7.47-3.37,2.28,9.11,13.49-15.78,10.66-31.89-47.21Zm-41.85,73.39c5-8.13,14.28-9.49,21.72-5l0.14,0.08c7.43,4.54,10.35,13.66,5.52,21.58s-14.28,9.49-21.72,5l-0.14-.08C121.55,184.57,118.5,175.65,123.47,167.53ZM106,146.65l13.39,38.21,11.15,30.93-6.4,10.49L111,188.83,99.58,157.14Zm-26.72,42c5-8.13,14.28-9.49,21.72-5l0.14,0.09c7.43,4.54,10.35,13.66,5.52,21.58s-14.28,9.49-21.72,5l-0.14-.08C77.35,205.74,74.3,196.83,79.26,188.7ZM59.1,247.26c3.67-16.86,19.33-23.78,34.68-20.43l0.16,0c15.35,3.34,26.84,16.34,23.17,33.2s-19.34,23.78-34.68,20.43l-0.16,0C66.92,277.12,55.43,264.12,59.1,247.26Zm24,127.49L87.79,383l-12.4,7.49-9.53-14.83L61.53,361.9l54.73-17.22,5.62,17.86Zm30.29-59.94c1.29,17.2-11.75,28.3-27.41,29.48H85.77c-15.66,1.18-30.39-8-31.68-25.21s11.75-28.3,27.41-29.48h0.16C97.33,288.43,112.06,297.6,113.35,314.81ZM216.18,489.49c7.8,3.87,12.93,13.5,8,23.34l-0.07.15c-6.11,12.32-19.25,14.07-30.55,8.47-7.73-3.83-11.46-8.59-13.37-14.26s-1.61-13.06,2.88-22.1l0.07-.15c7.92-16,22.24-23.94,38.93-15.66a32.63,32.63,0,0,1,15.26,14.48l-12.93,7.57c-1.94-3.6-4.32-6.68-8.11-8.57-5.54-2.75-10.23-.26-13.92,5.54A18.91,18.91,0,0,1,216.18,489.49ZM288.27,518l0,0.16c-2.94,15.43-15.63,27.27-32.58,24s-24.28-18.71-21.34-34.14l0-.16c2.94-15.43,15.63-27.27,32.58-24S291.21,502.56,288.27,518Zm83.89-11.28,0,0.16c3.27,16.53-5.75,30.5-28.35,35L323.09,546l-11-55.89,21.4-4.23C355.64,481.45,368.9,490.19,372.17,506.72ZM426,512.07l-6.2-5.4-17.7,9.18,0.92,8.14L385,533.36l-5.11-62,16.76-8.69,47.73,39.88ZM458.68,489l-13.5-15L404.6,461l15.86-14.26,19.78,7.39L435,433.58l15.68-14.1L459.18,461l13.66,15.19ZM508,435c-6.36,9.65-14.81,16.55-24.1,19.11L479.34,439a32.65,32.65,0,0,0,16.55-13c1.88-2.85,1.94-4.57.65-5.42l-0.14-.09c-1.36-.9-3.09.11-7.47,4.53-9.21,9.23-18.45,16.6-28.5,10l-0.14-.09c-9-6-11.38-17.64-2.73-30.75,6-9.17,12.7-14.53,20.68-17.17l5.63,14.82A29.88,29.88,0,0,0,469.78,413c-1.57,2.38-1.47,4-.31,4.76l0.14,0.09c1.29,0.85,3,.1,7.22-4.3C487.08,402.82,496,397,505.57,403.31l0.14,0.09C515.7,410,516.39,422.24,508,435Zm-57.89-256.8,0.6-.38-15.63-14,2.86-19.3-3-2.72L424,154l-14.19-12.71,38-42.45,20.74,18.57c7.52,6.73,10.63,12.9,10.94,18.54,0.27,4.83-1.22,9.18-5.13,13.54l-0.11.12c-5.54,6.19-12.61,7.61-20,5.48l-2.92,22.35,46.79-29.77,26.08,41L511.05,197l-16-25.2-4.88,3.1,14.94,23.49-11.61,7.38L478.53,182.3l-5.22,3.32,16.25,25.55-13.19,8.39Zm80.75,77.18L522,226.86l-5.52,1.71,8.24,26.59-13.14,4.07-8.24-26.59-5.91,1.83,9,28.92L491.45,268,477,221.21l54.42-16.86,14.38,46.42Z"/><path class="cls-2" d="M135,179.54c2.92,1.78,5.9,1.12,7-.69s0.4-4.71-2.59-6.54l-0.14-.09c-2.92-1.78-5.81-1.26-7,.69s-0.4,4.71,2.59,6.54Z"/><path class="cls-4" d="M82.24,306.42H82.08c-7.79.58-12.89,4.48-12.5,9.59s5.83,8.05,13.62,7.47h0.16c7.79-.58,12.89-4.48,12.5-9.59S90,305.83,82.24,306.42Z"/><path class="cls-4" d="M262.69,498.06c-5-1-9.29,3.53-10.75,11.21l0,0.16c-1.46,7.68,1,13.61,6,14.57s9.29-3.53,10.75-11.21l0-.16C270.16,504.95,267.72,499,262.69,498.06Z"/><polygon class="cls-4" points="399.17 499.65 408.42 494.85 397.42 484.97 399.17 499.65"/><path class="cls-4" d="M85.13,260l0.16,0c7.63,1.66,13.63-.62,14.72-5.63s-3.29-9.38-10.92-11l-0.16,0c-7.63-1.66-13.63.61-14.72,5.62S77.49,258.31,85.13,260Z"/><path class="cls-4" d="M195.34,498.18l-0.07.15a6.2,6.2,0,0,0,2.76,8.54,6,6,0,0,0,8.29-3l0.07-.15a6.18,6.18,0,0,0-2.79-8.47A6,6,0,0,0,195.34,498.18Z"/><path class="cls-4" d="M336.07,500l-3.11.62L337.56,524l3.11-.62c8.54-1.69,13.36-6.29,11.76-14.35l0-.16C350.81,500.78,344.61,498.35,336.07,500Z"/><path class="cls-4" d="M179,114.91c3.78-2.55,4.93-5.79,3-8.69l-0.09-.13c-2.05-3-5.41-2.92-9.06-.46L166,110.27l6.24,9.24Z"/><path class="cls-4" d="M458.22,135.95l0.11-.12c2.44-2.73,1.52-6-1.76-8.9l-6.19-5.54-7.44,8.31,6.12,5.48C452.46,138.23,455.88,138.56,458.22,135.95Z"/><path class="cls-4" d="M89.81,198.71c2.92,1.78,5.9,1.12,7-.69s0.4-4.72-2.59-6.54l-0.14-.08c-2.92-1.78-5.81-1.26-7,.69s-0.4,4.72,2.59,6.54Z"/><path class="cls-4" d="M296.45,28.5C147.39,31,28.61,153.93,31.15,303s125.43,267.84,274.49,265.3S573.47,442.86,570.94,293.8,445.51,26,296.45,28.5ZM433.23,87.73L426,102.31,400.33,89.57l-3.22,6.49,23.84,11.83-6.59,13.27-23.84-11.83L382.24,126l-17.06-8.47,25.33-51ZM471,295.5a170,170,0,1,1-172.83-167A170,170,0,0,1,471,295.5ZM314.8,51.22L313,72.47l17.94-19.88L353,54.46l-21.88,23,17.47,33.83L326,109.35,316.38,90.4,311,95.91,310,108l-19-1.61,4.81-56.77ZM259.48,91.69c-13-.13-24.76-1.6-27-13.43l0-.16c-2.05-10.63,4.67-20.46,20.09-23.44,10.79-2.08,19.27-1.07,26.73,2.79l-6.67,14.38a29.88,29.88,0,0,0-17.85-2.27c-2.8.54-3.89,1.75-3.63,3.1l0,0.16c0.29,1.52,2,2.18,8.13,2.16,14.81-.13,25.2,2.18,27.38,13.45l0,0.16c2.27,11.75-6,20.81-21,23.71-11.35,2.19-22.19,1-30.51-3.89l7.69-13.84a32.64,32.64,0,0,0,20.84,2.77c3.36-.65,4.62-1.8,4.33-3.32l0-.16C267.63,92.27,265.7,91.73,259.48,91.69Zm-43.16-26,21.54,52.74-17.63,7.2L198.68,72.88Zm-52,26.46c8.36-5.65,15.1-7.16,20.64-6.09,4.75,0.92,8.6,3.42,11.88,8.28l0.09,0.13c4.65,6.88,4.31,14.08.44,20.72l21.84,8.63L201.2,136l-18-7.47-3.37,2.28,9.11,13.49-15.78,10.66-31.89-47.21Zm-41.85,73.39c5-8.13,14.28-9.49,21.72-5l0.14,0.08c7.43,4.54,10.35,13.66,5.52,21.58s-14.28,9.49-21.72,5l-0.14-.08C120.55,182.57,117.5,173.65,122.47,165.53ZM105,144.65l13.39,38.21,11.15,30.93-6.4,10.49L110,186.83,98.58,155.14Zm-26.72,42c5-8.13,14.28-9.49,21.72-5l0.14,0.09c7.43,4.54,10.35,13.66,5.52,21.58s-14.28,9.49-21.72,5l-0.14-.08C76.35,203.74,73.3,194.83,78.26,186.7ZM58.1,245.26c3.67-16.86,19.33-23.78,34.68-20.43l0.16,0c15.35,3.34,26.84,16.34,23.17,33.2s-19.34,23.78-34.68,20.43l-0.16,0C65.92,275.12,54.43,262.12,58.1,245.26Zm24,127.49L86.79,381l-12.4,7.49-9.53-14.83L60.53,359.9l54.73-17.22,5.62,17.86Zm30.29-59.94c1.29,17.2-11.75,28.3-27.41,29.48H84.77c-15.66,1.18-30.39-8-31.68-25.21s11.75-28.3,27.41-29.48h0.16C96.33,286.43,111.06,295.6,112.35,312.81ZM215.18,487.49c7.8,3.87,12.93,13.5,8,23.34l-0.07.15c-6.11,12.32-19.25,14.07-30.55,8.47-7.73-3.83-11.46-8.59-13.37-14.26s-1.61-13.06,2.88-22.1l0.07-.15c7.92-16,22.24-23.94,38.93-15.66a32.63,32.63,0,0,1,15.26,14.48l-12.93,7.57c-1.94-3.6-4.32-6.68-8.11-8.57-5.54-2.75-10.23-.26-13.92,5.54A18.91,18.91,0,0,1,215.18,487.49ZM287.27,516l0,0.16c-2.94,15.43-15.63,27.27-32.58,24s-24.28-18.71-21.34-34.14l0-.16c2.94-15.43,15.63-27.27,32.58-24S290.21,500.56,287.27,516Zm83.89-11.28,0,0.16c3.27,16.53-5.75,30.5-28.35,35L322.09,544l-11-55.89,21.4-4.23C354.64,479.45,367.9,488.19,371.17,504.72ZM425,510.07l-6.2-5.4-17.7,9.18,0.92,8.14L384,531.36l-5.11-62,16.76-8.69,47.73,39.88ZM457.68,487l-13.5-15L403.6,459l15.86-14.26,19.78,7.39L434,431.58l15.68-14.1L458.18,459l13.66,15.19ZM507,433c-6.36,9.65-14.81,16.55-24.1,19.11L478.34,437a32.65,32.65,0,0,0,16.55-13c1.88-2.85,1.94-4.57.65-5.42l-0.14-.09c-1.36-.9-3.09.11-7.47,4.53-9.21,9.23-18.45,16.6-28.5,10l-0.14-.09c-9-6-11.38-17.64-2.73-30.75,6-9.17,12.7-14.53,20.68-17.17l5.63,14.82A29.88,29.88,0,0,0,468.78,411c-1.57,2.38-1.47,4-.31,4.76l0.14,0.09c1.29,0.85,3,.1,7.22-4.3C486.08,400.82,495,395,504.57,401.31l0.14,0.09C514.7,408,515.39,420.24,507,433Zm-57.89-256.8,0.6-.38-15.63-14,2.86-19.3-3-2.72L423,152l-14.19-12.71,38-42.45,20.74,18.57c7.52,6.73,10.63,12.9,10.94,18.54,0.27,4.83-1.22,9.18-5.13,13.54l-0.11.12c-5.54,6.19-12.61,7.61-20,5.48l-2.92,22.35,46.79-29.77,26.08,41L510.05,195l-16-25.2-4.88,3.1,14.94,23.49-11.61,7.38L477.53,180.3l-5.22,3.32,16.25,25.55-13.19,8.39Zm80.75,77.18L521,224.86l-5.52,1.71,8.24,26.59-13.14,4.07-8.24-26.59-5.91,1.83,9,28.92L490.45,266,476,219.21l54.42-16.86,14.38,46.42Z"/><path class="cls-4" d="M134,177.54c2.92,1.78,5.9,1.12,7-.69s0.4-4.71-2.59-6.54l-0.14-.09c-2.92-1.78-5.81-1.26-7,.69s-0.4,4.71,2.59,6.54Z"/><path class="cls-2" d="M304,153.24a150,150,0,1,0,150,150A150,150,0,0,0,304,153.24Zm-9.7,185.81L208.62,367.3,329.55,207.66l24.9,198.71Z"/><path class="cls-5" d="M303,151.24a150,150,0,1,0,150,150A150,150,0,0,0,303,151.24Zm-9.7,185.81L207.62,365.3,328.55,205.66l24.9,198.71Z"/></svg>