<svg id="Layer_1" data-name="Layer 1" xmlns="http://www.w3.org/2000/svg" viewBox="0 0 300 300"><defs><style>.cls-1{fill:#fafcf8;}.cls-2{fill:#1595a3;}.cls-3{fill:#225378;}.cls-4{fill:#ea8024;}.cls-5{fill:#b3e1e8;}</style></defs><title>refocus-iconography</title><circle class="cls-1" cx="149.38" cy="149.38" r="149.34" transform="translate(-33.57 255) rotate(-75)"/><path class="cls-2" d="M150.54,7.47a143.27,143.27,0,1,1-45.83,7.59,143.52,143.52,0,0,1,45.83-7.59h0m0-6.22a149.47,149.47,0,1,0,38.75,5.13,149.41,149.41,0,0,0-38.75-5.13h0Z"/><path class="cls-3" d="M149.29,6.22a143.27,143.27,0,1,1-45.83,7.59,143.52,143.52,0,0,1,45.83-7.59h0m0-6.22A149.47,149.47,0,1,0,188,5.13,149.41,149.41,0,0,0,149.28,0h0Z"/><polygon class="cls-2" points="275.03 95.31 252.59 72.86 113.54 211.91 42.96 141.33 20.51 163.78 113.54 256.8 135.98 234.36 135.98 234.36 275.03 95.31"/><polygon class="cls-4" points="274.03 93.31 251.59 70.86 112.54 209.91 41.96 139.33 19.51 161.78 112.54 254.8 134.98 232.36 134.98 232.36 274.03 93.31"/><path class="cls-5" d="M45.75,153.92L25.28,100.1l28.43,4.74L62.57,132l17.29-22.77,28.1,4.69L71.19,157.83l-4.54,27.23-25.39-4.23Z"/><path class="cls-5" d="M110.56,114.33l64.78,10.8L171.86,146,132,139.32l-1.28,7.7,37.11,6.19-3.06,18.34-37.11-6.19-1.38,8.25,40.36,6.73-3.47,20.83L97.9,190.28Z"/><path class="cls-5" d="M165.66,189.87L181.92,176A44.13,44.13,0,0,0,207,189.29c4.56,0.76,6.71-.11,7.05-2.17l0-.22c0.36-2.17-1.83-3.76-9.69-6.75-16.46-6.31-30.61-13.69-27.94-29.75l0-.22c2.41-14.43,15.55-23.72,36.5-20.23,14.65,2.44,24.92,7.72,32.55,16.13l-15.23,15.08a40.38,40.38,0,0,0-21.54-11.29c-3.8-.63-5.75.38-6.06,2.22l0,0.22c-0.34,2.06,1.5,3.71,9.28,6.57,18.82,6.82,30.9,14.63,28.35,29.93l0,0.22c-2.66,15.95-17.42,23.53-37.82,20.12C187.07,206.6,173.9,199.94,165.66,189.87Z"/><path class="cls-5" d="M251.5,154.56l2.71-16.28,27.56,4.6-2.71,16.28-13.6,34.76-12.37-2.06ZM246,194.9l25.17,4.2-3.26,19.53-25.17-4.2Z"/><path class="cls-3" d="M44.75,151.92L24.28,98.1l28.43,4.74L61.57,130l17.29-22.77,28.1,4.69L70.19,155.83l-4.54,27.23-25.39-4.23Z"/><path class="cls-3" d="M109.56,112.33l64.78,10.8L170.86,144,131,137.32l-1.28,7.7,37.11,6.19-3.06,18.34-37.11-6.19-1.38,8.25,40.36,6.73-3.47,20.83L96.9,188.28Z"/><path class="cls-3" d="M164.66,187.87L180.92,174A44.13,44.13,0,0,0,206,187.29c4.56,0.76,6.71-.11,7.05-2.17l0-.22c0.36-2.17-1.83-3.76-9.69-6.75-16.46-6.31-30.61-13.69-27.94-29.75l0-.22c2.41-14.43,15.55-23.72,36.5-20.23,14.65,2.44,24.92,7.72,32.55,16.13l-15.23,15.08a40.38,40.38,0,0,0-21.54-11.29c-3.8-.63-5.75.38-6.06,2.22l0,0.22c-0.34,2.06,1.5,3.71,9.28,6.57,18.82,6.82,30.9,14.63,28.35,29.93l0,0.22c-2.66,15.95-17.42,23.53-37.82,20.12C186.07,204.6,172.9,197.94,164.66,187.87Z"/><path class="cls-3" d="M250.5,152.56l2.71-16.28,27.56,4.6-2.71,16.28-13.6,34.76-12.37-2.06ZM245,192.9l25.17,4.2-3.26,19.53-25.17-4.2Z"/></svg>