<svg id="Layer_1" data-name="Layer 1" xmlns="http://www.w3.org/2000/svg" viewBox="0 0 600 600"><defs><style>.cls-1{fill:#fafcf8;}.cls-2{fill:#1595a3;}.cls-3{fill:#225378;}.cls-4{fill:#b3e1e8;}.cls-5{fill:#ea8024;}</style></defs><title>refocus-iconography</title><circle class="cls-1" cx="298.76" cy="301.24" r="298.68" transform="matrix(0.26, -0.97, 0.97, 0.26, -69.55, 511.85)"/><path class="cls-2" d="M301.07,14.94a286.53,286.53,0,1,1-91.66,15.18,287,287,0,0,1,91.66-15.18h0m0-12.45C169.19,2.5,48.5,90.5,12.74,223.94-30,383.28,64.6,547.05,223.94,589.75A299,299,0,0,0,301.43,600C433.3,600,554,512,589.75,378.55c42.69-159.34-51.86-323.11-211.2-365.81A299,299,0,0,0,301.06,2.49h0Z"/><path class="cls-3" d="M298.58,12.45a286.53,286.53,0,1,1-91.66,15.18,287,287,0,0,1,91.66-15.18h0m0-12.45C166.7,0,46,88,10.25,221.45c-42.69,159.34,51.86,323.11,211.2,365.81a299,299,0,0,0,77.49,10.25c131.87,0,252.56-88,288.32-221.45C630,216.72,535.4,52.95,376.06,10.25A299,299,0,0,0,298.57,0h0Z"/><path class="cls-4" d="M526.19,272.06C518.1,246.13,490,206.54,490,206.54l-5.86,12L465.41,193l-5.2,19.72-21.65-21L433.43,219l-26.76-25.71-5.08,33.14-29.41-21.81-2,42.06s-8.51-19-22.18-26.38a188.22,188.22,0,0,0-26.73-11.69l24.65-26.1-34.81-9.26,26.32-25-42.07-3.52,21.85-24.93-35.53-6.26,16-17.43-33.69.59,7.94-13.19-23.81,4.68,5.62-5.42s-85.49,9.38-114.87,60.32-27.72,140.07-15.67,189.76c9.5,39.16,42.18,104.4,71.05,137.86-7.22,14.45-12.29,24.69-13.94,28.21-9.31,19.87,3.63,26.08,12.45,30.4s29.51,13.67,40.21-9.77c1.62-3.55,5.31-11.88,10.4-23.46,29.84,1.8,65.1-8.36,82.95-14.11,23.79-7.66,118.05-36.49,166.7-101S534.29,298,526.19,272.06ZM152.08,335.85l54.27-33.56-65.23-27.47,53.06-35.64-39.52-19.34L199,179.22,164,165.8l46.81-35-23.3-5.47s19.84-16.27,33.58-12.51,29,10.49,48.67,43.11,33.13,73.36,37.74,89.72l-11,21.68c-26.59-5.2-51,2.38-60,20.8-8.89,18.16-.3,41.63,19.51,59.35-10.11,20-20.65,41-30.56,60.67l-53.07-21.51,39.44-24.49Zm55,90.76,12.63-6.91-3.36,6.69A68.22,68.22,0,0,0,207.12,426.62Zm58,19.68,7.22-16.52,3,25.78A99.62,99.62,0,0,0,265.12,446.29ZM487.18,333.58l-30.3-21.51,0.82,60.52-40.76-24.4,2.61,61.4-49.7-24.32-2.59,46.24-47.89-22,1.83,40.23-46.48-25.52c7.78-17.81,15.93-36.48,23.8-54.54,28.19,6.88,54.68-.5,64.16-19.88,9.94-20.31-2-47.27-27-65.39l4.86-11.16c14-2.72,33-9,52.07-14.94,30.63-9.5,76-15.68,91.06-7.1s15.43,12.45,15.43,12.45l7.12,30.95-21-17.71Z"/><path class="cls-2" d="M527.19,274.06C519.1,248.13,491,208.54,491,208.54l-5.86,12L466.41,195l-5.2,19.72-21.65-21L434.43,221l-26.76-25.71-5.08,33.14-29.41-21.81-2,42.06s-8.51-19-22.18-26.38a188.22,188.22,0,0,0-26.73-11.69l24.65-26.1-34.81-9.26,26.32-25-42.07-3.52,21.85-24.93-35.53-6.26,16-17.43-33.69.59,7.94-13.19-23.81,4.68,5.62-5.42s-85.49,9.38-114.87,60.32-27.72,140.07-15.67,189.76c9.5,39.16,42.18,104.4,71.05,137.86-7.22,14.45-12.29,24.69-13.94,28.21-9.31,19.87,3.63,26.08,12.45,30.4s29.51,13.67,40.21-9.77c1.62-3.55,5.31-11.88,10.4-23.46,29.84,1.8,65.1-8.36,82.95-14.11,23.79-7.66,118.05-36.49,166.7-101S535.29,300,527.19,274.06ZM153.08,337.85l54.27-33.56-65.23-27.47,53.06-35.64-39.52-19.34L200,181.22,165,167.8l46.81-35-23.3-5.47s19.84-16.27,33.58-12.51,29,10.49,48.67,43.11,33.13,73.36,37.74,89.72l-11,21.68c-26.59-5.2-51,2.38-60,20.8-8.89,18.16-.3,41.63,19.51,59.35-10.11,20-20.65,41-30.56,60.67l-53.07-21.51,39.44-24.49Zm55,90.76,12.63-6.91-3.36,6.69A68.22,68.22,0,0,0,208.12,428.62Zm58,19.68,7.22-16.52,3,25.78A99.62,99.62,0,0,0,266.12,448.29ZM488.18,335.58l-30.3-21.51,0.82,60.52-40.76-24.4,2.61,61.4-49.7-24.32-2.59,46.24-47.89-22,1.83,40.23-46.48-25.52c7.78-17.81,15.93-36.48,23.8-54.54,28.19,6.88,54.68-.5,64.16-19.88,9.94-20.31-2-47.27-27-65.39l4.86-11.16c14-2.72,33-9,52.07-14.94,30.63-9.5,76-15.68,91.06-7.1s15.43,12.45,15.43,12.45l7.12,30.95-21-17.71Z"/><path class="cls-4" d="M526.19,272.06C518.1,246.13,490,206.54,490,206.54l-5.86,12L465.41,193l-5.2,19.72-21.65-21L433.43,219l-26.76-25.71-5.08,33.14-29.41-21.81-2,42.06s-8.51-19-22.18-26.38a188.22,188.22,0,0,0-26.73-11.69l24.65-26.1-34.81-9.26,26.32-25-42.07-3.52,21.85-24.93-35.53-6.26,16-17.43-33.69.59,7.94-13.19-23.81,4.68,5.62-5.42s-85.49,9.38-114.87,60.32-27.72,140.07-15.67,189.76c9.5,39.16,42.18,104.4,71.05,137.86-7.22,14.45-12.29,24.69-13.94,28.21-9.31,19.87,3.63,26.08,12.45,30.4s29.51,13.67,40.21-9.77c1.62-3.55,5.31-11.88,10.4-23.46,29.84,1.8,65.1-8.36,82.95-14.11,23.79-7.66,118.05-36.49,166.7-101S534.29,298,526.19,272.06ZM152.08,335.85l54.27-33.56-65.23-27.47,53.06-35.64-39.52-19.34L199,179.22,164,165.8l46.81-35-23.3-5.47s19.84-16.27,33.58-12.51,29,10.49,48.67,43.11,33.13,73.36,37.74,89.72l-11,21.68c-26.59-5.2-51,2.38-60,20.8-8.89,18.16-.3,41.63,19.51,59.35-10.11,20-20.65,41-30.56,60.67l-53.07-21.51,39.44-24.49Zm55,90.76,12.63-6.91-3.36,6.69A68.22,68.22,0,0,0,207.12,426.62Zm58,19.68,7.22-16.52,3,25.78A99.62,99.62,0,0,0,265.12,446.29ZM487.18,333.58l-30.3-21.51,0.82,60.52-40.76-24.4,2.61,61.4-49.7-24.32-2.59,46.24-47.89-22,1.83,40.23-46.48-25.52c7.78-17.81,15.93-36.48,23.8-54.54,28.19,6.88,54.68-.5,64.16-19.88,9.94-20.31-2-47.27-27-65.39l4.86-11.16c14-2.72,33-9,52.07-14.94,30.63-9.5,76-15.68,91.06-7.1s15.43,12.45,15.43,12.45l7.12,30.95-21-17.71Z"/><ellipse class="cls-2" cx="296.88" cy="316" rx="28.18" ry="19.41"/><ellipse class="cls-1" cx="297.88" cy="319" rx="28.18" ry="19.41"/><ellipse class="cls-2" cx="297.88" cy="309" rx="28.18" ry="19.41"/><ellipse class="cls-5" cx="296.88" cy="307" rx="28.18" ry="19.41"/><polygon class="cls-2" points="140.89 98.44 117.19 119.53 277.06 299.11 97.48 458.98 118.57 482.68 298.16 322.81 458.02 502.39 481.72 481.3 321.85 301.71 501.43 141.85 480.34 118.15 300.76 278.02 140.89 98.44"/><polygon class="cls-5" points="139.89 96.44 116.19 117.53 276.06 297.11 96.48 456.98 117.57 480.68 297.16 320.81 457.02 500.39 480.72 479.3 320.85 299.71 500.43 139.85 479.34 116.15 299.76 276.02 139.89 96.44"/></svg>