<svg id="Layer_1" data-name="Layer 1" xmlns="http://www.w3.org/2000/svg" viewBox="0 0 300 300"><defs><style>.cls-1{fill:#fafcf8;}.cls-2{fill:#1595a3;}.cls-3{fill:#ea8024;}.cls-4{fill:#225378;}.cls-5{fill:#b3e1e8;}</style></defs><title>refocus-iconography</title><circle class="cls-1" cx="149.38" cy="149.38" r="149.34" transform="translate(-33.57 255) rotate(-75)"/><polygon class="cls-2" points="36.28 62.23 26.12 77.04 138.37 154.03 61.37 266.29 76.18 276.44 153.18 164.19 265.43 241.19 275.59 226.38 163.34 149.38 240.34 37.13 225.53 26.98 148.53 139.22 36.28 62.23"/><polygon class="cls-3" points="35.28 60.23 25.12 75.04 137.37 152.03 60.37 264.29 75.18 274.44 152.18 162.19 264.43 239.19 274.59 224.38 162.34 147.38 239.34 35.13 224.53 24.98 147.53 137.22 35.28 60.23"/><path class="cls-2" d="M150.54,7.47a143.27,143.27,0,1,1-45.83,7.59,143.52,143.52,0,0,1,45.83-7.59h0m0-6.22a149.47,149.47,0,1,0,38.75,5.13,149.41,149.41,0,0,0-38.75-5.13h0Z"/><path class="cls-4" d="M149.29,6.22a143.27,143.27,0,1,1-45.83,7.59,143.52,143.52,0,0,1,45.83-7.59h0m0-6.22A149.47,149.47,0,1,0,188,5.13,149.41,149.41,0,0,0,149.28,0h0Z"/><path class="cls-5" d="M62.89,131.14l23.92-2.84L118,158.82l-4-33.75,25.34-3,9.07,76.46-22.72,2.7L93.12,169.31l4.19,35.28L72,207.6Z"/><path class="cls-5" d="M150.91,159.69l0-.22c-2.63-22.17,13.51-42,37.11-44.83s43.69,12.54,46.32,34.72l0,0.22c2.63,22.17-13.51,42-37.11,44.83S153.54,181.86,150.91,159.69Zm57.68-6.84,0-.22c-1.08-9.07-8.27-16.52-18.11-15.35s-14.88,10-13.82,18.92l0,0.22c1.08,9.07,8.27,16.52,18.11,15.35S209.64,161.8,208.58,152.84Z"/><path class="cls-4" d="M61.89,129.14l23.92-2.84L117,156.82l-4-33.75,25.34-3,9.07,76.46-22.72,2.7L92.12,167.31l4.19,35.28L71,205.6Z"/><path class="cls-4" d="M149.91,157.69l0-.22c-2.63-22.17,13.51-42,37.11-44.83s43.69,12.54,46.32,34.72l0,0.22c2.63,22.17-13.51,42-37.11,44.83S152.54,179.86,149.91,157.69Zm57.68-6.84,0-.22c-1.08-9.07-8.27-16.52-18.11-15.35s-14.88,10-13.82,18.92l0,0.22c1.08,9.07,8.27,16.52,18.11,15.35S208.64,159.8,207.58,150.84Z"/></svg>