<svg id="Layer_1" data-name="Layer 1" xmlns="http://www.w3.org/2000/svg" viewBox="0 0 600 600"><defs><style>.cls-1{fill:#fafcf8}.cls-2{fill:#1595a3}.cls-3{fill:#ea8024}.cls-4{fill:#225378}.cls-5{fill:#b3e1e8}</style></defs><title>refocus-iconography</title><circle class="cls-1" cx="298.76" cy="298.76" r="298.68" transform="rotate(-75 298.76 298.754)"/><circle class="cls-2" cx="438.8" cy="297.94" r="39.75" transform="rotate(-75 436.98 296.678)"/><circle class="cls-3" cx="437.55" cy="296.69" r="39.75" transform="rotate(-75 437.554 296.696)"/><circle class="cls-2" cx="150.66" cy="348.98" r="39.75" transform="rotate(-75 150.66 348.977)"/><circle class="cls-3" cx="149.41" cy="347.73" r="39.75" transform="rotate(-75 149.41 347.73)"/><path class="cls-2" d="M301.07 14.94a286.53 286.53 0 1 1-91.66 15.18 287 287 0 0 1 91.66-15.18m0-12.45C169.19 2.5 48.5 90.5 12.74 223.94-30 383.28 64.6 547.05 223.94 589.75A299 299 0 0 0 301.43 600C433.3 600 554 512 589.75 378.55c42.69-159.34-51.86-323.11-211.2-365.81a299 299 0 0 0-77.49-10.25z"/><path class="cls-4" d="M298.58 12.45a286.53 286.53 0 1 1-91.66 15.18 287 287 0 0 1 91.66-15.18m0-12.45C166.7 0 46 88 10.25 221.45c-42.69 159.34 51.86 323.11 211.2 365.81a299 299 0 0 0 77.49 10.25c131.87 0 252.56-88 288.32-221.45C630 216.72 535.4 52.95 376.06 10.25A299 299 0 0 0 298.57 0z"/><path class="cls-2" d="M521.27 298h-2.82l-81.59-179.72h.21a5.12 5.12 0 0 0-1.78-10.09l-292.58 51.55a5.12 5.12 0 0 0-4.15 5.93 5.12 5.12 0 0 0 5.93 4.15l.58-.1-81.33 179.19h-2.53a4.84 4.84 0 0 0-4.38 6.87 102.45 102.45 0 0 0 186.6-.06 4.83 4.83 0 0 0-4.41-6.81h-2.89l-82.06-180.77 130.54-23v171.48h-.06c-1.06 78.15-13.57 150.09-38.21 208.14h87.23c-24.64-58.05-37.15-130-38.21-208.14h-.06V143.24l131.45-23.18L346 298h-2.49a4.84 4.84 0 0 0-4.38 6.87 102.45 102.45 0 0 0 186.6-.06 4.83 4.83 0 0 0-4.46-6.81zm-450.5 50.91L150 174.28l79.3 174.63H70.77zM353.06 298l79.22-174.52L511.49 298H353.06z"/><path class="cls-5" d="M520 296.79h-2.82L435.61 117h.21a5.12 5.12 0 0 0-1.82-10.09L141.47 158.5a5.12 5.12 0 0 0-4.15 5.93 5.12 5.12 0 0 0 5.93 4.15l.58-.1-81.34 179.19H60a4.84 4.84 0 0 0-4.38 6.87 102.45 102.45 0 0 0 186.6-.06 4.83 4.83 0 0 0-4.41-6.81h-2.89L152.83 166.9l130.54-23v171.47h-.07c-1.06 78.15-13.57 150.09-38.21 208.14h87.23c-24.64-58.05-37.15-130-38.21-208.14h-.06V142l131.45-23.18-80.78 178h-2.49a4.84 4.84 0 0 0-4.38 6.87 102.45 102.45 0 0 0 186.6-.06 4.83 4.83 0 0 0-4.45-6.84zM69.52 347.67L148.79 173l79.27 174.63H69.52zm282.29-50.88L431 122.27l79.22 174.52h-158.4z"/></svg>