<svg id="Layer_1" data-name="Layer 1" xmlns="http://www.w3.org/2000/svg" viewBox="0 0 600 600"><defs><style>.cls-1{fill:#fafcf8}.cls-2{fill:#1595a3}.cls-3{fill:#225378}.cls-4{fill:#b3e1e8}.cls-5{fill:#ea8024}</style></defs><title>refocus-iconography</title><circle class="cls-1" cx="298.76" cy="298.76" r="298.68" transform="rotate(-75 298.76 298.754)"/><path class="cls-2" d="M348.77 317.99l173.52-51.76-181.02 4.4 3.83-29.74-27.11 12.83-51.76-173.53 4.4 181.03-29.74-3.83 12.83 27.11-173.53 51.76 181.03-4.4-3.83 29.74 27.11-12.83 51.76 173.52-4.4-181.02 29.74 3.83-12.83-27.11z"/><path class="cls-2" d="M301.07 14.94a286.53 286.53 0 1 1-91.66 15.18 287 287 0 0 1 91.66-15.18m0-12.45C169.19 2.5 48.5 90.5 12.74 223.94-30 383.28 64.6 547.05 223.94 589.75A299 299 0 0 0 301.43 600C433.3 600 554 512 589.75 378.55c42.69-159.34-51.86-323.11-211.2-365.81a299 299 0 0 0-77.49-10.25z"/><path class="cls-3" d="M298.58 12.45a286.53 286.53 0 1 1-91.66 15.18 287 287 0 0 1 91.66-15.18m0-12.45C166.7 0 46 88 10.25 221.45c-42.69 159.34 51.86 323.11 211.2 365.81a299 299 0 0 0 77.49 10.25c131.87 0 252.56-88 288.32-221.45C630 216.72 535.4 52.95 376.06 10.25A299 299 0 0 0 298.57 0z"/><path class="cls-4" d="M346.28 315.5l173.52-51.76-181.02 4.4 3.83-29.74-27.11 12.83-51.76-173.52 4.4 181.02-29.74-3.82 12.83 27.1-173.52 51.76 181.02-4.4-3.82 29.74 27.1-12.83 51.76 173.52-4.4-181.02 29.74 3.83-12.83-27.11z"/><path class="cls-2" d="M378.2 109.18l-8.25-65.81-40.05 52.87 28.39-9.36 19.91 22.3zM223.67 492.69l8.25 65.81 40.05-52.87-28.39 9.35-19.91-22.29z"/><path class="cls-5" d="M376.2 107.18l-8.25-65.81-40.05 52.87 28.39-9.36 19.91 22.3zM221.67 490.69l8.25 65.81 40.05-52.87-28.39 9.35-19.91-22.29z"/></svg>