<svg id="Layer_1" data-name="Layer 1" xmlns="http://www.w3.org/2000/svg" viewBox="0 0 300 300"><defs><style>.cls-1{fill:#fafcf8}.cls-2{fill:#1595a3}.cls-3{fill:#225378}.cls-4{fill:#ea8024}.cls-5{fill:#b3e1e8}</style></defs><title>refocus-iconography</title><circle class="cls-1" cx="149.38" cy="149.38" r="149.34" transform="rotate(-75 149.376 149.375)"/><path class="cls-2" d="M150.54 7.47a143.27 143.27 0 1 1-45.83 7.59 143.52 143.52 0 0 1 45.83-7.59m0-6.22a149.47 149.47 0 1 0 38.75 5.13 149.41 149.41 0 0 0-38.75-5.13z"/><path class="cls-3" d="M149.29 6.22a143.27 143.27 0 1 1-45.83 7.59 143.52 143.52 0 0 1 45.83-7.59m0-6.22A149.47 149.47 0 1 0 188 5.13 149.41 149.41 0 0 0 149.28 0z"/><path class="cls-4" d="M215 90h-25v9a10 10 0 0 1-20 0v-9h-40v9a10 10 0 0 1-20 0v-9H85a10 10 0 0 0-10 10v100a10 10 0 0 0 10 10h130a10 10 0 0 0 10-10V100a10 10 0 0 0-10-10zm0 100a10 10 0 0 1-10 10H95a10 10 0 0 1-10-10v-60a10 10 0 0 1 10-10h110a10 10 0 0 1 10 10v60z"/><rect class="cls-4" x="115" y="74" width="10" height="30" rx="5" ry="5"/><rect class="cls-4" x="175" y="74" width="10" height="30" rx="5" ry="5"/><path class="cls-5" d="M210 130a5 5 0 0 0-5-5H95a5 5 0 0 0-5 5v7.5h120V130zM90 142.5h120v15H90zM90 162.5h120v15H90zM90 190a5 5 0 0 0 5 5h110a5 5 0 0 0 5-5v-7.5H90v7.5z"/></svg>