<svg id="Layer_1" data-name="Layer 1" xmlns="http://www.w3.org/2000/svg" viewBox="0 0 600 600"><defs><style>.cls-1{fill:#b3e1e8}.cls-2{fill:#1595a3}.cls-3{fill:#fafcf8}.cls-4{fill:#225378}.cls-5{fill:#ea8024}</style></defs><title>refocus-iconography</title><circle class="cls-1" cx="298.76" cy="298.76" r="298.68" transform="rotate(-75 297.527 297.496)"/><path class="cls-2" d="M78.21 500.1q-5.89-6.54-11.38-13.41 5.49 6.86 11.38 13.41z"/><path class="cls-2" d="M21.73 406.83A297.66 297.66 0 0 0 222.86 587.9c2.45.66 5.05 1.32 7.73 2h17.48V276.15L21.81 406.78z"/><path class="cls-2" d="M117 536.18q-7-5.45-13.7-11.3 6.7 5.84 13.7 11.3zM162.4 565.17q-12.1-6.27-23.45-13.54 11.34 7.26 23.45 13.54zM84.2 506.55q9.13 9.56 19.14 18.33-10-8.75-19.14-18.33zM138.94 551.63q-7.56-4.84-14.78-10.1 7.22 5.26 14.78 10.1zM14.32 385.1l8.77 15.19 272.14-157.12L68.69 112.38l-.24-.14A298.42 298.42 0 0 0 14.32 385.1zM216.5 13.21q-3 .88-6 1.82 3-.95 6-1.82zM209.46 15.35q-3.11 1-6.19 2.05 3.08-1.05 6.19-2.05zM195.1 20.34q-2.93 1.1-5.84 2.27 2.91-1.16 5.84-2.27zM253.67 4.88q-3.26.51-6.51 1.1 3.24-.58 6.51-1.1zM201.95 17.86q-3.12 1.09-6.21 2.24 3.09-1.16 6.21-2.24zM238.46 7.69q-3.07.65-6.11 1.36 3.05-.71 6.11-1.36zM245.77 6.24q-3.26.6-6.51 1.27 3.25-.67 6.51-1.27zM223.59 11.23q-3.2.85-6.37 1.76 3.17-.92 6.37-1.76zM231.31 9.29q-3.19.76-6.36 1.59 3.17-.88 6.36-1.59zM188.19 23q-3 1.22-6 2.5 2.99-1.24 6-2.5zM311.57 1.51q-2.31-.09-4.61-.15 2.3.06 4.61.15zM305.23 1.33h-4.49q2.26-.05 4.49 0z"/><path class="cls-2" d="M181.87 26.35A297.54 297.54 0 0 0 84 94.5l-9 15.74 271.86 157V5.65a296.51 296.51 0 0 0-164.99 20.7z"/><path class="cls-2" d="M299.53 1.27q-3.38 0-6.75.09 3.37-.08 6.75-.09zM344.91 4.72c1.91.29 3.82.6 5.73.93-1.9-.33-3.82-.65-5.73-.93zM318.36 1.85q-2.83-.18-5.66-.3 2.82.12 5.66.3zM343.25 4.47q-2.17-.32-4.33-.61 2.16.29 4.33.61zM324.19 2.28Q322 2.1 319.8 2q2.2.1 4.39.28zM337.33 3.65q-2.85-.36-5.7-.67 2.85.31 5.7.67zM330.93 2.91q-2.52-.27-5-.49 2.48.23 5 .49zM168.68 31.75q2.82-1.38 5.68-2.71-2.86 1.33-5.68 2.71zM111.81 68.05q2.54-2.05 5.12-4.05-2.58 2-5.12 4.05zM123.57 59q2.62-1.92 5.29-3.78-2.67 1.86-5.29 3.78zM142.26 46.39Q145 44.67 147.8 43q-2.8 1.67-5.54 3.39zM129.86 54.53q2.65-1.83 5.33-3.61-2.69 1.77-5.33 3.61zM135.52 50.7q2.78-1.83 5.6-3.59-2.82 1.76-5.6 3.59zM117.16 63.81q2.65-2 5.34-4-2.69 1.96-5.34 4zM105.85 73q2.48-2.12 5-4.18-2.52 2.07-5 4.18zM94.8 82.93q2.43-2.29 4.9-4.53-2.48 2.24-4.9 4.53zM260.91 3.84q-3.12.41-6.23.89 3.11-.48 6.23-.89zM99.8 78.31q2.51-2.26 5.07-4.45-2.56 2.19-5.07 4.45zM83.54 94.12q2.35-2.46 4.76-4.87-2.4 2.41-4.76 4.87zM283.74 1.71q-3.18.17-6.34.41 3.17-.24 6.34-.41zM291.38 1.4q-3.36.1-6.72.26 3.34-.17 6.72-.26zM276.44 2.19q-3.33.26-6.64.61 3.31-.34 6.64-.61zM268.4 2.94q-3.32.35-6.63.78 3.31-.43 6.63-.78zM93.89 83.79q-2.37 2.26-4.7 4.57 2.33-2.36 4.7-4.57zM154.8 39q2.89-1.61 5.82-3.15-2.93 1.55-5.82 3.15zM161.83 35.21q2.87-1.5 5.78-2.94-2.9 1.44-5.78 2.94zM174.9 28.79q3-1.38 6-2.7-3 1.32-6 2.7zM148.84 42.41q2.74-1.61 5.51-3.16-2.77 1.55-5.51 3.16zM503.41 82.08a298.54 298.54 0 0 0-126.27-70c-2.55-.68-5.27-1.37-8.32-2.09h-17v314.53l226.4-130.71.26-.15a300.7 300.7 0 0 0-75.07-111.58zM586.06 216.16l-9.15-15.86L306 356.74l.59 1 224.64 129.75.37.21a298.48 298.48 0 0 0 54.46-271.54zM432.44 567.7q2.83-1.4 5.63-2.86-2.8 1.46-5.63 2.86zM425.3 571.13q2.87-1.33 5.71-2.72-2.85 1.38-5.71 2.72zM439.16 564.26q2.6-1.37 5.18-2.79-2.58 1.42-5.18 2.79zM445.26 561q2.79-1.55 5.54-3.17-2.8 1.58-5.54 3.17zM452.14 557q2.73-1.61 5.42-3.28-2.7 1.68-5.42 3.28zM418.87 574q2.68-1.16 5.33-2.38-2.65 1.22-5.33 2.38zM397.83 582.22q2.78-1 5.55-2-2.77 1.03-5.55 2zM390.78 584.57q3-1 6.08-2-3.03 1.03-6.08 2zM412 576.91q2.93-1.19 5.84-2.44-2.94 1.25-5.84 2.44zM404.58 579.79q3-1.11 5.88-2.28-2.92 1.17-5.88 2.28zM477.18 540.44q2.51-1.85 5-3.75-2.48 1.91-5 3.75zM488.88 531.38q2.5-2 5-4.14-2.5 2.1-5 4.14zM458.62 553.06q2.55-1.6 5.07-3.25-2.52 1.65-5.07 3.25zM494.77 526.46q2.47-2.12 4.91-4.3-2.44 2.18-4.91 4.3z"/><path class="cls-2" d="M525 489.62l-271.65-157-.35 261.74a298.32 298.32 0 0 0 262.53-88.46z"/><path class="cls-2" d="M499.9 522q2.49-2.24 4.93-4.55-2.44 2.26-4.93 4.55zM482.65 536.33q2.61-2 5.16-4.09-2.56 2.07-5.16 4.09zM471 544.89q2.62-1.83 5.2-3.71-2.6 1.89-5.2 3.71zM464.41 549.35q2.7-1.78 5.36-3.62-2.66 1.83-5.36 3.62zM383.21 586.89q3-.89 6.07-1.84-3.02.95-6.07 1.84zM505.76 516.53q2.37-2.24 4.69-4.54-2.32 2.3-4.69 4.54zM269.49 597.15q-2.16-.22-4.31-.48 2.16.26 4.31.48zM263.43 596.46l-3.92-.52zM252.42 594.89c1.82.3 3.63.57 5.45.83-1.81-.26-3.63-.54-5.45-.83zM276.09 597.77q-2.72-.22-5.45-.49 2.73.27 5.45.49zM294.51 598.7q2.55 0 5.09.05-2.54-.01-5.09-.05zM294.21 598.69q-2.7-.05-5.4-.16 2.7.1 5.4.16zM300.94 598.74c2.29 0 4.57 0 6.85-.09-2.28.06-4.57.09-6.85.09zM516.08 506.27q-2.35 2.46-4.76 4.86 2.4-2.4 4.76-4.86zM287.24 598.46l-3.95-.2zM281.56 598.16q-2.12-.13-4.25-.3 2.13.14 4.25.3zM346.69 595.07zM361.27 592.38q3.14-.66 6.27-1.39-3.12.73-6.27 1.39zM353.8 593.86q3.11-.57 6.19-1.21-3.09.63-6.19 1.21zM376.11 588.86q2.93-.77 5.84-1.61-2.95.84-5.84 1.61zM369 590.65q3.17-.76 6.32-1.57-3.16.82-6.32 1.57zM324 597.79c2.27-.18 4.53-.38 6.78-.62-2.28.23-4.54.43-6.78.62zM307.91 598.65c2.3-.06 4.59-.16 6.89-.27-2.3.12-4.59.21-6.89.27zM316.07 598.32q3.31-.18 6.6-.43-3.29.25-6.6.43zM338.86 596.21q3.23-.43 6.45-.92-3.21.49-6.45.92zM331 597.14z"/><path class="cls-3" d="M77 498.85q-5.89-6.54-11.38-13.41 5.46 6.87 11.38 13.41z"/><path class="cls-3" d="M20.49 405.58a297.66 297.66 0 0 0 201.12 181.08c2.45.66 5.05 1.32 7.73 2h17.48V274.91L20.56 405.54z"/><path class="cls-3" d="M115.79 534.93q-7-5.45-13.7-11.3 6.67 5.85 13.7 11.3zM161.15 563.92q-12.1-6.27-23.45-13.54 11.3 7.26 23.45 13.54zM83 505.31q9.13 9.56 19.14 18.33Q92.1 514.88 83 505.31zM137.7 550.38q-7.56-4.84-14.78-10.1 7.21 5.26 14.78 10.1zM13.08 383.86L21.85 399 294 241.93 67.44 111.13l-.24-.13a298.42 298.42 0 0 0-54.12 272.86zM215.25 12q-3 .88-6 1.82 3-.98 6-1.82zM208.21 14.11q-3.11 1-6.19 2.05 3.09-1.06 6.19-2.05zM193.86 19.1q-2.93 1.1-5.84 2.27 2.9-1.17 5.84-2.27zM252.42 3.64q-3.26.51-6.51 1.1 3.25-.58 6.51-1.1zM200.7 16.62q-3.12 1.09-6.21 2.24 3.09-1.16 6.21-2.24zM237.22 6.44q-3.07.65-6.11 1.36 3.04-.71 6.11-1.36zM244.53 5q-3.26.6-6.51 1.27 3.24-.68 6.51-1.27zM222.35 10q-3.2.85-6.37 1.76 3.17-.93 6.37-1.76zM230.06 8q-3.19.76-6.36 1.59 3.17-.79 6.36-1.59zM186.95 21.79q-3 1.22-6 2.5 2.99-1.29 6-2.5zM310.33.26Q308 .17 305.71.12q2.29.05 4.62.14zM304 .08h-4.49q2.22-.08 4.49 0z"/><path class="cls-3" d="M180.62 25.11A297.54 297.54 0 0 0 82.8 93.25L73.71 109l271.86 157V4.4a296.51 296.51 0 0 0-164.95 20.71z"/><path class="cls-3" d="M298.28 0q-3.38 0-6.75.09Q294.9 0 298.28 0zM343.67 3.47c1.91.29 3.82.6 5.73.93-1.91-.33-3.82-.63-5.73-.93zM317.11.61q-2.83-.18-5.66-.3 2.83.12 5.66.3zM342 3.23q-2.17-.32-4.33-.61 2.17.29 4.33.61zM322.94 1q-2.19-.18-4.39-.33 2.2.18 4.39.33zM336.09 2.41q-2.85-.36-5.7-.67 2.85.26 5.7.67zM329.68 1.67q-2.52-.27-5-.49 2.48.22 5 .49zM167.43 30.51q2.82-1.38 5.68-2.71-2.86 1.32-5.68 2.71zM110.57 66.81q2.54-2.06 5.12-4.06-2.58 2-5.12 4.06zM122.32 57.76q2.62-1.92 5.29-3.78-2.66 1.86-5.29 3.78zM141 45.14q2.75-1.71 5.54-3.37-2.77 1.66-5.54 3.37zM128.61 53.28q2.65-1.83 5.33-3.61-2.68 1.78-5.33 3.61zM134.27 49.45q2.78-1.83 5.6-3.59-2.82 1.77-5.6 3.59zM115.91 62.57q2.65-2 5.34-4-2.68 1.96-5.34 4zM104.6 71.77q2.48-2.12 5-4.18-2.52 2.06-5 4.18zM93.55 81.69q2.43-2.29 4.9-4.53-2.45 2.23-4.9 4.53zM259.67 2.59q-3.12.41-6.23.89 3.1-.48 6.23-.89zM98.56 77.06q2.51-2.26 5.07-4.45-2.56 2.2-5.07 4.45zM82.3 92.87q2.35-2.46 4.76-4.87-2.41 2.42-4.76 4.87zM282.5.47q-3.18.17-6.34.41 3.16-.24 6.34-.41zM290.13.15q-3.36.1-6.72.26 3.36-.17 6.72-.26zM275.19.95q-3.33.26-6.64.61 3.31-.34 6.64-.61zM267.15 1.7q-3.32.35-6.63.78 3.31-.48 6.63-.78zM92.64 82.54q-2.37 2.26-4.7 4.57 2.33-2.31 4.7-4.57zM153.55 37.76q2.89-1.61 5.82-3.15-2.92 1.54-5.82 3.15zM160.59 34q2.87-1.5 5.78-2.94-2.91 1.41-5.78 2.94zM173.65 27.54q3-1.38 6-2.7-3 1.32-6 2.7zM147.6 41.17q2.74-1.61 5.51-3.16-2.78 1.55-5.51 3.16zM502.17 80.83a298.54 298.54 0 0 0-126.27-70c-2.55-.68-5.27-1.37-8.32-2.09h-17v314.54l226.4-130.71.26-.15a300.7 300.7 0 0 0-75.07-111.59zM584.82 214.91l-9.15-15.86-271 156.44.59 1L530 486.24l.37.21a298.48 298.48 0 0 0 54.45-271.54zM431.19 566.46q2.83-1.4 5.63-2.86-2.82 1.46-5.63 2.86zM424.05 569.88q2.87-1.33 5.71-2.72-2.84 1.39-5.71 2.72zM437.92 563q2.6-1.37 5.18-2.79-2.58 1.44-5.18 2.79zM444 559.72q2.79-1.55 5.54-3.17-2.74 1.61-5.54 3.17zM450.89 555.77q2.73-1.61 5.42-3.28-2.69 1.67-5.42 3.28zM417.63 572.76q2.68-1.16 5.33-2.38-2.66 1.22-5.33 2.38zM396.58 581q2.78-1 5.55-2-2.76 1-5.55 2zM389.54 583.33q3-1 6.08-2-3.03 1.03-6.08 2zM410.71 575.66q2.93-1.19 5.84-2.44-2.9 1.26-5.84 2.44zM403.34 578.54q3-1.11 5.88-2.28-2.93 1.17-5.88 2.28zM475.94 539.2q2.51-1.85 5-3.75-2.49 1.9-5 3.75zM487.63 530.14q2.5-2 5-4.14-2.49 2.1-5 4.14zM457.38 551.82q2.55-1.6 5.07-3.25-2.52 1.65-5.07 3.25zM493.52 525.21q2.47-2.12 4.91-4.3-2.43 2.18-4.91 4.3z"/><path class="cls-3" d="M523.73 488.38l-271.65-157-.28 261.73a298.32 298.32 0 0 0 262.53-88.46z"/><path class="cls-3" d="M498.65 520.71q2.49-2.24 4.93-4.55-2.44 2.3-4.93 4.55zM481.41 535.08q2.61-2 5.16-4.09-2.57 2.08-5.16 4.09zM469.73 543.65q2.62-1.83 5.2-3.71-2.58 1.88-5.2 3.71zM463.17 548.1q2.7-1.78 5.36-3.62-2.67 1.84-5.36 3.62zM382 585.65q3-.89 6.07-1.84-3.07.95-6.07 1.84zM504.52 515.29q2.37-2.24 4.69-4.54-2.33 2.25-4.69 4.54zM268.25 595.91q-2.16-.22-4.31-.48 2.15.26 4.31.48zM262.19 595.22l-3.92-.52zM251.18 593.64zM274.85 596.52q-2.72-.22-5.45-.49 2.73.27 5.45.49zM293.26 597.45q2.55 0 5.09.05-2.54 0-5.09-.05zM293 597.45q-2.7-.05-5.4-.16 2.67.1 5.4.16zM299.69 597.5c2.29 0 4.57 0 6.85-.09-2.28.06-4.54.08-6.85.09zM514.83 505q-2.35 2.46-4.76 4.86 2.4-2.38 4.76-4.86zM286 597.22l-4-.22zM280.32 596.92q-2.12-.13-4.25-.3 2.13.16 4.25.3zM345.45 593.83c2.19-.35 4.38-.71 6.56-1.11-2.18.39-4.37.76-6.56 1.11zM360 591.14q3.14-.66 6.27-1.39-3.1.73-6.27 1.39zM352.55 592.61q3.11-.57 6.19-1.21-3.08.6-6.19 1.21zM374.86 587.62q2.93-.77 5.84-1.61-2.91.83-5.84 1.61zM367.74 589.41q3.17-.76 6.32-1.57-3.14.82-6.32 1.57zM322.73 596.54zM306.67 597.41zM314.83 597.08q3.31-.18 6.6-.43-3.29.25-6.6.43zM337.62 595q3.23-.43 6.45-.92l-6.45.92zM329.75 595.9a259.137 259.137 0 0 1 0 0z"/><path class="cls-2" d="M301.07 14.94a286.53 286.53 0 1 1-91.66 15.18 287 287 0 0 1 91.66-15.18m0-12.45C169.19 2.5 48.5 90.5 12.74 223.94-30 383.28 64.6 547.05 223.94 589.75A299 299 0 0 0 301.43 600C433.3 600 554 512 589.75 378.55c42.69-159.34-51.86-323.11-211.2-365.81a299 299 0 0 0-77.49-10.25z"/><path class="cls-4" d="M298.58 12.45a286.53 286.53 0 1 1-91.66 15.18 287 287 0 0 1 91.66-15.18m0-12.45C166.7 0 46 88 10.25 221.45c-42.69 159.34 51.86 323.11 211.2 365.81a299 299 0 0 0 77.49 10.25c131.87 0 252.56-88 288.32-221.45C630 216.72 535.4 52.95 376.06 10.25A299 299 0 0 0 298.57 0z"/><circle class="cls-2" cx="300.08" cy="300.08" r="34.96" transform="rotate(-75 300.075 300.075)"/><circle class="cls-5" cx="298.83" cy="298.83" r="34.96" transform="rotate(-75 298.834 298.832)"/></svg>