<svg id="Layer_1" data-name="Layer 1" xmlns="http://www.w3.org/2000/svg" viewBox="0 0 800 800"><defs><style>.cls-1{fill:#fff9f2}.cls-2{opacity:.4}.cls-3{fill:#f9debf}</style></defs><title>refocus-iconography</title><path class="cls-1" d="M0 0h800v800H0z"/><g class="cls-2"><circle class="cls-3" cx="685.26" cy="585.81" r="30.53" transform="rotate(-75 685.258 585.81)"/><circle class="cls-3" cx="471.65" cy="625" r="30.53" transform="rotate(-75 471.65 625.004)"/><path class="cls-3" d="M756.28 585.88h-2.17l-62.66-138h.16a3.93 3.93 0 0 0-1.37-7.75l-224.69 39.55a3.93 3.93 0 0 0-3.19 4.56 3.93 3.93 0 0 0 4.56 3.19l.45-.08L404.9 625H403a3.72 3.72 0 0 0-3.36 5.28 78.68 78.68 0 0 0 143.31 0 3.71 3.71 0 0 0-3.39-5.23h-2.22l-63-138.82 100.25-17.68v131.7c-.82 60-10.42 115.27-29.34 159.85h67c-18.92-44.58-28.53-99.83-29.34-159.85V467l100.95-17.8-62 136.67h-1.92a3.72 3.72 0 0 0-3.36 5.28 78.68 78.68 0 0 0 143.31 0 3.71 3.71 0 0 0-3.61-5.27zM410.3 625l60.87-134.11L532.05 625H410.3zm216.79-39.08l60.84-134 60.84 134H627.09z"/></g><g class="cls-2"><path class="cls-3" d="M243.34 247.55l131.37-39.19-137.05 3.33 2.89-22.52-20.52 9.71-39.18-131.37 3.32 137.05-22.51-2.89 9.71 20.52L40 261.37l137.05-3.33-2.89 22.52 20.51-9.71 39.19 131.37-3.33-137.05 22.52 2.89-9.71-20.51zM265.98 89.83L259.74 40l-30.32 40.03 21.49-7.08 15.07 16.88zM148.99 380.17l6.25 49.83 30.32-40.03-21.49 7.08-15.08-16.88z"/></g></svg>