<svg id="Layer_1" data-name="Layer 1" xmlns="http://www.w3.org/2000/svg" viewBox="0 0 600 600"><defs><style>.cls-1{fill:#fafcf8}.cls-2{fill:#1595a3}.cls-3{fill:#225378}.cls-4{fill:#b3e1e8}.cls-5{fill:#ea8024}</style></defs><title>refocus</title><circle class="cls-1" cx="301.24" cy="301.24" r="298.68" transform="rotate(-75 301.248 301.244)"/><path class="cls-2" d="M301.07 14.94a286.53 286.53 0 1 1-91.66 15.18 287 287 0 0 1 91.66-15.18m0-12.45C169.19 2.5 48.5 90.5 12.74 223.94-30 383.28 64.6 547.05 223.94 589.75A299 299 0 0 0 301.43 600C433.3 600 554 512 589.75 378.55c42.69-159.34-51.86-323.11-211.2-365.81a299 299 0 0 0-77.49-10.25z"/><path class="cls-3" d="M219.65 22.77a286.53 286.53 0 1 1-83.95 39.82 287 287 0 0 1 83.95-39.82m-3.44-12C89.43 47.11-2.38 164.93 0 303.06 2.78 468 138.76 599.42 303.69 596.61A299 299 0 0 0 381 585.14C507.79 548.85 599.6 431 597.25 292.89 594.44 128 458.46-3.47 293.53-.66a299 299 0 0 0-77.32 11.47z"/><path class="cls-2" d="M83.24 308.42h-.16c-7.79.58-12.89 4.48-12.5 9.59s5.83 8.05 13.62 7.47h.16c7.79-.58 12.89-4.48 12.5-9.59s-5.86-8.06-13.62-7.47zM263.69 500.06c-5-1-9.29 3.53-10.75 11.21v.16c-1.46 7.68 1 13.61 6 14.57s9.29-3.53 10.75-11.21v-.16c1.47-7.68-.97-13.63-6-14.57zM400.17 501.65l9.25-4.8-11-9.88 1.75 14.68zM86.13 262h.16c7.63 1.66 13.63-.62 14.72-5.63s-3.29-9.38-10.92-11h-.16c-7.63-1.66-13.63.61-14.72 5.62s3.28 9.32 10.92 11.01zM196.34 500.18l-.07.15a6.2 6.2 0 0 0 2.76 8.54 6 6 0 0 0 8.29-3l.07-.15a6.18 6.18 0 0 0-2.79-8.47 6 6 0 0 0-8.26 2.93zM337.07 502l-3.11.62 4.6 23.38 3.11-.62c8.54-1.69 13.36-6.29 11.76-14.35v-.16c-1.62-8.09-7.82-10.52-16.36-8.87zM180 116.91c3.78-2.55 4.93-5.79 3-8.69l-.09-.13c-2.05-3-5.41-2.92-9.06-.46l-6.85 4.64 6.24 9.24zM459.22 137.95l.11-.12c2.44-2.73 1.52-6-1.76-8.9l-6.19-5.54-7.44 8.31 6.12 5.48c3.4 3.05 6.82 3.38 9.16.77zM90.81 200.71c2.92 1.78 5.9 1.12 7-.69s.4-4.72-2.59-6.54l-.14-.08c-2.92-1.78-5.81-1.26-7 .69s-.4 4.72 2.59 6.54z"/><path class="cls-2" d="M297.45 30.5C148.39 33 29.61 155.93 32.15 305s125.43 267.84 274.49 265.3 267.83-125.44 265.3-274.5S446.51 28 297.45 30.5zm136.78 59.23L427 104.31l-25.67-12.74-3.22 6.49 23.84 11.83-6.59 13.27-23.84-11.83-8.28 16.67-17.06-8.47 25.33-51zM472 297.5a170 170 0 1 1-172.83-167A170 170 0 0 1 472 297.5zM315.8 53.22L314 74.47l17.94-19.88L354 56.46l-21.88 23 17.47 33.83-22.59-1.94-9.62-18.95-5.38 5.51-1 12.09-19-1.61 4.81-56.77zm-55.32 40.47c-13-.13-24.76-1.6-27-13.43v-.16c-2.05-10.63 4.67-20.46 20.09-23.44 10.79-2.08 19.27-1.07 26.73 2.79l-6.67 14.38a29.88 29.88 0 0 0-17.85-2.27c-2.8.54-3.89 1.75-3.63 3.1v.16c.29 1.52 2 2.18 8.13 2.16 14.81-.13 25.2 2.18 27.38 13.45v.16c2.27 11.75-6 20.81-21 23.71-11.35 2.19-22.19 1-30.51-3.89l7.69-13.84a32.64 32.64 0 0 0 20.84 2.77c3.36-.65 4.62-1.8 4.33-3.32v-.16c-.38-1.59-2.31-2.13-8.53-2.17zm-43.16-26l21.54 52.74-17.63 7.2-21.55-52.75zm-52 26.46c8.36-5.65 15.1-7.16 20.64-6.09 4.75.92 8.6 3.42 11.88 8.28l.09.13c4.65 6.88 4.31 14.08.44 20.72l21.84 8.63L202.2 138l-18-7.47-3.37 2.28 9.11 13.49-15.78 10.66-31.89-47.21zm-41.85 73.39c5-8.13 14.28-9.49 21.72-5l.14.08c7.43 4.54 10.35 13.66 5.52 21.58s-14.28 9.49-21.72 5l-.14-.08c-7.44-4.55-10.49-13.47-5.52-21.59zM106 146.65l13.39 38.21 11.15 30.93-6.4 10.49L111 188.83l-11.42-31.69zm-26.72 42c5-8.13 14.28-9.49 21.72-5l.14.09c7.43 4.54 10.35 13.66 5.52 21.58s-14.28 9.49-21.72 5l-.14-.08c-7.45-4.5-10.5-13.41-5.54-21.54zM59.1 247.26c3.67-16.86 19.33-23.78 34.68-20.43h.16c15.35 3.34 26.84 16.34 23.17 33.2s-19.34 23.78-34.68 20.43h-.16c-15.35-3.34-26.84-16.34-23.17-33.2zm24 127.49l4.69 8.25-12.4 7.49-9.53-14.83-4.33-13.76 54.73-17.22 5.62 17.86zm30.29-59.94c1.29 17.2-11.75 28.3-27.41 29.48h-.21c-15.66 1.18-30.39-8-31.68-25.21s11.75-28.3 27.41-29.48h.16c15.67-1.17 30.4 8 31.69 25.21zm102.79 174.68c7.8 3.87 12.93 13.5 8 23.34l-.07.15c-6.11 12.32-19.25 14.07-30.55 8.47-7.73-3.83-11.46-8.59-13.37-14.26s-1.61-13.06 2.88-22.1l.07-.15c7.92-16 22.24-23.94 38.93-15.66a32.63 32.63 0 0 1 15.26 14.48l-12.93 7.57c-1.94-3.6-4.32-6.68-8.11-8.57-5.54-2.75-10.23-.26-13.92 5.54a18.91 18.91 0 0 1 13.81 1.19zM288.27 518v.16c-2.94 15.43-15.63 27.27-32.58 24s-24.28-18.71-21.34-34.14v-.16c2.94-15.43 15.63-27.27 32.58-24s24.28 18.7 21.34 34.14zm83.89-11.28v.16c3.27 16.53-5.75 30.5-28.35 35L323.09 546l-11-55.89 21.4-4.23c22.15-4.43 35.41 4.31 38.68 20.84zm53.84 5.35l-6.2-5.4-17.7 9.18.92 8.14-18.02 9.37-5.11-62 16.76-8.69 47.73 39.88zM458.68 489l-13.5-15-40.58-13 15.86-14.26 19.78 7.39-5.24-20.55 15.68-14.1 8.5 41.52 13.66 15.19zM508 435c-6.36 9.65-14.81 16.55-24.1 19.11L479.34 439a32.65 32.65 0 0 0 16.55-13c1.88-2.85 1.94-4.57.65-5.42l-.14-.09c-1.36-.9-3.09.11-7.47 4.53-9.21 9.23-18.45 16.6-28.5 10l-.14-.09c-9-6-11.38-17.64-2.73-30.75 6-9.17 12.7-14.53 20.68-17.17l5.63 14.82A29.88 29.88 0 0 0 469.78 413c-1.57 2.38-1.47 4-.31 4.76l.14.09c1.29.85 3 .1 7.22-4.3 10.25-10.73 19.17-16.55 28.74-10.24l.14.09c9.99 6.6 10.68 18.84 2.29 31.6zm-57.89-256.8l.6-.38-15.63-14 2.86-19.3-3-2.72L424 154l-14.19-12.71 38-42.45 20.74 18.57c7.52 6.73 10.63 12.9 10.94 18.54.27 4.83-1.22 9.18-5.13 13.54l-.11.12c-5.54 6.19-12.61 7.61-20 5.48l-2.92 22.35 46.79-29.77 26.08 41-13.15 8.33-16-25.2-4.88 3.1 14.94 23.49-11.61 7.38-14.97-23.47-5.22 3.32 16.25 25.55-13.19 8.39zm80.75 77.18L522 226.86l-5.52 1.71 8.24 26.59-13.14 4.07-8.24-26.59-5.91 1.83 9 28.92-14.98 4.61L477 221.21l54.42-16.86 14.38 46.42z"/><path class="cls-2" d="M135 179.54c2.92 1.78 5.9 1.12 7-.69s.4-4.71-2.59-6.54l-.14-.09c-2.92-1.78-5.81-1.26-7 .69s-.4 4.71 2.59 6.54z"/><path class="cls-4" d="M82.24 306.42h-.16c-7.79.58-12.89 4.48-12.5 9.59s5.83 8.05 13.62 7.47h.16c7.79-.58 12.89-4.48 12.5-9.59s-5.86-8.06-13.62-7.47zM262.69 498.06c-5-1-9.29 3.53-10.75 11.21v.16c-1.46 7.68 1 13.61 6 14.57s9.29-3.53 10.75-11.21v-.16c1.47-7.68-.97-13.63-6-14.57zM399.17 499.65l9.25-4.8-11-9.88 1.75 14.68zM85.13 260h.16c7.63 1.66 13.63-.62 14.72-5.63s-3.29-9.38-10.92-11h-.16c-7.63-1.66-13.63.61-14.72 5.62s3.28 9.32 10.92 11.01zM195.34 498.18l-.07.15a6.2 6.2 0 0 0 2.76 8.54 6 6 0 0 0 8.29-3l.07-.15a6.18 6.18 0 0 0-2.79-8.47 6 6 0 0 0-8.26 2.93zM336.07 500l-3.11.62 4.6 23.38 3.11-.62c8.54-1.69 13.36-6.29 11.76-14.35v-.16c-1.62-8.09-7.82-10.52-16.36-8.87zM179 114.91c3.78-2.55 4.93-5.79 3-8.69l-.09-.13c-2.05-3-5.41-2.92-9.06-.46l-6.85 4.64 6.24 9.24zM458.22 135.95l.11-.12c2.44-2.73 1.52-6-1.76-8.9l-6.19-5.54-7.44 8.31 6.12 5.48c3.4 3.05 6.82 3.38 9.16.77zM89.81 198.71c2.92 1.78 5.9 1.12 7-.69s.4-4.72-2.59-6.54l-.14-.08c-2.92-1.78-5.81-1.26-7 .69s-.4 4.72 2.59 6.54z"/><path class="cls-4" d="M296.45 28.5C147.39 31 28.61 153.93 31.15 303s125.43 267.84 274.49 265.3 267.83-125.44 265.3-274.5S445.51 26 296.45 28.5zm136.78 59.23L426 102.31l-25.67-12.74-3.22 6.49 23.84 11.83-6.59 13.27-23.84-11.83-8.28 16.67-17.06-8.47 25.33-51zM471 295.5a170 170 0 1 1-172.83-167A170 170 0 0 1 471 295.5zM314.8 51.22L313 72.47l17.94-19.88L353 54.46l-21.88 23 17.47 33.83-22.59-1.94-9.62-18.95-5.38 5.51-1 12.09-19-1.61 4.81-56.77zm-55.32 40.47c-13-.13-24.76-1.6-27-13.43v-.16c-2.05-10.63 4.67-20.46 20.09-23.44 10.79-2.08 19.27-1.07 26.73 2.79l-6.67 14.38a29.88 29.88 0 0 0-17.85-2.27c-2.8.54-3.89 1.75-3.63 3.1v.16c.29 1.52 2 2.18 8.13 2.16 14.81-.13 25.2 2.18 27.38 13.45v.16c2.27 11.75-6 20.81-21 23.71-11.35 2.19-22.19 1-30.51-3.89l7.69-13.84a32.64 32.64 0 0 0 20.84 2.77c3.36-.65 4.62-1.8 4.33-3.32v-.16c-.38-1.59-2.31-2.13-8.53-2.17zm-43.16-26l21.54 52.74-17.63 7.2-21.55-52.75zm-52 26.46c8.36-5.65 15.1-7.16 20.64-6.09 4.75.92 8.6 3.42 11.88 8.28l.09.13c4.65 6.88 4.31 14.08.44 20.72l21.84 8.63L201.2 136l-18-7.47-3.37 2.28 9.11 13.49-15.78 10.66-31.89-47.21zm-41.85 73.39c5-8.13 14.28-9.49 21.72-5l.14.08c7.43 4.54 10.35 13.66 5.52 21.58s-14.28 9.49-21.72 5l-.14-.08c-7.44-4.55-10.49-13.47-5.52-21.59zM105 144.65l13.39 38.21 11.15 30.93-6.4 10.49L110 186.83l-11.42-31.69zm-26.72 42c5-8.13 14.28-9.49 21.72-5l.14.09c7.43 4.54 10.35 13.66 5.52 21.58s-14.28 9.49-21.72 5l-.14-.08c-7.45-4.5-10.5-13.41-5.54-21.54zM58.1 245.26c3.67-16.86 19.33-23.78 34.68-20.43h.16c15.35 3.34 26.84 16.34 23.17 33.2s-19.34 23.78-34.68 20.43h-.16c-15.35-3.34-26.84-16.34-23.17-33.2zm24 127.49l4.69 8.25-12.4 7.49-9.53-14.83-4.33-13.76 54.73-17.22 5.62 17.86zm30.29-59.94c1.29 17.2-11.75 28.3-27.41 29.48h-.21c-15.66 1.18-30.39-8-31.68-25.21s11.75-28.3 27.41-29.48h.16c15.67-1.17 30.4 8 31.69 25.21zm102.79 174.68c7.8 3.87 12.93 13.5 8 23.34l-.07.15c-6.11 12.32-19.25 14.07-30.55 8.47-7.73-3.83-11.46-8.59-13.37-14.26s-1.61-13.06 2.88-22.1l.07-.15c7.92-16 22.24-23.94 38.93-15.66a32.63 32.63 0 0 1 15.26 14.48l-12.93 7.57c-1.94-3.6-4.32-6.68-8.11-8.57-5.54-2.75-10.23-.26-13.92 5.54a18.91 18.91 0 0 1 13.81 1.19zM287.27 516v.16c-2.94 15.43-15.63 27.27-32.58 24s-24.28-18.71-21.34-34.14v-.16c2.94-15.43 15.63-27.27 32.58-24s24.28 18.7 21.34 34.14zm83.89-11.28v.16c3.27 16.53-5.75 30.5-28.35 35L322.09 544l-11-55.89 21.4-4.23c22.15-4.43 35.41 4.31 38.68 20.84zm53.84 5.35l-6.2-5.4-17.7 9.18.92 8.14-18.02 9.37-5.11-62 16.76-8.69 47.73 39.88zM457.68 487l-13.5-15-40.58-13 15.86-14.26 19.78 7.39-5.24-20.55 15.68-14.1 8.5 41.52 13.66 15.19zM507 433c-6.36 9.65-14.81 16.55-24.1 19.11L478.34 437a32.65 32.65 0 0 0 16.55-13c1.88-2.85 1.94-4.57.65-5.42l-.14-.09c-1.36-.9-3.09.11-7.47 4.53-9.21 9.23-18.45 16.6-28.5 10l-.14-.09c-9-6-11.38-17.64-2.73-30.75 6-9.17 12.7-14.53 20.68-17.17l5.63 14.82A29.88 29.88 0 0 0 468.78 411c-1.57 2.38-1.47 4-.31 4.76l.14.09c1.29.85 3 .1 7.22-4.3 10.25-10.73 19.17-16.55 28.74-10.24l.14.09c9.99 6.6 10.68 18.84 2.29 31.6zm-57.89-256.8l.6-.38-15.63-14 2.86-19.3-3-2.72L423 152l-14.19-12.71 38-42.45 20.74 18.57c7.52 6.73 10.63 12.9 10.94 18.54.27 4.83-1.22 9.18-5.13 13.54l-.11.12c-5.54 6.19-12.61 7.61-20 5.48l-2.92 22.35 46.79-29.77 26.08 41-13.15 8.33-16-25.2-4.88 3.1 14.94 23.49-11.61 7.38-14.97-23.47-5.22 3.32 16.25 25.55-13.19 8.39zm80.75 77.18L521 224.86l-5.52 1.71 8.24 26.59-13.14 4.07-8.24-26.59-5.91 1.83 9 28.92-14.98 4.61L476 219.21l54.42-16.86 14.38 46.42z"/><path class="cls-4" d="M134 177.54c2.92 1.78 5.9 1.12 7-.69s.4-4.71-2.59-6.54l-.14-.09c-2.92-1.78-5.81-1.26-7 .69s-.4 4.71 2.59 6.54z"/><path class="cls-2" d="M304 153.24a150 150 0 1 0 150 150 150 150 0 0 0-150-150zm-9.7 185.81l-85.68 28.25 120.93-159.64 24.9 198.71z"/><path class="cls-5" d="M303 151.24a150 150 0 1 0 150 150 150 150 0 0 0-150-150zm-9.7 185.81l-85.68 28.25 120.93-159.64 24.9 198.71z"/></svg>