<svg id="Layer_1" data-name="Layer 1" xmlns="http://www.w3.org/2000/svg" viewBox="0 0 300 300"><defs><style>.cls-1{fill:#fafcf8}.cls-2{fill:#1595a3}.cls-3{fill:#ea8024}.cls-4{fill:#225378}.cls-5{fill:#b3e1e8}</style></defs><title>refocus-iconography</title><circle class="cls-1" cx="149.38" cy="149.38" r="149.34" transform="rotate(-75 149.376 149.375)"/><path class="cls-2" d="M36.28 62.23L26.12 77.04l112.25 76.99-77 112.26 14.81 10.15 77-112.25 112.25 77 10.16-14.81-112.25-77 77-112.25-14.81-10.15-77 112.24L36.28 62.23z"/><path class="cls-3" d="M35.28 60.23L25.12 75.04l112.25 76.99-77 112.26 14.81 10.15 77-112.25 112.25 77 10.16-14.81-112.25-77 77-112.25-14.81-10.15-77 112.24L35.28 60.23z"/><path class="cls-2" d="M150.54 7.47a143.27 143.27 0 1 1-45.83 7.59 143.52 143.52 0 0 1 45.83-7.59m0-6.22a149.47 149.47 0 1 0 38.75 5.13 149.41 149.41 0 0 0-38.75-5.13z"/><path class="cls-4" d="M149.29 6.22a143.27 143.27 0 1 1-45.83 7.59 143.52 143.52 0 0 1 45.83-7.59m0-6.22A149.47 149.47 0 1 0 188 5.13 149.41 149.41 0 0 0 149.28 0z"/><path class="cls-5" d="M62.89 131.14l23.92-2.84L118 158.82l-4-33.75 25.34-3 9.07 76.46-22.72 2.7-32.57-31.92 4.19 35.28L72 207.6zM150.91 159.69v-.22c-2.63-22.17 13.51-42 37.11-44.83s43.69 12.54 46.32 34.72v.22c2.63 22.17-13.51 42-37.11 44.83s-43.69-12.55-46.32-34.72zm57.68-6.84v-.22c-1.08-9.07-8.27-16.52-18.11-15.35s-14.88 10-13.82 18.92v.22c1.08 9.07 8.27 16.52 18.11 15.35s14.87-9.97 13.81-18.93z"/><path class="cls-4" d="M61.89 129.14l23.92-2.84L117 156.82l-4-33.75 25.34-3 9.07 76.46-22.72 2.7-32.57-31.92 4.19 35.28L71 205.6zM149.91 157.69v-.22c-2.63-22.17 13.51-42 37.11-44.83s43.69 12.54 46.32 34.72v.22c2.63 22.17-13.51 42-37.11 44.83s-43.69-12.55-46.32-34.72zm57.68-6.84v-.22c-1.08-9.07-8.27-16.52-18.11-15.35s-14.88 10-13.82 18.92v.22c1.08 9.07 8.27 16.52 18.11 15.35s14.87-9.97 13.81-18.93z"/></svg>