<svg id="Layer_1" data-name="Layer 1" xmlns="http://www.w3.org/2000/svg" viewBox="0 0 600 600"><defs><style>.cls-1{fill:#fafcf8}.cls-2{fill:#1595a3}.cls-3{fill:#225378}.cls-4{fill:#b3e1e8}.cls-5{fill:#ea8024}</style></defs><title>refocus-iconography</title><circle class="cls-1" cx="298.76" cy="301.24" r="298.68" transform="rotate(-75 297.52 299.976)"/><path class="cls-2" d="M301.07 14.94a286.53 286.53 0 1 1-91.66 15.18 287 287 0 0 1 91.66-15.18m0-12.45C169.19 2.5 48.5 90.5 12.74 223.94-30 383.28 64.6 547.05 223.94 589.75A299 299 0 0 0 301.43 600C433.3 600 554 512 589.75 378.55c42.69-159.34-51.86-323.11-211.2-365.81a299 299 0 0 0-77.49-10.25z"/><path class="cls-3" d="M298.44 11.67a286.53 286.53 0 1 1-91.66 15.18 287 287 0 0 1 91.66-15.18m0-12.45c-131.87 0-252.56 88-288.32 221.45C-32.59 380 62 543.79 221.31 586.48a299 299 0 0 0 77.49 10.25c131.87 0 252.56-88 288.32-221.45 42.69-159.34-51.87-323.11-211.2-365.81a299 299 0 0 0-77.5-10.25z"/><path class="cls-2" d="M284.22 214.43s-43.64-64.43-113.75-50.8S76 253.07 104.65 312.45s73 83.71 108.75 105.17 122.34 52.23 122.34 52.23 48.65-39.35 83-80.13 86.57-114.47 68.68-185.3-78-84.42-107.32-81.56-73.7 20.03-95.88 91.57z"/><path class="cls-4" d="M283.22 212.43s-43.64-64.43-113.75-50.8S75 251.07 103.65 310.45s73 83.71 108.75 105.17 122.34 52.23 122.34 52.23 48.65-39.35 83-80.13 86.57-114.47 68.68-185.3-78-84.42-107.32-81.56-73.7 20.03-95.88 91.57z"/><path class="cls-2" d="M99.97 138.52l-18.45 25.81 195.57 139.85-139.84 195.57 25.8 18.46L302.9 322.63l195.58 139.85 18.45-25.81-195.58-139.85L461.2 101.25l-25.81-18.46-139.84 195.58L99.97 138.52z"/><path class="cls-5" d="M98.97 136.52l-18.45 25.81 195.57 139.85-139.84 195.57 25.8 18.46L301.9 320.63l195.58 139.85 18.45-25.81-195.58-139.85L460.2 99.25l-25.81-18.46-139.84 195.58L98.97 136.52z"/></svg>