<svg id="Layer_1" data-name="Layer 1" xmlns="http://www.w3.org/2000/svg" viewBox="0 0 600 600"><defs><style>.cls-1{fill:#fafcf8}.cls-2{fill:#1595a3}.cls-3{fill:#225378}.cls-4{fill:#b3e1e8}.cls-5{fill:#ea8024}</style></defs><title>refocus-habits</title><circle class="cls-1" cx="301.24" cy="301.24" r="298.68" transform="matrix(.26 -.97 .97 .26 -67.7 514.26)"/><path class="cls-2" d="M301.07 14.94a286.53 286.53 0 1 1-91.66 15.18 287 287 0 0 1 91.66-15.18m0-12.45C169.19 2.5 48.5 90.5 12.74 223.94-30 383.28 64.6 547.05 223.94 589.75A299 299 0 0 0 301.43 600C433.3 600 554 512 589.75 378.55c42.69-159.34-51.86-323.11-211.2-365.81a299 299 0 0 0-77.49-10.25z"/><path class="cls-3" d="M298.44 11.67a286.53 286.53 0 1 1-91.66 15.18 287 287 0 0 1 91.66-15.18m0-12.45c-131.87 0-252.56 88-288.32 221.45C-32.59 380 62 543.79 221.31 586.48a299 299 0 0 0 77.49 10.25c131.87 0 252.56-88 288.32-221.45 42.69-159.34-51.87-323.11-211.2-365.81a299 299 0 0 0-77.5-10.25z"/><path class="cls-2" d="M435.86 163.69c-18.44-18.44-48.18-42.53-51.67-45s-6.31-2.66-10-1-17.44 11.46-27.41 21.43-25.58 29.57-28.08 34.06-2.66 6.31.33 10.63 31.73 37.71 31.73 37.71l-2.66 2.66a1.38 1.38 0 0 0 0 2s-21.76 24.75-29.41 32.73-23.68 23.35-33.35 32-27.74 23.09-40.2 34.93-38.54 38.88-45.52 46.52-25.09 28.74-33.56 35.55-20.77 14.09-26.91 16.28-10.13 1.16-10.47 4.49 5 17.94 20.27 29.57 17.61 4 19.27.66 16.68-22.86 25.62-30.91 51-45.39 66.75-61.5 55.82-62.47 67.78-75.09 44.52-40.87 44.52-40.87a2.4 2.4 0 0 0 2.82-.5l2.33-2.33s24.42 22.43 33.06 29.07 10 6.65 19.27.66 29.9-25.58 37.71-34.39 12.29-15.95 13.62-19.94.83-5.48-2.49-9.47-18.64-25.24-43.35-49.95z"/><path class="cls-4" d="M434.86 161.69c-18.44-18.44-48.18-42.53-51.67-45s-6.31-2.66-10-1-17.44 11.46-27.41 21.43-25.58 29.57-28.08 34.06-2.66 6.31.33 10.63 31.73 37.71 31.73 37.71l-2.66 2.66a1.38 1.38 0 0 0 0 2s-21.76 24.75-29.41 32.73-23.68 23.35-33.35 32-27.74 23.09-40.2 34.93-38.54 38.88-45.52 46.52-25.09 28.74-33.56 35.55-20.77 14.09-26.91 16.28-10.13 1.16-10.47 4.49 5 17.94 20.27 29.57 17.61 4 19.27.66 16.68-22.86 25.62-30.91 51-45.39 66.75-61.5 55.82-62.47 67.78-75.09 44.52-40.87 44.52-40.87a2.4 2.4 0 0 0 2.82-.5l2.33-2.33s24.42 22.43 33.06 29.07 10 6.65 19.27.66 29.9-25.58 37.71-34.39 12.29-15.95 13.62-19.94.83-5.48-2.49-9.47-18.64-25.24-43.35-49.95z"/><path class="cls-2" d="M132.82 142.73c-9.94 9.94-10.19 11.72-7.9 20.13s10.19 27.53 29.82 48.17 33.17 23.49 52.29 36.49 17.27 13.19 22.18 20.14 11.64 20.82 14.28 23.45 4 5.18 5.1 4.76a8.24 8.24 0 0 0 2-1.1s1.78 2.12 2.63 2 8.07-7.05 8.07-7.05 5.52 5.18 6 5.69.85.51 1.61-.08 4.08-4.08 4.08-4.08S391.17 409.41 397.63 416s16.48 17.5 19.29 22a68.77 68.77 0 0 0 4.42 6.63c.68.85 20.22 16.65 20.56 16.82s4-3.31 5.18-4.5 4.33-4 4.42-4.42-16-19.88-16.82-20.73-5.61-1.53-15.72-11.3-137.5-137.33-137.5-137.33 3.11-3.28 3.68-4 .48-1.34-.45-2.27l-5.26-5.26s5.35-5.86 6.2-7.05 1-1.87.51-2.38l-1.61-1.61s2-1.7.59-3.48-5-3.78-13.19-7.92-14.25-7.45-23.77-17-14.49-24.34-25-41.67-35-38.06-51.65-47.24-24.93-11.09-29.79-7.59-5.72 3.8-8.9 7.03z"/><path class="cls-4" d="M131.82 140.73c-9.94 9.94-10.19 11.72-7.9 20.13s10.19 27.53 29.82 48.17 33.17 23.49 52.29 36.49 17.27 13.19 22.18 20.14 11.64 20.82 14.28 23.45 4 5.18 5.1 4.76a8.24 8.24 0 0 0 2-1.1s1.78 2.12 2.63 2 8.07-7.05 8.07-7.05 5.52 5.18 6 5.69.85.51 1.61-.08 4.08-4.08 4.08-4.08S390.17 407.41 396.63 414s16.48 17.5 19.29 22a68.77 68.77 0 0 0 4.42 6.63c.68.85 20.22 16.65 20.56 16.82s4-3.31 5.18-4.5 4.33-4 4.42-4.42-16-19.88-16.82-20.73-5.61-1.53-15.72-11.3-137.5-137.33-137.5-137.33 3.11-3.28 3.68-4 .48-1.34-.45-2.27l-5.26-5.26s5.35-5.86 6.2-7.05 1-1.87.51-2.38l-1.61-1.61s2-1.7.59-3.48-5-3.78-13.19-7.92-14.25-7.45-23.77-17-14.49-24.34-25-41.67-35-38.06-51.65-47.24-24.93-11.09-29.79-7.59-5.72 3.8-8.9 7.03z"/><path class="cls-2" d="M383.79 327.39l-22.45-22.44L222.29 444l-70.57-70.58-22.45 22.44 93.02 93.03 22.45-22.45 139.05-139.05z"/><path class="cls-5" d="M382.79 325.39l-22.45-22.44L221.29 442l-70.57-70.58-22.45 22.44 93.02 93.03 22.45-22.45 139.05-139.05z"/></svg>