<svg id="Layer_1" data-name="Layer 1" xmlns="http://www.w3.org/2000/svg" viewBox="0 0 1200 272"><defs><style>.cls-1{fill:#ea8024}.cls-2{fill:#fafcf8}.cls-3{fill:#225378}.cls-4{fill:#b3e1e8}</style></defs><title>refocus-iconography</title><path class="cls-1" d="M452.54 41a74 74 0 1 0 74 74 74 74 0 0 0-74-74zm-4.79 91.69l-42.3 13.94 59.67-78.78 12.29 98.06z"/><path class="cls-2" d="M0 43.48h67.5c21.82 0 36.91 5.71 46.5 15.5 8.36 8.16 12.64 19.17 12.64 33.24v.41c0 21.82-11.63 36.3-29.37 43.85l34.06 49.76H85.66L56.9 143H39.56v43.24H0V43.48zM65.67 112c13.46 0 21.21-6.53 21.21-16.93v-.4c0-11.22-8.16-16.93-21.41-16.93H39.56V112h26.1zM136.43 43.48h114.83v33.65h-75.67v21.62h68.53v31.2h-68.53v22.64h76.68v33.65H136.43V43.48zM262.26 43.48h114.21v34.67h-74.64v24.27h67.5v32.83h-67.5v51h-39.57V43.48zM532.23 115.26v-.41c0-41.6 32-74.24 75.26-74.24 29.16 0 47.93 12.24 60.57 29.78l-29.78 23c-8.16-10.2-17.54-16.72-31.2-16.72-20 0-34.06 16.93-34.06 37.73v.41c0 21.41 14.07 38.14 34.06 38.14 14.89 0 23.66-6.93 32.22-17.34l29.78 21.21c-13.46 18.56-31.61 32.22-63.22 32.22-40.8.05-73.63-31.15-73.63-73.78zM674 123.63V43.48h40.18v79.33c0 20.6 10.4 30.39 26.31 30.39s26.31-9.38 26.31-29.37V43.48h40.18v79.13c0 46.09-26.31 66.28-66.89 66.28S674 168.29 674 123.63zM809.38 165l22-26.31c14.07 11.22 29.78 17.13 46.3 17.13 10.6 0 16.31-3.67 16.31-9.79v-.41c0-5.91-4.69-9.18-24.07-13.66-30.39-6.93-53.84-15.5-53.84-44.87v-.38c0-26.51 21-45.68 55.27-45.68 24.27 0 43.24 6.53 58.74 19l-19.76 27.91c-13.05-9.18-27.33-14.07-40-14.07-9.59 0-14.28 4.08-14.28 9.18v.41c0 6.53 4.89 9.38 24.68 13.87 32.87 7.13 53.27 17.73 53.27 44.45v.41c0 29.16-23 46.5-57.72 46.5-25.28-.01-49.36-7.96-66.9-23.69z"/><path class="cls-3" d="M490.39 181.69c2.38-7.87 6.76-19.35 10.53-25.68l2.62-.13c5.83-.3 8.12 4.41 9.1 6.41l-2 .1c.09 1.75.94 4 2 4 4.08-.21 7.25-4 11.83-5.87a40.74 40.74 0 0 1 8.52-2c3.21-.16 7.29 8.25 8.8 12.12-1.45.22-2.57 1.3-1.32 2.7-2 3.61-3.88 9.85-6.67 9.7-1.9 0-6.44 5.59-8.05 5.53-2.79-.15-4.52 3-7.32 5.49l-1.06-.68c-1.54 1.25-4.79 3.61-6 5.42l.61.41c4.65-.53 11.32-1.6 16.57-1.87 7.14-.36 13 3.43 17.73 6.55 2.37 3.39 5.54 11.12 7.23 15.71-1 .64-1.9 0-2.9.44-1.88 3.17-14.07 13.58-14.8 13.62a22 22 0 0 0-10.08 3l.69 2.16c-3.2 3.23-8.53 4.67-10.68 2.74-.69.77-1 2.39-1.43 3.58-15.17 9.25-26.4 12.6-24.64 15.73a4.52 4.52 0 0 1-3 1.32c-3.21.16-5.91-4.08-10.17-4.45.21-1.62.12-3.37-1.58-2.4a15.65 15.65 0 0 0-1.1-7.25c2.42-1.29 5.13-2.6 7.54-4-2.66-.6-4.55-3.13-6.63-3.9l1.2-2.25a7.81 7.81 0 0 1-2.66-3.37L486 193.9c-2.39-1-2.94-3.21-2.78-5.85zm-3 55.12l1.05.53 1.08-1.66c-.93-.39-1.52.22-2.16 1.14zm9.73-24.18c-1.6.08-1.84 1.12-2.57 1.15l1.52 1.09c-.66 1.35-1.61 2.86-2.63 2.91 1.56 2 .66 4.35-.36 7.33-1.11 1.08-2.68 1.89-3.2 3.23 1.9-.1 1.36.81.8 1.42-1.4 1.24-2.23 2.16-.48 4.85l2.32-3.19.08 4.53-1 .05a7 7 0 0 0-.45 2.65c6.27-3.24 11.42-5.41 13-4 .63-1.93 3.19-3.38 6.31-5.29 1.59 2.55 2-.4 3.48-.47 1.17-.06 2.79.3 3.25-2.21 6.12-3.24 12.94-7.09 18.11-14.67-13.23-4.3-18.48 1.67-30.44 2.28-3 .15-6.02-1.74-7.77-1.65zm-6.41 9.1a4.2 4.2 0 0 1-.89 2.68l.64 1a5.52 5.52 0 0 0 1.86-3.75zm2.71 7.32a.76.76 0 0 1-.35-1.15c.09-1.17 1.6-3 2.44-3.78zm3 21.19l.77.69a1.59 1.59 0 0 0 .74.11 2.13 2.13 0 0 0 1.13-.79h-2.63zm-.67-27.45c-.74-.25.36-4.4 1.28-6.35l.91.68zm4.16 25.21a2.32 2.32 0 0 0 2.58 1.77c1.6-.08 1.8-2 1.07-2a6.09 6.09 0 0 1-3.65.23zm24.91-10.33a7.62 7.62 0 0 0-4.17 1.38 4.12 4.12 0 0 0 2.22.47c.73-.02 1.43-.64 1.95-1.84zm-3.42-29.79l-.09 1.17c1.47.22 2.92 0 3-.89zm6.37 30.38c-.07-1.46.9-2.39 2.65-2.47a2.47 2.47 0 0 1 1.48.36zm7-6.93l-2.3.85c-.09 1 2.08.62 2.65.45zm10.68-8.44l2.65-2.47c-.78-1-2.74.72-3.73 1.36zM639.89 212.08a2.09 2.09 0 0 1-1.74 3.16l-1.15-1.85c-1.15.35-2 1-1 2.54-1.6.08-4.16 1.53-4.08 3.13.11 2.19-2.4 1.58-4.13 2.11a54.32 54.32 0 0 0-4.37 6.07l-1.68-1.38c-3.67 2.53-1.55 4-5.39 6.12-2.27 1.29-5.05 1.28-7.65 2-.42.46 1.36 1 1.25 1.54l-2.58 1-4.21-2.27c-2.26 1.58-.34 4.84-3.2 6-3.44 1.34-6.16 2.51-10.17 4-2.61-2.35-5.48-1.33-7.44.38a152 152 0 0 1-15.74-10.45c-3.64-2.59-5.17-9.68-5.53-16.68-1.81-35.43 41.21-60.58 52.14-61.14 4.23-.22 6.4 2.3 11.1 5.57.34 6.71 7.76 11.74 13.95 15.52 5.88 3.5 8.15 10.7 8.55 18.57a21.21 21.21 0 0 1-6.93 16.06zM622.62 183c-.5-1.29-.84-2.15-1.39-1.54a2.54 2.54 0 0 1-1.56 1c-1 .05-1.66-1.08-1.81-1.08-7.73.39-20.69 10-26.32 19.91-6.83 3.71-11.22 12.27-13.91 22.49 3.34-.46 7.7-1 10.27-2.13l25.69-12.27c2.86-1.32 9-4.7 11.56-8.34l6.12-8.94zm-35.33 18.18c-2.25-1.2-4.77 1-5 2.59a1.67 1.67 0 0 0 1.84 1.66zm2.65 40.51a3.42 3.42 0 0 0-2.71-1.47 3.32 3.32 0 0 0-1.71 1zm18.58-11.18c0 .44-.51 1.49-.2 1.76.61.41 1.75-.09 2.46-.42-.05-1.03-.78-1.43-2.26-1.36zm7.66-4.63c-2.56 1.45-3.54 2.23-3.31 3.82l4.12-2.4zm3.9-3.71l-2.21 2.6.67 1.57 2.83-1.9c-.46-.44-.84-2.02-1.29-2.29zM735.25 207.22a2.09 2.09 0 0 1-1.74 3.16l-1.12-1.84c-1.15.35-2 1-1 2.54-1.6.08-4.16 1.53-4.08 3.13.11 2.19-2.4 1.58-4.13 2.11a54.32 54.32 0 0 0-4.37 6.07L717.1 221c-3.67 2.53-1.55 4-5.39 6.12-2.27 1.29-5.05 1.28-7.65 2-.42.46 1.36 1 1.25 1.54l-2.58 1-4.21-2.27c-2.26 1.58-.34 4.84-3.2 6-3.44 1.34-6.16 2.51-10.17 4-2.61-2.35-5.48-1.33-7.44.38a152 152 0 0 1-15.71-10.4c-3.64-2.59-5.17-9.68-5.53-16.68-1.81-35.43 41.21-60.58 52.14-61.14 4.23-.22 6.4 2.3 11.1 5.57.34 6.71 7.76 11.74 13.95 15.52 5.88 3.5 8.15 10.7 8.55 18.57a21.21 21.21 0 0 1-6.96 16.01zM718 178.13c-.5-1.29-.84-2.15-1.39-1.54a2.54 2.54 0 0 1-1.56 1c-1 .05-1.66-1.08-1.81-1.08-7.73.39-20.69 10-26.32 19.91-6.83 3.71-11.22 12.27-13.91 22.49 3.34-.46 7.7-1 10.27-2.13l25.69-12.27c2.86-1.32 9-4.7 11.56-8.34l6.12-8.94zm-35.35 18.17c-2.25-1.2-4.77 1-5 2.59a1.67 1.67 0 0 0 1.84 1.66zm2.65 40.51a3.42 3.42 0 0 0-2.71-1.47 3.32 3.32 0 0 0-1.71 1zm18.58-11.18c0 .44-.51 1.49-.2 1.76.61.41 1.75-.09 2.46-.42-.05-.97-.8-1.42-2.26-1.34zm7.66-4.63c-2.56 1.45-3.54 2.23-3.31 3.82l4.12-2.4zm3.9-3.71l-2.21 2.6.67 1.57 2.83-1.9c-.46-.41-.83-2-1.28-2.27zM810.35 151.78c9.52-2.53 20.19-5.42 26.85-6.63 6.35 1.28 11.59 3.65 13.75 8.8-2.37 2.31-.86 6 .56 8.16a11.3 11.3 0 0 1-2.28 1.14l-.34-.86a4.89 4.89 0 0 0-2.07-.48 1 1 0 0 0-1 1.07 2.75 2.75 0 0 0 .35 1.15c-8.66 2.2-21.55 1.68-33.38 7.55l-2 .1-.08-1.6a3.52 3.52 0 0 0-3.12 1.91c-4.93.84-6.44 2.81-9 12.16a11.34 11.34 0 0 1-2.87 3.95l1.35.66c-.57 3.1-2.46 9-3.93 9s-.3-3.05-1.17-2.86c-1.59.37-1.57 3.59-2.18 6a10.85 10.85 0 0 1 1.09 4.18c-.63 1.93-1.2 5.18-2.22 5.23-1.46.07-.72-2.74-1.37-3.88-1.17 2.84-2.06 5.51-3 8l1.2.67c.66-1.35 1.37-1.82 2.7-1.6a214.81 214.81 0 0 0-5.75 22.08 31.73 31.73 0 0 1-9.51-.25l.5-1.63c-3.86-1.12-3.82-6.09-4.69-11.75a5.64 5.64 0 0 1-1.32-3c-.19-3.65 7-25.65 13.47-42.64l-11.37.58c-6.42.33-6.75 2.39-11.47 1.46-2.36-3.24-5.31-9.52-5.53-13.9a6.52 6.52 0 0 1 1.8-4.92c5.72.29 19.31.18 28.11-2 14.57-3.81 7.45-17.34 21-18zm-16.44 38.85l-1.32 2.7.93 1 1-2.68zM888 165.95a88 88 0 0 0-8.77 8.63l-.95-1.41c-1.47 2.71-6.79 7.36-10.68 11.22a12.63 12.63 0 0 1-.86 3.11c-2.48 2.9-16.07 20.26-15.71 27.41.09 1.75.87 2.73 2.47 2.65 5.25-.27 17.17-4.38 25.85-6.14a4.87 4.87 0 0 1 4.45 1.24c-6.92 1.82-16.75 4.07-18.21 7.07 2.86 1.61 7.61.2 9.69-2.1 7.65-1.85 17.32-4.39 24.7-5.79l2.36.46 3.48-.62 1.66.94-7.52 1.55c-1.88.39-3.89 1.08-2.48 2.9l1.09 1.41c-1.28.65-17.22 6.29-26.69 9.84-1.57.67-2.52 2.18-1.59 3.15-3 .89-7.62 2.44-11 2.61-1.6.08-3-2.18-4.49-2.11-3.5.18-4.56-3.42-9.2-2.6-2.75-2.34-8.77-11.39-10-13.52a10.79 10.79 0 0 1-1.27-4.91l-.2-3.94c2.23-2.16 2.22-5.23 2.06-8.29l1.5.8c.94-1.66-.33-3.64.32-5.28 2.75-6.28 8.08-16.35 10-16.44s-.76 2.23 1.28 2.13c1.6-.08 4.28-7.82 5.88-7.9l1.75-.09a17 17 0 0 1-.94-4l1-.05c3.32-9.38 30.33-27.28 35.44-27.54 1.75-.09 5.33 1.34 7.58 2.39 2.29 4.71 6.56 8.29 5.85 14.32a56.66 56.66 0 0 0-17.85 8.9zm-42 17.63l-1.84 3.42 1.36 1 1.74-3.16zm.53-1.05l1.5.8 1.06-2.1c-1.15-.37-1.86-.05-2.52 1.3zm3.47 23.95l-.92 2.09.92 1.13 1.44-3.29zm5.5-9.78l-1.61 2.86c-.53 1.05-2 3.47-1.22 4.74l4.18-6.94zm5.7-8.62l-.8 1.5 1.07.82 1.09-1.52zm2-.1c2.91-3.22 2.88-3.8 2.85-4.38-1.46.07-2.7 1.6-4.2 3.58zm9.91 42.33l4.73-1.85c1.82 1.22.26 2.18-1.93 2.29a6.33 6.33 0 0 1-2.79-.45zm16.22-5.8c-2.69 1.75-5.38 3.49-7.86 3.62a4.66 4.66 0 0 1-2.06-.33c2.71-1.31 6.61-2.24 9.91-3.43v.15zm-5.24-13.91c5.78-1.32 11.85-2.8 16.2-3.31-.6 2.52-5.52 3.64-9.89 3.87a16.87 16.87 0 0 1-6.3-.57zm16.3 7.06l-1.54-1.66 3.91-.78 1.94.78zM980.12 195.6c-1 2.54-.28 8.93-3.19 12 2.1 1.06 1.12 4.77-.69 6.61 1 2.14 1.65 3.72-1.2 8-.12.59 1.31-.21 1.58-.52a48.92 48.92 0 0 1-2.24 13.42c-4.52.23-8.83-3.94-11.11-2.94 0-2.92-.5-4.07-2.54-4v-2a1.45 1.45 0 0 0 1.38-1.53 1.27 1.27 0 0 1-1.39-1.39c.12-3.37 1.65-7.69 2.31-12.11 1-.05 1.12 1.84 1.08 4 1-.05 2.32-6.11 2.44-9.48l-1.79-.64c0 2.34.14 5.55-1.65 4.91.33-2.06.51-7.19.86-9l2.64 2.94c-.24-1.74.47-2.22.07-4.39-8.33.13-29.74 13.07-36.07 17.92l-.61 1.96.67 1.72c-2.22 5.23-4.1 11.32-6.28 14.5l-9.39-3.47c-.67-4.5-7-6.07-5.62-9.95l-2.33.12c2.09-22.18 25.23-47 38-66.12a108 108 0 0 1 18.39-20.67c1-.93 5.13.32 5.28-2.46a30.51 30.51 0 0 1 8.37 3.67l-2.58 1c0 2.49 3.48-.47 4.24.08 5.63 4.39 3 12.42 6 16.51.18.72.53 13.28-1.59 14.7a4.55 4.55 0 0 0 .9.54 61.86 61.86 0 0 0-1.75 11.64c-.06 1.76 5.74 6.43 5.63 12.87-2.61.42-5.35 1.15-7.82 1.56zm-45.63 14a25.42 25.42 0 0 0-1.47 2.71l10.78-6.4c-1.96-1.34-6.61 2.09-9.31 3.72zm6-6.44c-1.14.5-2 .69-3 1.18l-1.62 2.57c.52-.3 3.81-1.64 4.58-3.73zm33-51.68c-2.76.29-9.05 8.79-14.9 17.43l-.77-.69c.38-1.19.77-2.09.16-2.64-2.2 2.74-3.15 4.11-1.7 6.81q-3.06 4.54-5.72 8.19c-2.45 3.49-6.07 10-9.18 14.94 2.83-1.9 4.86-5.07 10.56-7.85 5-2.45 8-3.19 13.2-4.91.24-3.81 1.56-6.66 2-8.73l2.59 2.06c1.52-4.61 3-16.52 4.23-23.17zm-23 50.59v-.15c-3.2.31-4.5.67-5 3 1.3-.74 3.44-1.73 4.99-2.83zm13.58 14.07l-.49 1.93h.88l.46-2.36zm2.73-35.37c-.49 1.78.53 1.73 1.54 1.53l.06-1.61zm1.19-2.4l-.59-.12-.5 1.63 1.31-.07zm3.31-18.15l-1.31.07 1-4 1.28-.65zM1113.78 164.81c-3.26-.86-4.37 6.07-5 7.71l-2.33.12c.09 1.75 2.15 1.94 3.48 2.31-.65 1.64-2.23 2.16-4 2.1l-3.43 13 1.71-1 2.59-9.49 1 2.29-1.67 7.39c-.6 2.66-1.8 4.77-3.26 4.84-2 .1-1.47 2.71-2 4.63l-1.09-1.26-.83.92c.8 1.42 2.36 3.24 2.45 5 .17 3.35-3.15 9.81-5.34 15.62l-2.59-2.06a2.94 2.94 0 0 1-1.14.64 4.5 4.5 0 0 1-1.45.22c-5.54.28-12.43-8.72-12.7-14-.3-6 10.56-28 15.22-39.81l-.5-1.14c-4.09 2.84-14.28 6.72-14.48 11.26l-24.69 23.33c-2.65-3.23-4.27-.66-7.34-.5-3.79.19-6.34-6.84-8-11.58 1.82-7.26 5-16.34 8.1-24.68l-1.61-2.84c-5.59 5.11-10.6 12.82-14.36 19.44-5.62 10.23-13.15 26-18.84 37.65-1.49-.51-.45-3 .47-5.14-1.63-.36-2.67 2.18-3.55 5a11.94 11.94 0 0 0 .56 8.16 3.58 3.58 0 0 1-2.29 1c-6 .3-14.83-9.92-15-13.12-.18-3.5 11.08-23.52 17.25-34.36 7-12.49 13.83-24.1 23.36-32 2.55-4.37 8.1-13.13 13.35-13.4 8.17-.42 11.6 9.64 15.37 17.64a24.83 24.83 0 0 0 1.81 12.63c4.5-3.45 10.08-8.7 14.61-11.56 1-.64 2.35.17 3.14 1.3a3.41 3.41 0 0 0 1.1-4.15c7.48-5.21 17-10.66 20.21-10.83 2.77-.14 6.4 2.16 9.58 4.34 2.78 5.71 5.79 10.38 6 15.19.26 4.3-1.2 9.93-3.87 9.19zm-100.44 40.06l-1.46 2.85.92.83 1.45-3.14zm.65-1.64l.91.68c.65-1.5 1.35-2.12.3-2.79zm84.75-12.23c0 .73.22 1.45.23 1.74 1.12-.93 1.71-3.74.37-4.26a5 5 0 0 0-.6 2.52zm6.47-16.56h-.15c-1.89 3-4.47 7-4.24 11.47a14.37 14.37 0 0 0 .42 2.46h.15zm1.92-8.28l-1.37 4.6c1.54-1.25 2.78-2.77 2.31-3.48zm1.84-1.12l1.52-4.61c-2 .1-2.09 2-3.12 4.69zm2.57 7.32l-1.6.08a7.68 7.68 0 0 1 2.62-3.06zM1181.21 168.25l-1.22-1c-9.62 6.34-20 14.76-24.67 12.08-1.6 3-4.52 11.78-5.25 11.82s-.48-3.78-1.95-.92-4.51 9-4 13.22c0 .87 2.3-.7 2.06.19l-5.59 19.44a42.08 42.08 0 0 0-1 6.77c-1.31.07-9.48-2.44-11.67-5.25-2.51-3.38-3.5-8.45-3.65-11.36 3.93-14.67 13.56-40.75 20.58-58.06a32.3 32.3 0 0 1-5.8-4.82 12.37 12.37 0 0 0 1.93-5.21l-3.69-.69a13.19 13.19 0 0 1 3.77-3.41l-.12-2.33c13.9.17 11.57-16.82 17.11-17.1a9.71 9.71 0 0 1 3.24.42c2.22.62 4.18 1.69 6.67 1.85 1.32 2.86 2.91 5.41 3.65 8.59a102.76 102.76 0 0 1 14.35.44c7.79.77 12.6 3.45 13 11.76.57 10.2-6.96 15.12-17.75 23.57zm-34.12 33.17c-.58 0-1.41.95-1.87.53.33-2.06 1.75-5.79 2.61-6.13 1.99-.98-.12 3.66-.75 5.6zm20.22-30.71l-1.9.1c-1.9.1-3.4 2.22-3.58 4.28a54.09 54.09 0 0 0 10.4-5.35c-1.86-1.82-2.6.85-4.93.97zm4.26-2.56c1.17-.06 1.39 1.39 2.52.6l2.4-1.58c-.78-.69-3.86-.83-4.94.98zm6.12-3.24c-.56.47.66 1.43 2.06.33 2.83-1.9 7.95-4.64 6.7-6.19zM1189 157c-.71.47-1.43.66-1.68 1.55-.38 1.19 3.22.13 3.14-1.48-.05-.4-.79-.51-1.46-.07z"/><path class="cls-4" d="M487.19 178.49c2.38-7.87 6.76-19.35 10.53-25.68l2.62-.13c5.83-.3 8.12 4.41 9.1 6.41l-2 .1c.09 1.75.94 4 2 4 4.08-.21 7.25-4 11.83-5.87a40.74 40.74 0 0 1 8.52-2c3.21-.16 7.29 8.25 8.8 12.12-1.45.22-2.57 1.3-1.32 2.7-2 3.61-3.88 9.85-6.67 9.7-1.9 0-6.44 5.59-8.05 5.53-2.79-.15-4.52 3-7.32 5.49l-1.06-.68c-1.54 1.25-4.79 3.61-6 5.42l.61.41c4.65-.53 11.32-1.6 16.57-1.87 7.14-.36 13 3.43 17.73 6.55 2.37 3.39 5.54 11.12 7.23 15.71-1 .64-1.9 0-2.9.44-1.88 3.17-14.07 13.58-14.8 13.62a22 22 0 0 0-10.08 3l.69 2.16c-3.2 3.23-8.53 4.67-10.68 2.74-.69.77-1 2.39-1.43 3.58-15.17 9.25-26.4 12.6-24.64 15.73a4.52 4.52 0 0 1-3 1.32c-3.21.16-5.91-4.08-10.17-4.45.21-1.62.12-3.37-1.58-2.4a15.65 15.65 0 0 0-1.1-7.25c2.42-1.29 5.13-2.6 7.54-4-2.66-.6-4.55-3.13-6.63-3.9l1.2-2.25a7.81 7.81 0 0 1-2.66-3.37l12.84-40.56c-2.39-1-2.94-3.21-2.78-5.85zm-3 55.12l1.05.53 1.08-1.66c-.93-.39-1.48.22-2.17 1.13zm9.73-24.18c-1.6.08-1.84 1.12-2.57 1.15l1.52 1.09c-.66 1.35-1.61 2.86-2.63 2.91 1.56 2 .66 4.35-.36 7.33-1.11 1.08-2.68 1.89-3.2 3.23 1.9-.1 1.36.81.8 1.42-1.4 1.24-2.23 2.16-.48 4.85l2.32-3.19.08 4.53-1 .05a7 7 0 0 0-.45 2.65c6.27-3.24 11.42-5.41 13-4 .63-1.93 3.19-3.38 6.31-5.29 1.59 2.55 2-.4 3.48-.47 1.17-.06 2.79.3 3.25-2.21 6.12-3.24 12.94-7.09 18.11-14.67-13.23-4.3-18.48 1.67-30.44 2.28-3.01.15-6.03-1.75-7.78-1.66zm-6.41 9.1a4.2 4.2 0 0 1-.89 2.68l.64 1a5.52 5.52 0 0 0 1.86-3.75zm2.71 7.32a.76.76 0 0 1-.35-1.15c.09-1.17 1.6-3 2.44-3.78zm3 21.19l.77.69a1.59 1.59 0 0 0 .74.11 2.13 2.13 0 0 0 1.13-.79h-2.63zm-.67-27.45c-.74-.25.36-4.4 1.28-6.35l.91.68zm4.21 25.22a2.32 2.32 0 0 0 2.58 1.77c1.6-.08 1.8-2 1.07-2a6.09 6.09 0 0 1-3.7.23zm24.91-10.33a7.62 7.62 0 0 0-4.17 1.38 4.12 4.12 0 0 0 2.22.47c.68-.03 1.38-.65 1.9-1.85zm-3.42-29.79l-.09 1.17c1.47.22 2.92 0 3-.89zm6.37 30.38c-.07-1.46.9-2.39 2.65-2.47a2.47 2.47 0 0 1 1.48.36zm7-6.93l-2.3.85c-.09 1 2.08.62 2.65.45zm10.68-8.44l2.65-2.47c-.78-1-2.74.72-3.73 1.36zM636.69 208.88a2.09 2.09 0 0 1-1.74 3.16l-1.12-1.84c-1.15.35-2 1-1 2.54-1.6.08-4.16 1.53-4.08 3.13.11 2.19-2.4 1.58-4.13 2.11a54.32 54.32 0 0 0-4.37 6.07l-1.68-1.38c-3.67 2.53-1.55 4-5.39 6.12-2.27 1.29-5.05 1.28-7.65 2-.42.46 1.36 1 1.25 1.54l-2.58 1-4.2-2.26c-2.26 1.58-.34 4.84-3.2 6-3.44 1.34-6.16 2.51-10.17 4-2.61-2.35-5.48-1.33-7.44.38A152 152 0 0 1 563.41 231c-3.64-2.59-5.17-9.68-5.53-16.68-1.81-35.43 41.21-60.58 52.14-61.14 4.23-.22 6.4 2.3 11.1 5.57.34 6.71 7.76 11.74 13.95 15.52 5.88 3.5 8.15 10.7 8.55 18.57a21.21 21.21 0 0 1-6.93 16.04zm-17.27-29.09c-.5-1.29-.84-2.15-1.39-1.54a2.54 2.54 0 0 1-1.56 1c-1 .05-1.66-1.08-1.81-1.08-7.73.39-20.69 10-26.32 19.91-6.83 3.71-11.22 12.27-13.91 22.49 3.34-.46 7.7-1 10.27-2.13l25.69-12.27c2.86-1.32 9-4.7 11.56-8.34l6.12-8.94zM584.09 198c-2.25-1.2-4.77 1-5 2.59a1.67 1.67 0 0 0 1.84 1.66zm2.65 40.51A3.42 3.42 0 0 0 584 237a3.32 3.32 0 0 0-1.71 1zm18.58-11.18c0 .44-.51 1.49-.2 1.76.61.41 1.75-.09 2.46-.42-.05-1.06-.8-1.46-2.26-1.38zm7.66-4.63c-2.56 1.45-3.54 2.23-3.31 3.82l4.12-2.4zm3.9-3.71l-2.21 2.6.67 1.57 2.83-1.9c-.46-.45-.84-2.04-1.29-2.31zM732.05 204a2.09 2.09 0 0 1-1.74 3.16l-1.12-1.84c-1.15.35-2 1-1 2.54-1.6.08-4.16 1.53-4.08 3.13.11 2.19-2.4 1.58-4.13 2.11a54.32 54.32 0 0 0-4.37 6.07l-1.68-1.38c-3.67 2.53-1.55 4-5.39 6.12-2.27 1.29-5.05 1.28-7.65 2-.42.46 1.36 1 1.25 1.54l-2.58 1-4.21-2.27c-2.26 1.58-.34 4.84-3.2 6-3.44 1.34-6.16 2.51-10.17 4-2.61-2.35-5.48-1.33-7.44.38a152 152 0 0 1-15.74-10.45c-3.64-2.59-5.17-9.68-5.53-16.68-1.81-35.43 41.21-60.58 52.14-61.14 4.23-.22 6.4 2.3 11.1 5.57.34 6.71 7.76 11.74 13.95 15.52 5.88 3.5 8.15 10.7 8.55 18.57a21.21 21.21 0 0 1-6.96 16.05zm-17.27-29.09c-.5-1.29-.84-2.15-1.39-1.54a2.54 2.54 0 0 1-1.56 1c-1 .05-1.66-1.08-1.81-1.08-7.73.39-20.69 10-26.32 19.91-6.83 3.71-11.22 12.27-13.91 22.49 3.34-.46 7.7-1 10.27-2.13l25.69-12.27c2.86-1.32 9-4.7 11.56-8.34l6.12-8.94zm-35.33 18.19c-2.25-1.2-4.77 1-5 2.59a1.67 1.67 0 0 0 1.84 1.66zm2.65 40.51a3.42 3.42 0 0 0-2.71-1.47 3.32 3.32 0 0 0-1.71 1zm18.58-11.18c0 .44-.51 1.49-.2 1.76.61.41 1.75-.09 2.46-.42-.05-1.02-.8-1.42-2.26-1.35zm7.66-4.63c-2.56 1.45-3.54 2.23-3.31 3.82l4.12-2.4zm3.9-3.71l-2.21 2.6.67 1.57 2.83-1.9c-.46-.41-.83-2-1.29-2.27zM807.15 148.58c9.52-2.53 20.19-5.42 26.85-6.63 6.35 1.28 11.59 3.65 13.75 8.8-2.37 2.31-.86 6 .56 8.16A11.3 11.3 0 0 1 846 160l-.34-.86a4.89 4.89 0 0 0-2.07-.48 1 1 0 0 0-1 1.07 2.75 2.75 0 0 0 .35 1.15c-8.66 2.2-21.55 1.68-33.38 7.55l-2 .1-.06-1.53a3.52 3.52 0 0 0-3.12 1.91c-4.93.84-6.44 2.81-9 12.16a11.34 11.34 0 0 1-2.87 3.95l1.35.66c-.57 3.1-2.46 9-3.93 9s-.3-3.05-1.17-2.86c-1.59.37-1.57 3.59-2.18 6a10.85 10.85 0 0 1 1.09 4.18c-.63 1.93-1.2 5.18-2.22 5.23-1.46.07-.72-2.74-1.37-3.88-1.17 2.84-2.06 5.51-3 8l1.2.67c.66-1.35 1.37-1.82 2.7-1.6a214.81 214.81 0 0 0-5.75 22.08 31.73 31.73 0 0 1-9.51-.25l.5-1.63c-3.86-1.12-3.82-6.09-4.69-11.75a5.64 5.64 0 0 1-1.32-3c-.19-3.65 7-25.65 13.47-42.64l-11.37.58c-6.42.33-6.75 2.39-11.47 1.46-2.36-3.24-5.31-9.52-5.53-13.9a6.52 6.52 0 0 1 1.8-4.92c5.72.29 19.31.18 28.11-2 14.57-3.81 7.45-17.34 21-18zm-16.44 38.85l-1.32 2.7.93 1 1-2.68zM884.77 162.75a88 88 0 0 0-8.77 8.63l-1-1.38c-1.47 2.71-6.79 7.36-10.68 11.22a12.63 12.63 0 0 1-.86 3.11c-2.48 2.9-16.07 20.26-15.71 27.41.09 1.75.87 2.73 2.47 2.65 5.25-.27 17.17-4.38 25.85-6.14a4.87 4.87 0 0 1 4.45 1.24c-6.92 1.82-16.75 4.07-18.21 7.07 2.86 1.61 7.61.2 9.69-2.1 7.65-1.85 17.32-4.39 24.7-5.79l2.36.46 3.48-.62 1.66.94-7.47 1.55c-1.88.39-3.89 1.08-2.48 2.9l1.09 1.41c-1.28.65-17.22 6.29-26.69 9.84-1.57.67-2.52 2.18-1.59 3.15-3 .89-7.62 2.44-11 2.61-1.6.08-3-2.18-4.49-2.11-3.5.18-4.56-3.42-9.2-2.6-2.75-2.34-8.77-11.39-10-13.52a10.79 10.79 0 0 1-1.27-4.91l-.2-3.94c2.23-2.16 2.22-5.23 2.06-8.29l1.5.8c.94-1.66-.33-3.64.32-5.28 2.75-6.28 8.08-16.35 10-16.44s-.76 2.23 1.28 2.13c1.6-.08 4.28-7.82 5.88-7.9l1.75-.09a17 17 0 0 1-.94-4l1-.05c3.32-9.38 30.33-27.28 35.44-27.54 1.75-.09 5.33 1.34 7.58 2.39 2.29 4.71 6.56 8.29 5.85 14.32a56.66 56.66 0 0 0-17.85 8.87zm-41.93 17.63l-1.84 3.46 1.36 1 1.74-3.16zm.53-1.05l1.5.8 1.06-2.1c-1.19-.38-1.93-.03-2.57 1.3zm3.41 23.95l-.92 2.09.93 1.12 1.44-3.29zm5.5-9.78l-1.61 2.86c-.53 1.05-2 3.47-1.22 4.74l4.18-6.94zm5.7-8.62l-.8 1.5 1.07.82 1.09-1.52zm2-.1c2.91-3.22 2.88-3.8 2.85-4.38-1.46.07-2.7 1.6-4.2 3.58zm9.91 42.33l4.73-1.85c1.82 1.22.26 2.18-1.93 2.29a6.33 6.33 0 0 1-2.77-.45zm16.22-5.8c-2.69 1.75-5.38 3.49-7.86 3.62a4.66 4.66 0 0 1-2.06-.33c2.71-1.31 6.61-2.24 9.91-3.43v.15zm-5.24-13.91c5.78-1.32 11.85-2.8 16.2-3.31-.6 2.52-5.52 3.64-9.89 3.87a16.87 16.87 0 0 1-6.28-.57zm16.3 7.06l-1.55-1.68 3.91-.78 1.94.78zM976.92 192.4c-1 2.54-.28 8.93-3.19 12 2.1 1.06 1.12 4.77-.69 6.61 1 2.14 1.65 3.72-1.2 8-.12.59 1.31-.21 1.58-.52a48.92 48.92 0 0 1-2.24 13.42c-4.52.23-8.83-3.94-11.11-2.94 0-2.92-.5-4.07-2.54-4v-2a1.45 1.45 0 0 0 1.38-1.53 1.27 1.27 0 0 1-1.39-1.39c.12-3.37 1.65-7.69 2.31-12.11 1-.05 1.12 1.84 1.08 4 1-.05 2.32-6.11 2.44-9.48l-1.79-.64c0 2.34.14 5.55-1.65 4.91.33-2.06.51-7.19.86-9l2.64 2.94c-.24-1.74.47-2.22.07-4.39-8.33.13-29.74 13.07-36.07 17.92l-.63 1.93.67 1.72c-2.22 5.23-4.1 11.32-6.28 14.5l-9.39-3.47c-.67-4.5-7-6.07-5.62-9.95l-2.33.12c2.09-22.18 25.23-47 38-66.12a108 108 0 0 1 18.39-20.67c1-.93 5.13.32 5.28-2.46a30.51 30.51 0 0 1 8.37 3.67l-2.58 1c0 2.49 3.48-.47 4.24.08 5.63 4.39 3 12.42 6 16.51.18.72.53 13.28-1.59 14.7a4.55 4.55 0 0 0 .9.54 61.86 61.86 0 0 0-1.73 11.7c-.06 1.76 5.74 6.43 5.63 12.87-2.62.39-5.36 1.13-7.82 1.53zm-45.63 14a25.42 25.42 0 0 0-1.47 2.71l10.78-6.4c-1.96-1.34-6.6 2.12-9.31 3.71zm6-6.44c-1.14.5-2 .69-3 1.18l-1.62 2.57c.51-.31 3.81-1.64 4.58-3.71zm33-51.68c-2.76.29-9.05 8.79-14.9 17.43l-.77-.69c.38-1.19.77-2.09.16-2.64-2.2 2.74-3.15 4.11-1.7 6.81q-3.06 4.54-5.72 8.19c-2.45 3.49-6.07 10-9.18 14.94 2.83-1.9 4.86-5.07 10.56-7.85 5-2.45 8-3.19 13.2-4.91.24-3.81 1.56-6.66 2-8.73l2.59 2.06c1.52-4.61 3-16.52 4.23-23.17zm-23 50.59v-.15c-3.2.31-4.5.67-5 3 1.3-.72 3.44-1.72 4.99-2.84zM960.86 213l-.49 1.93h.88l.46-2.36zm2.73-35.37c-.49 1.78.53 1.73 1.54 1.53l.06-1.61zm1.19-2.4l-.59-.12-.5 1.63 1.31-.07zM968.1 157l-1.31.07 1-4 1.28-.65zM1110.58 161.61c-3.26-.86-4.37 6.07-5 7.71l-2.33.12c.09 1.75 2.15 1.94 3.48 2.31-.65 1.64-2.23 2.16-4 2.1l-3.43 13 1.71-1 2.59-9.49 1 2.29-1.67 7.39c-.6 2.66-1.8 4.77-3.26 4.84-2 .1-1.47 2.71-2 4.63l-1.09-1.26-.83.92c.8 1.42 2.36 3.24 2.45 5 .17 3.35-3.15 9.81-5.34 15.62l-2.59-2.06a2.94 2.94 0 0 1-1.14.64 4.5 4.5 0 0 1-1.45.22c-5.54.28-12.43-8.72-12.7-14-.3-6 10.56-28 15.22-39.81l-.5-1.14c-4.09 2.84-14.28 6.72-14.48 11.26l-24.69 23.33c-2.65-3.23-4.27-.66-7.34-.5-3.79.19-6.34-6.84-8-11.58 1.82-7.26 5-16.34 8.1-24.68l-1.61-2.84c-5.59 5.11-10.6 12.82-14.36 19.44-5.62 10.23-13.15 26-18.84 37.65-1.49-.51-.45-3 .47-5.14-1.63-.36-2.67 2.18-3.55 5a11.94 11.94 0 0 0 .56 8.16 3.58 3.58 0 0 1-2.29 1c-6 .3-14.83-9.92-15-13.12-.18-3.5 11.08-23.52 17.25-34.36 7-12.49 13.83-24.1 23.36-32 2.55-4.37 8.1-13.13 13.35-13.4 8.17-.42 11.6 9.64 15.37 17.64a24.83 24.83 0 0 0 1.81 12.63c4.5-3.45 10.08-8.7 14.61-11.56 1-.64 2.35.17 3.14 1.3a3.41 3.41 0 0 0 1.1-4.15c7.48-5.21 17-10.66 20.21-10.83 2.77-.14 6.4 2.16 9.58 4.34 2.78 5.71 5.79 10.38 6 15.19.26 4.3-1.2 9.93-3.87 9.19zm-100.44 40.06l-1.46 2.85.92.83 1.45-3.14zm.65-1.64l.91.68c.65-1.5 1.35-2.12.3-2.79zm84.75-12.22c0 .73.22 1.45.23 1.74 1.12-.93 1.71-3.74.37-4.26a5 5 0 0 0-.6 2.53zm6.47-16.56h-.15c-1.89 3-4.47 7-4.24 11.47a14.37 14.37 0 0 0 .42 2.46h.15zm1.92-8.28l-1.37 4.6c1.54-1.25 2.78-2.77 2.31-3.48zm1.84-1.12l1.52-4.61c-2 .1-2.09 2-3.12 4.69zm2.57 7.32l-1.6.08a7.68 7.68 0 0 1 2.62-3.06zM1178 165l-1.22-1c-9.62 6.34-20 14.76-24.67 12.08-1.6 3-4.52 11.78-5.25 11.82s-.48-3.78-1.95-.92-4.51 9-4 13.22c0 .87 2.3-.7 2.06.19l-5.59 19.44a42.08 42.08 0 0 0-1 6.77c-1.31.07-9.48-2.44-11.67-5.25-2.51-3.38-3.5-8.45-3.65-11.36 3.93-14.67 13.56-40.75 20.58-58.06a32.3 32.3 0 0 1-5.8-4.82 12.37 12.37 0 0 0 1.93-5.21l-3.69-.69a13.19 13.19 0 0 1 3.77-3.41l-.12-2.33c13.9.17 11.57-16.82 17.11-17.1a9.71 9.71 0 0 1 3.24.42c2.22.62 4.18 1.69 6.67 1.85 1.32 2.86 2.91 5.41 3.65 8.59a102.76 102.76 0 0 1 14.35.44c7.79.77 12.6 3.45 13 11.76.58 10.25-6.92 15.17-17.75 23.57zm-34.12 33.17c-.58 0-1.41.95-1.87.53.33-2.06 1.75-5.79 2.61-6.13 1.99-.93-.11 3.71-.74 5.64zm20.22-30.71l-1.9.1c-1.9.1-3.4 2.22-3.58 4.28a54.09 54.09 0 0 0 10.4-5.35c-1.85-1.77-2.59.9-4.92 1.02zm4.26-2.56c1.17-.06 1.39 1.39 2.52.6l2.4-1.58c-.78-.64-3.85-.78-4.93 1.08zm6.12-3.24c-.56.47.66 1.43 2.06.33 2.83-1.9 7.95-4.64 6.7-6.19zm11.29-7.89c-.71.47-1.43.66-1.68 1.55-.38 1.19 3.22.13 3.14-1.48-.02-.38-.76-.49-1.46-.01z"/></svg>