<svg id="Layer_1" data-name="Layer 1" xmlns="http://www.w3.org/2000/svg" viewBox="0 0 600 600"><defs><style>.cls-1{fill:#fafcf8}.cls-2{fill:#1595a3}.cls-3{fill:#225378}.cls-4{fill:#b3e1e8}.cls-5{fill:#ea8024}</style></defs><title>refocus-habits</title><circle class="cls-1" cx="301.24" cy="301.24" r="298.68" transform="matrix(.26 -.97 .97 .26 -67.7 514.26)"/><path class="cls-2" d="M301.07 14.94a286.53 286.53 0 1 1-91.66 15.18 287 287 0 0 1 91.66-15.18m0-12.45C169.19 2.5 48.5 90.5 12.74 223.94-30 383.28 64.6 547.05 223.94 589.75A299 299 0 0 0 301.43 600C433.3 600 554 512 589.75 378.55c42.69-159.34-51.86-323.11-211.2-365.81a299 299 0 0 0-77.49-10.25z"/><path class="cls-3" d="M298.44 11.67a286.53 286.53 0 1 1-91.66 15.18 287 287 0 0 1 91.66-15.18m0-12.45c-131.87 0-252.56 88-288.32 221.45C-32.59 380 62 543.79 221.31 586.48a299 299 0 0 0 77.49 10.25c131.87 0 252.56-88 288.32-221.45 42.69-159.34-51.87-323.11-211.2-365.81a299 299 0 0 0-77.5-10.25z"/><path class="cls-2" d="M307.07 131.5c-40.51 0-73.72 5.5-96.11 12s-58.39 22.5-84.89 53-35 65.5-27.5 96.5 23.33 49.3 49 57c25 7.5 36.5 4.5 36.5 4.5s7 6.5 4.5 24.5 17.5 34.5 42 39 35 5 46 2.5 16-5.5 16-5.5 6.58 14 17 17 21.46 16.5 30.46 26.5 21 24.5 23.5 29.5 15.5 0 20-3.5 6.67-4.5 3.67-11.83-11.63-19.34-12.63-22.67a11.54 11.54 0 0 1 0-6.33s18.67-2.33 39.33-3.33 29.67-11 34.67-17.33 9.33-22.33 9.33-22.33 21.33 2 31.33-7.67a88.66 88.66 0 0 0 26.33-66c-1-33.67-15.33-77.33-46.67-114.33s-76.65-81.18-161.82-81.18z"/><path class="cls-4" d="M306.07 129.5c-40.51 0-73.72 5.5-96.11 12s-58.39 22.5-84.89 53-35 65.5-27.5 96.5 23.33 49.3 49 57c25 7.5 36.5 4.5 36.5 4.5s7 6.5 4.5 24.5 17.5 34.5 42 39 35 5 46 2.5 16-5.5 16-5.5 6.58 14 17 17 21.46 16.5 30.46 26.5 21 24.5 23.5 29.5 15.5 0 20-3.5 6.67-4.5 3.67-11.83-11.63-19.34-12.63-22.67a11.54 11.54 0 0 1 0-6.33s18.67-2.33 39.33-3.33 29.67-11 34.67-17.33 9.33-22.33 9.33-22.33 21.33 2 31.33-7.67a88.66 88.66 0 0 0 26.33-66c-1-33.67-15.33-77.33-46.67-114.33s-76.65-81.18-161.82-81.18z"/><path class="cls-2" d="M351.43 139.27a192.16 192.16 0 0 0-23.25 7.63c2.25-5.37-.1-12.78-7.25-12.37a80.34 80.34 0 0 0-9.77 1.18 8.31 8.31 0 0 0-5.84-6 27.54 27.54 0 0 0-32.12 13l-.23.44c-7.52-3.27-16.94-2-18.36 6.06a9.1 9.1 0 0 0-3.28-1.69 9.87 9.87 0 0 0-3.48-.31 8.35 8.35 0 0 0-.3-2.29c-1.14-4.15-6.12-7.52-10.46-5.94a198.5 198.5 0 0 1-24 7.11c-6.93 1.59-8.52 12.26-2 15.54 5.23 2.64 10.53 5.15 16.26 6.21a11.82 11.82 0 0 0-3.14 2.19c-10.58 10.6 5.74 23 12.62 30.14l.05-.07a21.11 21.11 0 0 0 1.67 1.4c7.93 5.92 16.78-6.63 10.3-13.35l-.61-.64a4 4 0 0 1-.27-1.23 22.65 22.65 0 0 1 .36-4.44 6.65 6.65 0 0 0-1.76-5.22 29.46 29.46 0 0 0 2.93-2.95 54.43 54.43 0 0 0 6.15-8.52q.38 5.48.54 11a13.6 13.6 0 0 0 .11 6.21v4.25c-.06 6.95 9.17 11.41 14.22 6.31a17.21 17.21 0 0 0 13-7.41l.11-.16a23.66 23.66 0 0 1-.09 3 9.68 9.68 0 0 0-.1 2.16l-6.85 3.17-12.38 5.72a43 43 0 0 0-12.06 5.58c-4.6 3.07-4.92 7.87-2.87 11.34-3.13 9-.92 22 1 29.75 1.75 7.25 5.58 13.94 7.12 21.17a.3.3 0 0 0 0 .14 5.55 5.55 0 0 0-.73-.62 34.9 34.9 0 0 1-3-4.79 8 8 0 0 0-3.82-3.27c.48-7.87-4.37-14-12.86-14.11-14.64-.26-30.08 5.29-42.58 12.51l-.42.27c-8-1.56-16.06 2.72-19.58 10.73a21.28 21.28 0 0 0-1.58 5.7 16.09 16.09 0 0 0-12.56 6.66c-5.64 8.13-1.37 17.5 6.15 22.52a50 50 0 0 0 11.17 5.32 24.13 24.13 0 0 1-14.59-1.47 8.4 8.4 0 0 0-1.48-.68 24.37 24.37 0 0 1-2.61-1.52 52 52 0 0 1-2.81-4.63c-2.15-3.31-4.7-6.5-8.17-8.44a9.94 9.94 0 0 0-2.13-1.07 110.9 110.9 0 0 1-27-14.14c-5.16-3.64-13.19 1.18-12.79 7.34.5 7.62-.34 17.27 2.83 24.35 3.26 7.3 12.16 11.11 19.23 6.54a8.66 8.66 0 0 0 3-11.63l-.09-.16q1.68.75 3.39 1.46c1.32 9.56 11.79 15.65 21.17 17.85 16 6.93 36 3.8 48.35-10.91a9.91 9.91 0 0 0 2.06-4.08c2.64-4.31 1.52-10.66-4.71-12.56-3.32-1-5.26-4.64-7.12-7.34-1.23-1.78-2.5-3.53-3.88-5.16-1.12-3.3-1.9-7.2.24-8.38 0 .06.07.13.4.18.57.09 2.13 1.82 2.33 2a74.32 74.32 0 0 1 5.06 6.31c3.59 4.48 8.2 8.39 14 9.33 4.92.79 8.62-1.25 10.46-5.94a75.06 75.06 0 0 0 4.91-23.22l.43-.08c.78-.14 2.44-.54 4.07-.84l-.53 3-1.61 9.37c-1 5.42-2.38 11.24 1.53 15.89s10.19 4.67 15.9 4.31a70.85 70.85 0 0 0 18.79-3.53c4.92-1.72 9.77-4.37 11.66-9.55a13.79 13.79 0 0 0 .82-4.08c3-1.82 4.92-5.09 3.47-9a160 160 0 0 1-8.62-35.36 49.52 49.52 0 0 0 12.25-24.09c0-.17 0-.34.07-.52l6.43-3c8.16-3.77 20.53-8.37 19.28-19.61-.38-3.43-2.34-7.55-6.24-8.2a24.3 24.3 0 0 0-5.77-.28c-1.46-5.37-4.8-9.84-11.33-11.69a14.88 14.88 0 0 0-9.79.53 8.36 8.36 0 0 0-4.95.81c-.28.14-.56.26-.83.37q-.18-2.89-.43-5.77a12.42 12.42 0 0 0 12.52-4c1.85-2.14 2.49-4.8 3.89-7 .78 5.43 7.69 8.06 12.85 5.88.7-.3 1.41-.57 2.13-.84-1.36 2.8-2.62 5.67-3.75 8.66-2.72 7.23 6.48 13 12.49 9.6a176 176 0 0 1 43.53-17.63c10.64-2.74 6.1-19.15-4.47-16.41z"/><path class="cls-2" d="M237.65 209.25a35 35 0 0 0-8.82-9.47 32.8 32.8 0 0 0-10-6.7 37.2 37.2 0 0 0-6.43-2.1 17.42 17.42 0 0 0 4.16-6.12c4.86-12.49-9.88-24.86-21.19-17-5.76 4-4.28 11.5-.1 14.69l-1.8 1.11-17.26 10.6c-5.33 3.27-5.69 11.49 0 14.68 4.78 2.68 9.18 2.32 13.57 1.23 5.64 1.83 11.34 3.47 17.1 4.89 3.58.88 7.27 1.47 10.8 2.52.63.19 1.44.4 2.18.69a6.7 6.7 0 0 0-3.09 1.16l-1.05.74a18.06 18.06 0 0 1-13.47 3.19c-6.76-1.17-11.22-6.87-18.71-5-5.4 1.34-8.61 5.67-10.34 10.7-.67 1.93-1 3.93-1.6 5.89-.15.52-.57 1.77-.69 2.18 0-.14 0-.11-.12.08a7.6 7.6 0 0 0-3.67 4.39l-.07.06a28.19 28.19 0 0 0-1.49-3.27 25.54 25.54 0 0 0 1.25-3.11c1.31-4-1.54-9.78-5.94-10.46a12.79 12.79 0 0 1-8.54-4.48c-3.9-4.37-9.92-2.61-12.86 1.27a8.45 8.45 0 0 0-7.67 1c5.32-6.76 14.2-7.62 21.58-2.31 3.73 2.68 9.47.65 11.63-3 2.5-4.28.69-8.94-3-11.63a31.21 31.21 0 0 0-4.21-2.54c9.46-5.59 18.65-12.56 23.12-22.88a11 11 0 0 0 .44-6.95 189.87 189.87 0 0 1 16.47-9.6c9.74-5 1.15-19.66-8.58-14.68-13.86 7.09-26.69 16.38-39.4 25.57a62 62 0 0 0-13.66 9.86c-3.55 3.37-2.81 8.33-.16 11.56-8.42 5.21-16.25 11.58-20.6 20.69-4 8.36 5.78 15.84 12 11.67-3.16 4.82-6.34 9.64-9.32 14.58-1.23 2-2.64 4.27-4 6.59a42 42 0 0 1 4.57-10.47c5.69-9.38-9-17.93-14.68-8.58a57.22 57.22 0 0 0-8.14 36c.51 4.56 3.54 8.5 8.5 8.5a9.32 9.32 0 0 0 7.64-4.56 19 19 0 0 0 8.53 5.75c2.1.79 4.22 1.55 6.34 2.3 5 6.84 14.73 8.38 22.31 4.62 6.2-3.07 4.84-11 .1-14.41.07-.25.11-.5.16-.75a21.74 21.74 0 0 0 7 1.52 13.72 13.72 0 0 0 11.56 1.08c7.24-2.3 10.4-9.43 10.85-16.45.55-.48 1.1-1 1.67-1.4a102.25 102.25 0 0 0 43.12-13.27c4.26-1.67 9.07-3.08 12.89-5.5 8.47-5.4 5.66-17.56 1.12-24.67zm-90.16 39.62c-.72 0-1.43.08-2.15.15-6.27.63-12.31 3.59-14.3 10a12.44 12.44 0 0 0-.5 2.64c-1-.3-2-.62-2.94-1 .64-1.32 1.31-2.62 2-3.91 1.42-2.63 3-5.19 4.53-7.73 2.75-4.43 5.62-8.79 8.48-13.15a64 64 0 0 1 6.62 11.15c.07.16.18.6.3 1.1a20.47 20.47 0 0 0-2.04.75zM501.79 317.84c-4.84-4.78-12-2.13-14.21 3.75a14 14 0 0 1-1.41 2.79 34.83 34.83 0 0 0 .67-6.6 7.69 7.69 0 0 0-3.5-6.88l.64-2.53a8.44 8.44 0 0 0 3.8-2.16 10.11 10.11 0 0 0 2.46-11c-1.19-3.38-3.48-4.72-6-6.3-.7-2.51-.55-6.29-.83-8.47 13.32-10.84 10.17-41.88-10.43-34.69a34.17 34.17 0 0 0-9.56 5.13c.1-.17.21-.32.31-.5 2.29-4 2.72-8.8 8.24-8.9 8.68-.15 11.24-11.26 4.29-15.84l-14.93-9.84c-4.62-3-9.24-6.67-14.88-7.41a15 15 0 0 0-4.46.08 17 17 0 0 0-12.33-5.65 37.43 37.43 0 0 0 7-.54c6.18-1.06 8.32-10.22 3.75-14.21l-17-14.85c-3.7-3.23-11-3.62-13.35 1.72l-.21.49a9.42 9.42 0 0 0-2.06.21c.07-4.94-2.85-8.76-8.31-9.15l-8.69-.62a8.24 8.24 0 0 0 4.95-9.9c-2.88-12-18.3-13.08-26.49-6-3.92 3.41-5.83 9.52-10.29 12.16a11.5 11.5 0 0 1-3.34 1.29 26.55 26.55 0 0 0-13.54.44 8.2 8.2 0 0 0-5.08 4q-5.36.83-10.66 2c-3.92.83-5.86 4.59-6.24 8.2a19.06 19.06 0 0 0 5.91 15.37 18.58 18.58 0 0 0 7.05 4.19l.73.22a18 18 0 0 1-5.51 1.9c-4.67 1.07-9.51 1.23-14.25 1.88-10.57 1.46-20.62 5.9-25.73 15.85-4.24 8.27-4.82 17.6-4.33 26.74a18.77 18.77 0 0 0-.71 11.28 18.32 18.32 0 0 0 3 6.28 11.64 11.64 0 0 0 .86 1c-8.23 6.31-.56 19.07 9.09 14.3a23.7 23.7 0 0 0 5.38-3.65q5.38-3.65 10.74-7.31c5.05-3.46 9.73-7.4 9-14.19a10.8 10.8 0 0 0-2.77-6.37l1.2-8.42a23.23 23.23 0 0 1 1.24-3.83 24.76 24.76 0 0 1 2.18-3.54c-.31 1.8-.62 3.79-.64 4-.53 6.67 2.73 12.94 7.15 17.75 6.53 7.09 17 9.73 25.51 6.27 4.4 1.51 9.19-.72 11-5.65l.66-1.85a7.42 7.42 0 0 0 3.52-3.45 44.72 44.72 0 0 0 4.2-12c2.68-7.1 6.31-13.94 12.69-18a14.92 14.92 0 0 1 7.35-2.47c-5.81 3.16-10.92 7.33-13.9 13.54-2.78 5.8-2.93 11.83-3.91 18.06-.51 3.21-1.31 7.64-5 8.4a7.13 7.13 0 0 0-6 6.21c-3.46 3.06-4 9.15-.44 12.52a15.43 15.43 0 0 1 3.79 17.09c-.4.45-.81.89-1.23 1.31a15.62 15.62 0 0 1-1.75 1.59v-1.42a17.53 17.53 0 0 0-1.71-6.56 32.3 32.3 0 0 0-11-13.55c-10.49-6.69-23.13-5-34-.31a88.9 88.9 0 0 0-8.77 4.52 78.37 78.37 0 0 0-20.7 10.12l-.12.1c-1 .28-2.06.54-3.12.74-7.33 1.37-8.07 12.13-2 15.54a73.91 73.91 0 0 0 63.07 4.4q2.1-.13 4.2-.31a12.87 12.87 0 0 0 1.44 1.55 16.61 16.61 0 0 0 3.07 2.19 200.43 200.43 0 0 0-34.61 8.3c-8.58 2.89-7.82 17.43 2.26 16.7 7.79-.56 14.46 3.29 21.21 6.67l.36.18a7.51 7.51 0 0 0-3.35 2.46 17.94 17.94 0 0 0-2.53-2.88c-5.15-4.68-14.49-7-20.85-3.31-2.46 1.44-3.67 3.87-4.41 6.48v-.45a38.5 38.5 0 0 0-1.84-10.41c-4.36-12.87-15-23.48-28.22-27.11-3-.84-6.87-1.81-10-1-4 1.09-6.81 5.47-8.72 8.9A32.46 32.46 0 0 0 262 326.1a15.43 15.43 0 0 0 1 13.63 8.49 8.49 0 0 0 10.61 3.48c4.18-1.84 5.55-5.7 4.92-10v-.12a1.85 1.85 0 0 1 .48.58 4.36 4.36 0 0 1 .37 2c-.08 3.44-3.28 6-5.24 8.39-2.93 3.63-4 8.38-1.92 12.7a12.76 12.76 0 0 0 3.21 4.15 57.28 57.28 0 0 1-5.84 1.93l-.61-1.7c-2.55-7.15-11.23-8.14-15.54-2-1.9 2.69-4.08 5.43-5.92 8.32-1.09-2.19-2.13-5.07-1.2-6.9s4.16-2.18 6-2.91c4.13-1.62 7.83-4 9.88-8.06 2.33-4.68.58-11.18-5.08-12.49-.72-.17-1.44-.31-2.16-.44a56 56 0 0 0 3.93-8 53 53 0 0 0 3.79-22.05 8.72 8.72 0 0 0-8.5-8.5c-7.55-.5-14.46 1.43-20.92 4.65a8.15 8.15 0 0 0-6.39 3.66c-7.77 5-14.9 11.45-21.73 17-5 4.12-13.57 10.42-15.32 17.68a11.73 11.73 0 0 0-1.27 2.42c-3.7 9.52-.09 23.91 9.3 28.52a9.57 9.57 0 0 0 1.9 3.27 23.34 23.34 0 0 0 6.48 5.17 8 8 0 0 0-6.65 4c-2.15 3.68-1.13 9.68 3 11.63 6.09 2.85 12.75 6.27 19.37 7.64 8.33 1.73 15.41-4.9 13.42-13.4-1.66-7.07-6.24-13.65-11.89-19a22 22 0 0 0-2.16-8.3c-2.2-4-5.39-4.6-9.33-5.88a9.47 9.47 0 0 1-5.74-4.87c.91-.39 1.81-.82 2.71-1.24.54-.25 1.22-.7 1.8-.9 4 3.76 10 1.78 12.85-2.21 6.69-9.28 15.87-19.12 18.39-30.64.94-.41 1.91-.77 2.88-1.09a34.65 34.65 0 0 1-3.63 10c-3.53 6.38-10.74 11-10.44 18.94a8.86 8.86 0 0 0 1.75 5 20.69 20.69 0 0 0-3.47 11.42c-.18 12.54 8.42 24.16 19.12 29.94l.37.18c-1.69.1-3.39.13-5.1.11-10.94-.13-10.95 16.87 0 17 1.36 0 3 0 4.76-.12a8.28 8.28 0 0 0 5 1.49l16.67-.1c5 0 10.6.46 15.48-1.06a20.84 20.84 0 0 0 10.59-8l.17-.27c5.72-2 11.4-4.08 17.07-6.24 3.55-1.35 6.24-4.2 6.24-8.2 0-3.42-2.56-7.51-6.14-8.17l-.1-.17a36.52 36.52 0 0 0-1.82-2.76 12.28 12.28 0 0 0-6.54-5.07c-6.07-1.67-12.58 2.85-16.81 6.68a7.44 7.44 0 0 0-2.69 5.88c-.47 1.4-.8 2.85-1.21 4.25q-2.13.67-4.28 1.29c-.12-.54-.26-1.09-.45-1.66a12.91 12.91 0 0 0-6.3-7.35c8.21-2.39 17-5.74 22.3-11.88a23.59 23.59 0 0 0 4.14-7c3.16 6.74 9.87 11.81 17.8 9.83 4.74-1.18 8.3-4.84 10.33-9.14a9.12 9.12 0 0 0 8.62 7.64 22 22 0 0 0 14.88-5.91 29.05 29.05 0 0 0 12.7 7.23c-5.18-1.33-10.13-.73-15.71.67-6.45 1.62-12 1.72-18.34-.54-10.33-3.67-14.77 12.75-4.52 16.39a41.42 41.42 0 0 0 18.53 2.25 68.68 68.68 0 0 0 8.85-1.71c1.62-.4 5-1.71 6.73-.93 4.18 1.89 9.14 1.2 11.63-3 2.13-3.64 1.16-9.73-3-11.63a25.71 25.71 0 0 0-2.86-1.09c11.29 3.13 23.18 5 34.66 7.28 7.46 1.5 16.71 1.63 21.81-4.36 3.45 1.08 7.35.2 9.31-3.72a44 44 0 0 0 4.78-18.16c3 2.9 7.54 4 11.74 3.5a29.55 29.55 0 0 0 4.78-1 8.45 8.45 0 0 0 1.87.36 25.81 25.81 0 0 0 18-5.24v.05a12.72 12.72 0 0 0 2.85 2.28c-3.22 2.66-6.88 3.63-11.65 3.82a53.08 53.08 0 0 0-10.53 1 27.62 27.62 0 0 0-4.14 1.45c-.69.28-1.37.59-2 .91-4.5-2-10 1.2-11.35 5.71l-3.15 10.53a8.61 8.61 0 0 0 3.91 9.6 19.3 19.3 0 0 0 7.26 2.35c1.5 2.93 4.26 5 8.65 5.71 13.67 2.23 27-2.05 37.37-11.11 6.67-5.85 0-14.82-7.08-14.2a29.23 29.23 0 0 0 2.47-1.67c5.14.73 11-1.59 13.5-6.55a14.15 14.15 0 0 0-1.65-14.55 16.61 16.61 0 0 0-2.44-2.58 16.22 16.22 0 0 1 3.34.35A8.64 8.64 0 0 0 508.2 334a20.92 20.92 0 0 0-6.41-16.16zm-196.38-60.2c2.54-.09 1.2.74 0 0zm76-95.19l-.37-.31c.62-2.49.33.8.34.31zm7.7 20.78a14.09 14.09 0 0 0-2.53 4.58c-10.68.26-20.46 2.35-27.22 11.35a6.51 6.51 0 0 0-1.31 3.7 8.69 8.69 0 0 0-1.09 2.65 31.71 31.71 0 0 0-14.37 35 7.8 7.8 0 0 1-3.09-5.39c-.18-3.14 1.51-6.32 1.27-9.6-.34-4.73-3-6.86-5.66-9.86l-.1-.19c9.11-2.74 17.74-9.37 17.85-19.7a13.67 13.67 0 0 0-6.56-12.09l.49-.06c2.9-.29 6.74-1 10.19-1a8.61 8.61 0 0 1 .78.93c4.5 6.29 12.59 4.87 15.49-1.93l16 1.15zm47.7 59.84c-.06-2.5-.22-5-.37-7.51a26.05 26.05 0 0 0 1.76 2.21c5.63 6.27 15.44.12 14.38-7.37l1.82 1.21.38.25a22.42 22.42 0 0 0-3 4 32.17 32.17 0 0 0-1.9 4.19l-.42 1v.09a8.09 8.09 0 0 0-7.24 6c-1.09 4 1.36 9.82 5.94 10.46a15.94 15.94 0 0 0 10-1.52c-1.78 2.18-3.39 4.5-5.34 6.54-6.08 6.33-12.72-3.23-16.12-8-.14-.19-.28-.37-.43-.55a78 78 0 0 0 .51-11zm-38.2 117.28c-2.52-.62-5-1.32-7.39-1.82-6.1-1.27-12.22-2.45-18.3-3.8l-7.19-5.82a29.71 29.71 0 0 0 4.2.17c4.89-.17 9.39-1.69 14-3.2 5.08-1.68 7.71-1.23 12.52.78.74.31 1.49.6 2.24.87-3.63 3.07-3.47 9.47-.11 12.83zm62.21-35.17c-.35.65-.71 1.3-1.09 1.94.28-.75.55-1.5.81-2.25 2.73-8 4.2-16.34 5.63-24.65 1.84-10.71-12.75-15-16.39-4.52-.66 1.91-1.35 3.93-2.15 5.91a11.07 11.07 0 0 0-5.67-5.25 50.49 50.49 0 0 1-22.63-17.75c-3.68-5.21-11.09-5.72-14.68 0a145.39 145.39 0 0 0-9.06 16.69c-2.55 5.58-5.85 11.8-6.41 18-1.28 14.2 14.25 17.15 25.1 18.09 8.31.73 17 1.17 25.13-.89-1.69 2.63-3.82 5.15-5.25 7.88a8.68 8.68 0 0 0-10.37-5.66 34.36 34.36 0 0 1-13 .59c-5-.78-9.2-3.16-13.95-4.72a25.94 25.94 0 0 0-15 .13c-4.35 1.21-8.61 3.56-13.22 3.38-4.86-.19-9.46-2.27-13.87-4.52q3.26-.57 6.54-1a8.66 8.66 0 0 0 2.77 1.13 21.9 21.9 0 0 0 20-5.13c5.55-4.79 1.12-14.82-6-14.51-1.56.07-3.11.16-4.66.26.92-.58 1.82-1.22 2.69-1.9a7.76 7.76 0 0 0 2.82-1c19.76-11.4 27.73-33.57 33.81-54.33 4.06-3.41 4.39-9.43 3.86-15.4l2.31-10.18a8.48 8.48 0 0 0-1.09-6.69 8.21 8.21 0 0 0 .17-1.66A31 31 0 0 0 410 196.2a33.25 33.25 0 0 0 19.34 6.67 8.68 8.68 0 0 0-8 6.24c-3.71 12.46-1.31 24.94-1.51 37.64-.18 11.4-5.34 25 5.47 33.45a12 12 0 0 0 2.39 1.46c5 5.79 12.12 9.74 20 8.94 9-.91 17-8.16 17.72-17.23.83 6.14 1.64 12.29 2.49 18.42a19.66 19.66 0 0 0 1.38 5.64c-2.54 9.27-3.99 19.23-8.49 27.75zm5.18 50.14l-.52.13a10.4 10.4 0 0 0 1.89-3.48 38.59 38.59 0 0 0 9.39-2.12 27.54 27.54 0 0 1-10.76 5.47z"/><path class="cls-2" d="M327.75 413.4a55.92 55.92 0 0 1-6.73-9.2c-1.53-2.6-3.06-5-6.19-5.88a12.3 12.3 0 0 0-9.47 1.46 8.1 8.1 0 0 0-3.45 3.67c-6 1.73-6.77 9.82-3 14a32.42 32.42 0 0 0 22.83 10.45c7.76.37 10.66-9.33 6.01-14.5zM362.88 389.53a56.75 56.75 0 0 0-27.18 5.67h-.3c-4.23 0-9 3.91-8.5 8.5.88 8.43 7.4 20 17.6 17.22 4.52-1.24 8.9-4.88 12.65-7.57 4.06-2.91 8-6 11.75-9.29 5.89-5.12.83-14.22-6.02-14.53z"/><path class="cls-2" d="M448.6 400.8c-.76-9.11-8.44-11.17-16-12.59l-25.52-4.77c-7.12-1.33-16.35-4.81-23.18-.93a13.58 13.58 0 0 0-6.57 9.61c-.62 3.28.2 6.81-.87 10-2.56 7.59-11.69 11.24-18.27 14.42a6.84 6.84 0 0 0-3 2.79l-3.6.17c-6.7.32-9.3 6.89-7.75 11.77a42.82 42.82 0 0 0-6.07-4c-9.63-5.2-18.22 9.47-8.58 14.68 8.76 4.73 16.4 14.36 22.22 22.3s9.91 21.1 22.35 16.93a11 11 0 0 0 6.7-14.19c-1.66-4.82-6.39-6.69-9-10.75-2.8-4.3-2.6-9.77-6.33-13.66s-8.46-4.36-13.33-3.89q-1.09-1.16-2.22-2.29a9.21 9.21 0 0 0 2 .12l51.17-2.52c14.77-.72 30.34-1.71 39.9-14.6 3.86-5.2 6.49-12.06 5.95-18.6zm-21 4.61a2.43 2.43 0 0 0-.9-.2 8 8 0 0 1 .39-.79c.38.07.86.2 1.38.34-.08.52-.35.94-.88.65zM179.73 331.17a27.3 27.3 0 0 0-12.45-3.77c-3.39-.32-7 0-10.22-1.13-4.11-1.44-7.66-4.29-11.76-5.86a21.41 21.41 0 0 0-14.51-.59c-10.34 3.42-5.91 19.84 4.52 16.39 3-1 5.37.62 8 2.1 3.36 1.85 6.73 3.78 10.48 4.71 5.44 1.35 12.48-.21 17.31 2.83 9.33 5.84 17.9-8.85 8.63-14.68z"/><path class="cls-1" d="M352.43 141.27a192.16 192.16 0 0 0-23.25 7.63c2.25-5.37-.1-12.78-7.25-12.37a80.34 80.34 0 0 0-9.77 1.18 8.31 8.31 0 0 0-5.84-6 27.54 27.54 0 0 0-32.12 13l-.23.44c-7.52-3.27-16.94-2-18.36 6.06a9.1 9.1 0 0 0-3.28-1.69 9.87 9.87 0 0 0-3.48-.31 8.35 8.35 0 0 0-.3-2.29c-1.14-4.15-6.12-7.52-10.46-5.94a198.5 198.5 0 0 1-24 7.11c-6.93 1.59-8.52 12.26-2 15.54 5.23 2.64 10.53 5.15 16.26 6.21a11.82 11.82 0 0 0-3.14 2.19c-10.58 10.6 5.74 23 12.62 30.14l.05-.07a21.11 21.11 0 0 0 1.67 1.4c7.93 5.92 16.78-6.63 10.3-13.35l-.61-.64a4 4 0 0 1-.27-1.23 22.65 22.65 0 0 1 .36-4.44 6.65 6.65 0 0 0-1.76-5.22 29.46 29.46 0 0 0 2.93-2.95 54.43 54.43 0 0 0 6.15-8.52q.38 5.48.54 11a13.6 13.6 0 0 0 .11 6.21v4.25c-.06 6.95 9.17 11.41 14.22 6.31a17.21 17.21 0 0 0 13-7.41l.11-.16a23.66 23.66 0 0 1-.09 3 9.68 9.68 0 0 0-.1 2.16l-6.85 3.17-12.38 5.72a43 43 0 0 0-12.06 5.58c-4.6 3.07-4.92 7.87-2.87 11.34-3.13 9-.92 22 1 29.75 1.75 7.25 5.58 13.94 7.12 21.17a.3.3 0 0 0 0 .14 5.55 5.55 0 0 0-.73-.62 34.9 34.9 0 0 1-3-4.79 8 8 0 0 0-3.82-3.27c.48-7.87-4.37-14-12.86-14.11-14.64-.26-30.08 5.29-42.58 12.51l-.42.27c-8-1.56-16.06 2.72-19.58 10.73a21.28 21.28 0 0 0-1.58 5.7 16.09 16.09 0 0 0-12.56 6.66c-5.64 8.13-1.37 17.5 6.15 22.52a50 50 0 0 0 11.17 5.32 24.13 24.13 0 0 1-14.59-1.47 8.4 8.4 0 0 0-1.48-.68 24.37 24.37 0 0 1-2.61-1.52 52 52 0 0 1-2.81-4.63c-2.15-3.31-4.7-6.5-8.17-8.44a9.94 9.94 0 0 0-2.13-1.07 110.9 110.9 0 0 1-27-14.14c-5.16-3.64-13.19 1.18-12.79 7.34.5 7.62-.34 17.27 2.83 24.35 3.26 7.3 12.16 11.11 19.23 6.54a8.66 8.66 0 0 0 3-11.63l-.09-.16q1.68.75 3.39 1.46c1.32 9.56 11.79 15.65 21.17 17.85 16 6.93 36 3.8 48.35-10.91a9.91 9.91 0 0 0 2.06-4.08c2.64-4.31 1.52-10.66-4.71-12.56-3.32-1-5.26-4.64-7.12-7.34-1.23-1.78-2.5-3.53-3.88-5.16-1.12-3.3-1.9-7.2.24-8.38 0 .06.07.13.4.18.57.09 2.13 1.82 2.33 2a74.32 74.32 0 0 1 5.06 6.31c3.59 4.48 8.2 8.39 14 9.33 4.92.79 8.62-1.25 10.46-5.94a75.06 75.06 0 0 0 4.91-23.22l.43-.08c.78-.14 2.44-.54 4.07-.84l-.53 3-1.61 9.37c-1 5.42-2.38 11.24 1.53 15.89s10.19 4.67 15.9 4.31a70.85 70.85 0 0 0 18.79-3.53c4.92-1.72 9.77-4.37 11.66-9.55a13.79 13.79 0 0 0 .82-4.08c3-1.82 4.92-5.09 3.47-9a160 160 0 0 1-8.62-35.36 49.52 49.52 0 0 0 12.25-24.09c0-.17 0-.34.07-.52l6.43-3c8.16-3.77 20.53-8.37 19.28-19.61-.38-3.43-2.34-7.55-6.24-8.2a24.3 24.3 0 0 0-5.77-.28c-1.46-5.37-4.8-9.84-11.33-11.69a14.88 14.88 0 0 0-9.79.53 8.36 8.36 0 0 0-4.95.81c-.28.14-.56.26-.83.37q-.18-2.89-.43-5.77a12.42 12.42 0 0 0 12.52-4c1.85-2.14 2.49-4.8 3.89-7 .78 5.43 7.69 8.06 12.85 5.88.7-.3 1.41-.57 2.13-.84-1.36 2.8-2.62 5.67-3.75 8.66-2.72 7.23 6.48 13 12.49 9.6a176 176 0 0 1 43.53-17.63c10.64-2.74 6.1-19.15-4.47-16.41z"/><path class="cls-1" d="M238.65 211.25a35 35 0 0 0-8.82-9.47 32.8 32.8 0 0 0-10-6.7 37.2 37.2 0 0 0-6.43-2.1 17.42 17.42 0 0 0 4.16-6.12c4.86-12.49-9.88-24.86-21.19-17-5.76 4-4.28 11.5-.1 14.69l-1.8 1.11-17.26 10.6c-5.33 3.27-5.69 11.49 0 14.68 4.78 2.68 9.18 2.32 13.57 1.23 5.64 1.83 11.34 3.47 17.1 4.89 3.58.88 7.27 1.47 10.8 2.52.63.19 1.44.4 2.18.69a6.7 6.7 0 0 0-3.09 1.16l-1.05.74a18.06 18.06 0 0 1-13.47 3.19c-6.76-1.17-11.22-6.87-18.71-5-5.4 1.34-8.61 5.67-10.34 10.7-.67 1.93-1 3.93-1.6 5.89-.15.52-.57 1.77-.69 2.18 0-.14 0-.11-.12.08a7.6 7.6 0 0 0-3.67 4.39l-.07.06a28.19 28.19 0 0 0-1.49-3.27 25.54 25.54 0 0 0 1.25-3.11c1.31-4-1.54-9.78-5.94-10.46a12.79 12.79 0 0 1-8.54-4.48c-3.9-4.37-9.92-2.61-12.86 1.27a8.45 8.45 0 0 0-7.67 1c5.32-6.76 14.2-7.62 21.58-2.31 3.73 2.68 9.47.65 11.63-3 2.5-4.28.69-8.94-3-11.63a31.21 31.21 0 0 0-4.21-2.54c9.46-5.59 18.65-12.56 23.12-22.88a11 11 0 0 0 .44-6.95 189.87 189.87 0 0 1 16.47-9.6c9.74-5 1.15-19.66-8.58-14.68-13.86 7.09-26.69 16.38-39.4 25.57a62 62 0 0 0-13.66 9.86c-3.55 3.37-2.81 8.33-.16 11.56-8.42 5.21-16.25 11.58-20.6 20.69-4 8.36 5.78 15.84 12 11.67-3.16 4.82-6.34 9.64-9.32 14.58-1.23 2-2.64 4.27-4 6.59a42 42 0 0 1 4.57-10.47c5.69-9.38-9-17.93-14.68-8.58a57.22 57.22 0 0 0-8.14 36c.51 4.56 3.54 8.5 8.5 8.5a9.32 9.32 0 0 0 7.64-4.56 19 19 0 0 0 8.53 5.75c2.1.79 4.22 1.55 6.34 2.3 5 6.84 14.73 8.38 22.31 4.62 6.2-3.07 4.84-11 .1-14.41.07-.25.11-.5.16-.75a21.74 21.74 0 0 0 7 1.52 13.72 13.72 0 0 0 11.56 1.08c7.24-2.3 10.4-9.43 10.85-16.45.55-.48 1.1-1 1.67-1.4a102.25 102.25 0 0 0 43.12-13.27c4.26-1.67 9.07-3.08 12.89-5.5 8.47-5.4 5.66-17.56 1.12-24.67zm-90.16 39.62c-.72 0-1.43.08-2.15.15-6.27.63-12.31 3.59-14.3 10a12.44 12.44 0 0 0-.5 2.64c-1-.3-2-.62-2.94-1 .64-1.32 1.31-2.62 2-3.91 1.42-2.63 3-5.19 4.53-7.73 2.75-4.43 5.62-8.79 8.48-13.15a64 64 0 0 1 6.62 11.15c.07.16.18.6.3 1.1a20.47 20.47 0 0 0-2.04.75zM502.79 319.84c-4.84-4.78-12-2.13-14.21 3.75a14 14 0 0 1-1.41 2.79 34.83 34.83 0 0 0 .67-6.6 7.69 7.69 0 0 0-3.5-6.88l.64-2.53a8.44 8.44 0 0 0 3.8-2.16 10.11 10.11 0 0 0 2.46-11c-1.19-3.38-3.48-4.72-6-6.3-.7-2.51-.55-6.29-.83-8.47 13.32-10.84 10.17-41.88-10.43-34.69a34.17 34.17 0 0 0-9.56 5.13c.1-.17.21-.32.31-.5 2.29-4 2.72-8.8 8.24-8.9 8.68-.15 11.24-11.26 4.29-15.84l-14.93-9.84c-4.62-3-9.24-6.67-14.88-7.41a15 15 0 0 0-4.46.08 17 17 0 0 0-12.33-5.65 37.43 37.43 0 0 0 7-.54c6.18-1.06 8.32-10.22 3.75-14.21l-17-14.85c-3.7-3.23-11-3.62-13.35 1.72l-.21.49a9.42 9.42 0 0 0-2.06.21c.07-4.94-2.85-8.76-8.31-9.15l-8.69-.62a8.24 8.24 0 0 0 4.95-9.9c-2.88-12-18.3-13.08-26.49-6-3.92 3.41-5.83 9.52-10.29 12.16a11.5 11.5 0 0 1-3.34 1.29 26.55 26.55 0 0 0-13.54.44 8.2 8.2 0 0 0-5.08 4q-5.36.83-10.66 2c-3.92.83-5.86 4.59-6.24 8.2a19.06 19.06 0 0 0 5.91 15.37 18.58 18.58 0 0 0 7.05 4.19l.73.22a18 18 0 0 1-5.51 1.9c-4.67 1.07-9.51 1.23-14.25 1.88-10.57 1.46-20.62 5.9-25.73 15.85-4.24 8.27-4.82 17.6-4.33 26.74a18.77 18.77 0 0 0-.71 11.28 18.32 18.32 0 0 0 3 6.28 11.64 11.64 0 0 0 .86 1c-8.23 6.31-.56 19.07 9.09 14.3a23.7 23.7 0 0 0 5.38-3.65q5.38-3.65 10.74-7.31c5.05-3.46 9.73-7.4 9-14.19a10.8 10.8 0 0 0-2.77-6.37l1.2-8.42a23.23 23.23 0 0 1 1.24-3.83 24.76 24.76 0 0 1 2.18-3.54c-.31 1.8-.62 3.79-.64 4-.53 6.67 2.73 12.94 7.15 17.75 6.53 7.09 17 9.73 25.51 6.27 4.4 1.51 9.19-.72 11-5.65l.66-1.85a7.42 7.42 0 0 0 3.52-3.45 44.72 44.72 0 0 0 4.2-12c2.68-7.1 6.31-13.94 12.69-18a14.92 14.92 0 0 1 7.35-2.47c-5.81 3.16-10.92 7.33-13.9 13.54-2.78 5.8-2.93 11.83-3.91 18.06-.51 3.21-1.31 7.64-5 8.4a7.13 7.13 0 0 0-6 6.21c-3.46 3.06-4 9.15-.44 12.52a15.43 15.43 0 0 1 3.79 17.09c-.4.45-.81.89-1.23 1.31a15.62 15.62 0 0 1-1.75 1.59v-1.42a17.53 17.53 0 0 0-1.71-6.56 32.3 32.3 0 0 0-11-13.55c-10.49-6.69-23.13-5-34-.31a88.9 88.9 0 0 0-8.77 4.52 78.37 78.37 0 0 0-20.7 10.12l-.12.1c-1 .28-2.06.54-3.12.74-7.33 1.37-8.07 12.13-2 15.54a73.91 73.91 0 0 0 63.07 4.4q2.1-.13 4.2-.31a12.87 12.87 0 0 0 1.44 1.55 16.61 16.61 0 0 0 3.07 2.19 200.43 200.43 0 0 0-34.61 8.3c-8.58 2.89-7.82 17.43 2.26 16.7 7.79-.56 14.46 3.29 21.21 6.67l.36.18a7.51 7.51 0 0 0-3.35 2.46 17.94 17.94 0 0 0-2.53-2.88c-5.15-4.68-14.49-7-20.85-3.31-2.46 1.44-3.67 3.87-4.41 6.48v-.45a38.5 38.5 0 0 0-1.84-10.41c-4.36-12.87-15-23.48-28.22-27.11-3-.84-6.87-1.81-10-1-4 1.09-6.81 5.47-8.72 8.9A32.46 32.46 0 0 0 263 328.1a15.43 15.43 0 0 0 1 13.63 8.49 8.49 0 0 0 10.61 3.48c4.18-1.84 5.55-5.7 4.92-10v-.12a1.85 1.85 0 0 1 .48.58 4.36 4.36 0 0 1 .37 2c-.08 3.44-3.28 6-5.24 8.39-2.93 3.63-4 8.38-1.92 12.7a12.76 12.76 0 0 0 3.21 4.15 57.28 57.28 0 0 1-5.84 1.93l-.61-1.7c-2.55-7.15-11.23-8.14-15.54-2-1.9 2.69-4.08 5.43-5.92 8.32-1.09-2.19-2.13-5.07-1.2-6.9s4.16-2.18 6-2.91c4.13-1.62 7.83-4 9.88-8.06 2.33-4.68.58-11.18-5.08-12.49-.72-.17-1.44-.31-2.16-.44a56 56 0 0 0 3.93-8 53 53 0 0 0 3.79-22.05 8.72 8.72 0 0 0-8.5-8.5c-7.55-.5-14.46 1.43-20.92 4.65a8.15 8.15 0 0 0-6.39 3.66c-7.77 5-14.9 11.45-21.73 17-5 4.12-13.57 10.42-15.32 17.68a11.73 11.73 0 0 0-1.27 2.42c-3.7 9.52-.09 23.91 9.3 28.52a9.57 9.57 0 0 0 1.9 3.27 23.34 23.34 0 0 0 6.48 5.17 8 8 0 0 0-6.65 4c-2.15 3.68-1.13 9.68 3 11.63 6.09 2.85 12.75 6.27 19.37 7.64 8.33 1.73 15.41-4.9 13.42-13.4-1.66-7.07-6.24-13.65-11.89-19a22 22 0 0 0-2.16-8.3c-2.2-4-5.39-4.6-9.33-5.88a9.47 9.47 0 0 1-5.74-4.87c.91-.39 1.81-.82 2.71-1.24.54-.25 1.22-.7 1.8-.9 4 3.76 10 1.78 12.85-2.21 6.69-9.28 15.87-19.12 18.39-30.64.94-.41 1.91-.77 2.88-1.09a34.65 34.65 0 0 1-3.63 10c-3.53 6.38-10.74 11-10.44 18.94a8.86 8.86 0 0 0 1.75 5 20.69 20.69 0 0 0-3.47 11.42c-.18 12.54 8.42 24.16 19.12 29.94l.37.18c-1.69.1-3.39.13-5.1.11-10.94-.13-10.95 16.87 0 17 1.36 0 3 0 4.76-.12a8.28 8.28 0 0 0 5 1.49l16.67-.1c5 0 10.6.46 15.48-1.06a20.84 20.84 0 0 0 10.59-8l.17-.27c5.72-2 11.4-4.08 17.07-6.24 3.55-1.35 6.24-4.2 6.24-8.2 0-3.42-2.56-7.51-6.14-8.17l-.1-.17a36.52 36.52 0 0 0-1.82-2.76 12.28 12.28 0 0 0-6.54-5.07c-6.07-1.67-12.58 2.85-16.81 6.68a7.44 7.44 0 0 0-2.69 5.88c-.47 1.4-.8 2.85-1.21 4.25q-2.13.67-4.28 1.29c-.12-.54-.26-1.09-.45-1.66a12.91 12.91 0 0 0-6.3-7.35c8.21-2.39 17-5.74 22.3-11.88a23.59 23.59 0 0 0 4.14-7c3.16 6.74 9.87 11.81 17.8 9.83 4.74-1.18 8.3-4.84 10.33-9.14a9.12 9.12 0 0 0 8.62 7.64 22 22 0 0 0 14.88-5.91 29.05 29.05 0 0 0 12.7 7.23c-5.18-1.33-10.13-.73-15.71.67-6.45 1.62-12 1.72-18.34-.54-10.33-3.67-14.77 12.75-4.52 16.39a41.42 41.42 0 0 0 18.53 2.25 68.68 68.68 0 0 0 8.85-1.71c1.62-.4 5-1.71 6.73-.93 4.18 1.89 9.14 1.2 11.63-3 2.13-3.64 1.16-9.73-3-11.63a25.71 25.71 0 0 0-2.86-1.09c11.29 3.13 23.18 5 34.66 7.28 7.46 1.5 16.71 1.63 21.81-4.36 3.45 1.08 7.35.2 9.31-3.72a44 44 0 0 0 4.78-18.16c3 2.9 7.54 4 11.74 3.5a29.55 29.55 0 0 0 4.78-1 8.45 8.45 0 0 0 1.87.36 25.81 25.81 0 0 0 18-5.24v.05a12.72 12.72 0 0 0 2.85 2.28c-3.22 2.66-6.88 3.63-11.65 3.82a53.08 53.08 0 0 0-10.53 1 27.62 27.62 0 0 0-4.14 1.45c-.69.28-1.37.59-2 .91-4.5-2-10 1.2-11.35 5.71l-3.15 10.53a8.61 8.61 0 0 0 3.91 9.6 19.3 19.3 0 0 0 7.26 2.35c1.5 2.93 4.26 5 8.65 5.71 13.67 2.23 27-2.05 37.37-11.11 6.67-5.85 0-14.82-7.08-14.2a29.23 29.23 0 0 0 2.47-1.67c5.14.73 11-1.59 13.5-6.55a14.15 14.15 0 0 0-1.65-14.55 16.61 16.61 0 0 0-2.44-2.58 16.22 16.22 0 0 1 3.34.35A8.64 8.64 0 0 0 509.2 336a20.92 20.92 0 0 0-6.41-16.16zm-196.38-60.2c2.54-.09 1.2.74 0 0zm76-95.19l-.37-.31c.62-2.49.33.8.34.31zm7.7 20.78a14.09 14.09 0 0 0-2.53 4.58c-10.68.26-20.46 2.35-27.22 11.35a6.51 6.51 0 0 0-1.31 3.7 8.69 8.69 0 0 0-1.09 2.65 31.71 31.71 0 0 0-14.37 35 7.8 7.8 0 0 1-3.09-5.39c-.18-3.14 1.51-6.32 1.27-9.6-.34-4.73-3-6.86-5.66-9.86l-.1-.19c9.11-2.74 17.74-9.37 17.85-19.7a13.67 13.67 0 0 0-6.56-12.09l.49-.06c2.9-.29 6.74-1 10.19-1a8.61 8.61 0 0 1 .78.93c4.5 6.29 12.59 4.87 15.49-1.93l16 1.15zm47.7 59.84c-.06-2.5-.22-5-.37-7.51a26.05 26.05 0 0 0 1.76 2.21c5.63 6.27 15.44.12 14.38-7.37l1.82 1.21.38.25a22.42 22.42 0 0 0-3 4 32.17 32.17 0 0 0-1.9 4.19l-.42 1v.09a8.09 8.09 0 0 0-7.24 6c-1.09 4 1.36 9.82 5.94 10.46a15.94 15.94 0 0 0 10-1.52c-1.78 2.18-3.39 4.5-5.34 6.54-6.08 6.33-12.72-3.23-16.12-8-.14-.19-.28-.37-.43-.55a78 78 0 0 0 .51-11zm-38.2 117.28c-2.52-.62-5-1.32-7.39-1.82-6.1-1.27-12.22-2.45-18.3-3.8l-7.19-5.82a29.71 29.71 0 0 0 4.2.17c4.89-.17 9.39-1.69 14-3.2 5.08-1.68 7.71-1.23 12.52.78.74.31 1.49.6 2.24.87-3.63 3.07-3.47 9.47-.11 12.83zm62.21-35.17c-.35.65-.71 1.3-1.09 1.94.28-.75.55-1.5.81-2.25 2.73-8 4.2-16.34 5.63-24.65 1.84-10.71-12.75-15-16.39-4.52-.66 1.91-1.35 3.93-2.15 5.91a11.07 11.07 0 0 0-5.67-5.25 50.49 50.49 0 0 1-22.63-17.75c-3.68-5.21-11.09-5.72-14.68 0a145.39 145.39 0 0 0-9.06 16.69c-2.55 5.58-5.85 11.8-6.41 18-1.28 14.2 14.25 17.15 25.1 18.09 8.31.73 17 1.17 25.13-.89-1.69 2.63-3.82 5.15-5.25 7.88a8.68 8.68 0 0 0-10.37-5.66 34.36 34.36 0 0 1-13 .59c-5-.78-9.2-3.16-13.95-4.72a25.94 25.94 0 0 0-15 .13c-4.35 1.21-8.61 3.56-13.22 3.38-4.86-.19-9.46-2.27-13.87-4.52q3.26-.57 6.54-1a8.66 8.66 0 0 0 2.77 1.13 21.9 21.9 0 0 0 20-5.13c5.55-4.79 1.12-14.82-6-14.51-1.56.07-3.11.16-4.66.26.92-.58 1.82-1.22 2.69-1.9a7.76 7.76 0 0 0 2.82-1c19.76-11.4 27.73-33.57 33.81-54.33 4.06-3.41 4.39-9.43 3.86-15.4l2.31-10.18a8.48 8.48 0 0 0-1.09-6.69 8.21 8.21 0 0 0 .17-1.66A31 31 0 0 0 411 198.2a33.25 33.25 0 0 0 19.34 6.67 8.68 8.68 0 0 0-8 6.24c-3.71 12.46-1.31 24.94-1.51 37.64-.18 11.4-5.34 25 5.47 33.45a12 12 0 0 0 2.39 1.46c5 5.79 12.12 9.74 20 8.94 9-.91 17-8.16 17.72-17.23.83 6.14 1.64 12.29 2.49 18.42a19.66 19.66 0 0 0 1.38 5.64c-2.54 9.27-3.99 19.23-8.49 27.75zm5.18 50.14l-.52.13a10.4 10.4 0 0 0 1.89-3.48 38.59 38.59 0 0 0 9.39-2.12 27.54 27.54 0 0 1-10.76 5.47z"/><path class="cls-1" d="M328.75 415.4a55.92 55.92 0 0 1-6.73-9.2c-1.53-2.6-3.06-5-6.19-5.88a12.3 12.3 0 0 0-9.47 1.46 8.1 8.1 0 0 0-3.45 3.67c-6 1.73-6.77 9.82-3 14a32.42 32.42 0 0 0 22.83 10.45c7.76.37 10.66-9.33 6.01-14.5zM363.88 391.53a56.75 56.75 0 0 0-27.18 5.67h-.3c-4.23 0-9 3.91-8.5 8.5.88 8.43 7.4 20 17.6 17.22 4.52-1.24 8.9-4.88 12.65-7.57 4.06-2.91 8-6 11.75-9.29 5.89-5.12.83-14.22-6.02-14.53z"/><path class="cls-1" d="M449.6 402.8c-.76-9.11-8.44-11.17-16-12.59l-25.52-4.77c-7.12-1.33-16.35-4.81-23.18-.93a13.58 13.58 0 0 0-6.57 9.61c-.62 3.28.2 6.81-.87 10-2.56 7.59-11.69 11.24-18.27 14.42a6.84 6.84 0 0 0-3 2.79l-3.6.17c-6.7.32-9.3 6.89-7.75 11.77a42.82 42.82 0 0 0-6.07-4c-9.63-5.2-18.22 9.47-8.58 14.68 8.76 4.73 16.4 14.36 22.22 22.3s9.91 21.1 22.35 16.93a11 11 0 0 0 6.7-14.19c-1.66-4.82-6.39-6.69-9-10.75-2.8-4.3-2.6-9.77-6.33-13.66s-8.46-4.36-13.33-3.89q-1.09-1.16-2.22-2.29a9.21 9.21 0 0 0 2 .12l51.17-2.52c14.77-.72 30.34-1.71 39.9-14.6 3.86-5.2 6.49-12.06 5.95-18.6zm-21 4.61a2.43 2.43 0 0 0-.9-.2 8 8 0 0 1 .39-.79c.38.07.86.2 1.38.34-.08.52-.35.94-.88.65zM180.73 333.17a27.3 27.3 0 0 0-12.45-3.77c-3.39-.32-7 0-10.22-1.13-4.11-1.44-7.66-4.29-11.76-5.86a21.41 21.41 0 0 0-14.51-.59c-10.34 3.42-5.91 19.84 4.52 16.39 3-1 5.37.62 8 2.1 3.36 1.85 6.73 3.78 10.48 4.71 5.44 1.35 12.48-.21 17.31 2.83 9.33 5.84 17.9-8.85 8.63-14.68z"/><path class="cls-2" d="M383.79 327.39l-22.45-22.44L222.29 444l-70.57-70.58-22.45 22.44 93.02 93.03 22.45-22.45 139.05-139.05z"/><path class="cls-5" d="M382.79 325.39l-22.45-22.44L221.29 442l-70.57-70.58-22.45 22.44 93.02 93.03 22.45-22.45 139.05-139.05z"/></svg>