<svg id="Layer_1" data-name="Layer 1" xmlns="http://www.w3.org/2000/svg" viewBox="0 0 600 600"><defs><style>.cls-1{fill:#fafcf8}.cls-2{fill:#1595a3}.cls-3{fill:#225378}.cls-4{fill:#b3e1e8}.cls-5{fill:#ea8024}</style></defs><title>refocus-iconography</title><circle class="cls-1" cx="298.76" cy="301.24" r="298.68" transform="rotate(-75 297.52 299.976)"/><path class="cls-2" d="M301.07 14.94a286.53 286.53 0 1 1-91.66 15.18 287 287 0 0 1 91.66-15.18m0-12.45C169.19 2.5 48.5 90.5 12.74 223.94-30 383.28 64.6 547.05 223.94 589.75A299 299 0 0 0 301.43 600C433.3 600 554 512 589.75 378.55c42.69-159.34-51.86-323.11-211.2-365.81a299 299 0 0 0-77.49-10.25z"/><path class="cls-3" d="M298.44 11.67a286.53 286.53 0 1 1-91.66 15.18 287 287 0 0 1 91.66-15.18m0-12.45c-131.87 0-252.56 88-288.32 221.45C-32.59 380 62 543.79 221.31 586.48a299 299 0 0 0 77.49 10.25c131.87 0 252.56-88 288.32-221.45 42.69-159.34-51.87-323.11-211.2-365.81a299 299 0 0 0-77.5-10.25z"/><path class="cls-2" d="M463.72 185.95c-63.31-90.41-188.36-112.47-278.77-49.16S72.48 325.15 135.79 415.56c59.13 84.44 172.12 109.25 260.44 60.57C407 495.07 414.82 509 416.92 513c8.93 17-14.93 13.21-38.67 13.21H175.54V535h209.68c21.23 0 53.6 2 43.28-16.79-5.53-10-14.71-26.42-25.69-45.86q6-3.59 11.76-7.63C505 401.41 527 276.36 463.72 185.95zM436.92 431l-29.12-27.66a147.66 147.66 0 0 0 14-17.16l32.9 23A187.55 187.55 0 0 1 436.92 431zm-265.55-72c-27.55-60.59-8.94-134.28 47.51-173.81s132.06-31.81 179.58 14.8zm138.92-34c13.75 24.36 36 63.41 56.69 99.74a141.32 141.32 0 0 1-165.93-23.25zm5.71-4l112.14-78.52c27.55 60.59 8.94 134.28-47.51 173.81q-3.48 2.44-7.06 4.63C352.44 383.83 330.43 345.55 316 321zm141.45 84.28L424 383.06a148.52 148.52 0 0 0 10.8-19.35l36.39 17a188.55 188.55 0 0 1-13.74 24.53zm15.69-29l-36.81-16a149.83 149.83 0 0 0 7.28-20.92l38.78 10.39a190.16 190.16 0 0 1-9.25 26.5zM483.58 345l-39-9.39a150.31 150.31 0 0 0 3.57-21.86l40 3.5a190.83 190.83 0 0 1-4.57 27.75zm4.9-32.59l-40.07-2.47a149.69 149.69 0 0 0-.25-22.15l40-3.5a190 190 0 0 1 .31 28.1zm-.79-33L447.78 284a148.33 148.33 0 0 0-4.1-21.78l38.8-10.4a188.26 188.26 0 0 1 5.2 27.62zm-6.52-32.32l-38.52 11.39a147.7 147.7 0 0 0-7.84-20.73l36.4-17a187.55 187.55 0 0 1 9.96 26.37zM469.1 216.4l-36 17.9a149.58 149.58 0 0 0-11.33-19l32.9-23a189.91 189.91 0 0 1 14.42 24.13zm-17.22-28.12l-32.3 23.87a149 149 0 0 0-14.45-16.8l28.4-28.4a189.23 189.23 0 0 1 18.34 21.36zM430 163.59l-27.66 29.12a147.73 147.73 0 0 0-17.16-14l23-32.9A187.52 187.52 0 0 1 430 163.59zm-25.8-20.53l-22.19 33.48a148.58 148.58 0 0 0-19.35-10.8l17-36.39a188.52 188.52 0 0 1 24.58 13.71zm-29-15.69l-16 36.81a149.75 149.75 0 0 0-20.92-7.28l10.39-38.78a190.16 190.16 0 0 1 26.58 9.25zm-59-15a190.84 190.84 0 0 1 27.8 4.57l-9.39 39a150.36 150.36 0 0 0-21.86-3.57zm-4.84-.37l-2.47 40.07a149.59 149.59 0 0 0-22.15.25l-3.5-40a190 190 0 0 1 28.15-.32zm-33 .79l4.53 39.9a148.31 148.31 0 0 0-21.77 4.1L250.79 118a188.23 188.23 0 0 1 27.65-5.17zm-32.32 6.52l11.39 38.52a147.75 147.75 0 0 0-20.73 7.84l-17-36.4a187.49 187.49 0 0 1 26.42-9.93zm-30.69 12.07l17.9 36a149.62 149.62 0 0 0-19 11.33l-23-32.9a189.85 189.85 0 0 1 24.18-14.39zm-28.12 17.22l23.87 32.3a149 149 0 0 0-16.8 14.45L166 167a189.26 189.26 0 0 1 21.31-18.36zm-24.72 21.83l29.12 27.66a147.62 147.62 0 0 0-14 17.16l-32.9-23a187.49 187.49 0 0 1 17.86-21.79zm-20.53 25.8l33.48 22.19a148.49 148.49 0 0 0-10.8 19.35l-36.39-17a188.54 188.54 0 0 1 13.79-24.5zm-15.69 29l36.81 16a149.83 149.83 0 0 0-7.28 20.92l-38.78-10.39a190.12 190.12 0 0 1 9.33-26.5zm-10.43 31.27l39 9.39a150.26 150.26 0 0 0-3.57 21.86l-40-3.5a190.86 190.86 0 0 1 4.65-27.72zM111 289.12l40.07 2.47a149.59 149.59 0 0 0 .25 22.15l-40 3.5a190 190 0 0 1-.32-28.12zm.79 33l39.9-4.53a148.32 148.32 0 0 0 4.1 21.78L117 349.72a188.27 188.27 0 0 1-5.17-27.65zm6.52 32.32L156.86 343a147.72 147.72 0 0 0 7.84 20.73l-36.4 17a187.54 187.54 0 0 1-9.96-26.34zm12.07 30.69l36-17.9a149.52 149.52 0 0 0 11.33 19l-32.9 23a189.82 189.82 0 0 1-14.39-24.15zm17.22 28.12l32.3-23.87a149 149 0 0 0 14.45 16.8L166 434.52a189.23 189.23 0 0 1-18.36-21.32zm21.83 24.72l27.66-29.12a147.67 147.67 0 0 0 17.16 14l-23 32.9a187.43 187.43 0 0 1-21.79-17.83zm25.8 20.53l22.22-33.5a148.5 148.5 0 0 0 19.35 10.8l-17 36.39a188.49 188.49 0 0 1-24.53-13.74zm29 15.69l16-36.81a149.73 149.73 0 0 0 20.92 7.28l-10.39 38.78a190.17 190.17 0 0 1-26.5-9.3zm59 15a190.83 190.83 0 0 1-27.75-4.53l9.39-39a150.29 150.29 0 0 0 21.86 3.57zm4.84.37l2.47-40.07a149.72 149.72 0 0 0 22.15-.25l3.5 40a190 190 0 0 1-28.07.23zm33-.79l-4.53-39.9a148.37 148.37 0 0 0 21.78-4.1l10.4 38.8a188.23 188.23 0 0 1-27.65 5.11zm32.32-6.52L342 443.65a147.67 147.67 0 0 0 20.73-7.84l17 36.4a187.57 187.57 0 0 1-26.34 9.96zm30.69-12.07l-17.9-36q2.4-1.2 4.76-2.49c7 12.33 13.78 24.2 19.86 34.91q-3.34 1.8-6.72 3.49zm13.3-7.32c-6.27-11.07-13-22.89-19.86-35 2.59-1.59 5.17-3.24 7.69-5l23 32.9q-5.31 3.7-10.83 7.01zm-9.06-42.2a149.07 149.07 0 0 0 16.8-14.45l28.4 28.4a189.18 189.18 0 0 1-21.32 18.35z"/><path class="cls-4" d="M462.72 183.95c-63.31-90.41-188.36-112.47-278.77-49.16S71.48 323.15 134.79 413.56c59.13 84.44 172.12 109.25 260.44 60.57C406 493.07 413.82 507 415.92 511c8.93 17-14.93 13.21-38.67 13.21H174.54V533h209.68c21.23 0 53.6 2 43.28-16.79-5.53-10-14.71-26.42-25.69-45.86q6-3.59 11.76-7.63C504 399.41 526 274.36 462.72 183.95zM435.92 429l-29.12-27.66a147.66 147.66 0 0 0 14-17.16l32.9 23A187.55 187.55 0 0 1 435.92 429zm-265.55-72c-27.55-60.59-8.94-134.28 47.51-173.81s132.06-31.81 179.58 14.8zm138.92-34c13.75 24.36 36 63.41 56.69 99.74a141.32 141.32 0 0 1-165.93-23.25zm5.71-4l112.14-78.52c27.55 60.59 8.94 134.28-47.51 173.81q-3.48 2.44-7.06 4.63C351.44 381.83 329.43 343.55 315 319zm141.45 84.28L423 381.06a148.52 148.52 0 0 0 10.8-19.35l36.39 17a188.55 188.55 0 0 1-13.74 24.53zm15.69-29l-36.81-16a149.83 149.83 0 0 0 7.28-20.92l38.78 10.39a190.16 190.16 0 0 1-9.25 26.5zM482.58 343l-39-9.39a150.31 150.31 0 0 0 3.57-21.86l40 3.5a190.83 190.83 0 0 1-4.57 27.75zm4.9-32.59l-40.07-2.47a149.69 149.69 0 0 0-.25-22.15l40-3.5a190 190 0 0 1 .31 28.1zm-.79-33L446.78 282a148.33 148.33 0 0 0-4.1-21.78l38.8-10.4a188.26 188.26 0 0 1 5.2 27.62zm-6.52-32.32l-38.52 11.39a147.7 147.7 0 0 0-7.84-20.73l36.4-17a187.55 187.55 0 0 1 9.96 26.37zM468.1 214.4l-36 17.9a149.58 149.58 0 0 0-11.33-19l32.9-23a189.91 189.91 0 0 1 14.42 24.13zm-17.22-28.12l-32.3 23.87a149 149 0 0 0-14.45-16.8l28.4-28.4a189.23 189.23 0 0 1 18.34 21.36zM429 161.59l-27.66 29.12a147.73 147.73 0 0 0-17.16-14l23-32.9A187.52 187.52 0 0 1 429 161.59zm-25.8-20.53l-22.19 33.48a148.58 148.58 0 0 0-19.35-10.8l17-36.39a188.52 188.52 0 0 1 24.58 13.71zm-29-15.69l-16 36.81a149.75 149.75 0 0 0-20.92-7.28l10.39-38.78a190.16 190.16 0 0 1 26.58 9.25zm-59-15a190.84 190.84 0 0 1 27.8 4.57l-9.39 39a150.36 150.36 0 0 0-21.86-3.57zm-4.84-.37l-2.47 40.07a149.59 149.59 0 0 0-22.15.25l-3.5-40a190 190 0 0 1 28.15-.32zm-33 .79l4.53 39.9a148.31 148.31 0 0 0-21.77 4.1L249.79 116a188.23 188.23 0 0 1 27.65-5.17zm-32.32 6.52l11.39 38.52a147.75 147.75 0 0 0-20.73 7.84l-17-36.4a187.49 187.49 0 0 1 26.42-9.93zm-30.69 12.07l17.9 36a149.62 149.62 0 0 0-19 11.33l-23-32.9a189.85 189.85 0 0 1 24.18-14.39zm-28.12 17.22l23.87 32.3a149 149 0 0 0-16.8 14.45L165 165a189.26 189.26 0 0 1 21.31-18.36zm-24.72 21.83l29.12 27.66a147.62 147.62 0 0 0-14 17.16l-32.9-23a187.49 187.49 0 0 1 17.86-21.79zm-20.53 25.8l33.48 22.19a148.49 148.49 0 0 0-10.8 19.35l-36.39-17a188.54 188.54 0 0 1 13.79-24.5zm-15.69 29l36.81 16a149.83 149.83 0 0 0-7.28 20.92l-38.78-10.39a190.12 190.12 0 0 1 9.33-26.5zm-10.43 31.27l39 9.39a150.26 150.26 0 0 0-3.57 21.86l-40-3.5a190.86 190.86 0 0 1 4.65-27.72zM110 287.12l40.07 2.47a149.59 149.59 0 0 0 .25 22.15l-40 3.5a190 190 0 0 1-.32-28.12zm.79 33l39.9-4.53a148.32 148.32 0 0 0 4.1 21.78L116 347.72a188.27 188.27 0 0 1-5.17-27.65zm6.52 32.32L155.86 341a147.72 147.72 0 0 0 7.84 20.73l-36.4 17a187.54 187.54 0 0 1-9.96-26.34zm12.07 30.69l36-17.9a149.52 149.52 0 0 0 11.33 19l-32.9 23a189.82 189.82 0 0 1-14.39-24.15zm17.22 28.12l32.3-23.87a149 149 0 0 0 14.45 16.8L165 432.52a189.23 189.23 0 0 1-18.36-21.32zm21.83 24.72l27.66-29.12a147.67 147.67 0 0 0 17.16 14l-23 32.9a187.43 187.43 0 0 1-21.79-17.83zm25.8 20.53l22.22-33.5a148.5 148.5 0 0 0 19.35 10.8l-17 36.39a188.49 188.49 0 0 1-24.53-13.74zm29 15.69l16-36.81a149.73 149.73 0 0 0 20.92 7.28l-10.39 38.78a190.17 190.17 0 0 1-26.5-9.3zm59 15a190.83 190.83 0 0 1-27.75-4.53l9.39-39a150.29 150.29 0 0 0 21.86 3.57zm4.84.37l2.47-40.07a149.72 149.72 0 0 0 22.15-.25l3.5 40a190 190 0 0 1-28.07.23zm33-.79l-4.53-39.9a148.37 148.37 0 0 0 21.78-4.1l10.4 38.8a188.23 188.23 0 0 1-27.65 5.11zm32.32-6.52L341 441.65a147.67 147.67 0 0 0 20.73-7.84l17 36.4a187.57 187.57 0 0 1-26.34 9.96zm30.69-12.07l-17.9-36q2.4-1.2 4.76-2.49c7 12.33 13.78 24.2 19.86 34.91q-3.34 1.8-6.72 3.49zm13.3-7.32c-6.27-11.07-13-22.89-19.86-35 2.59-1.59 5.17-3.24 7.69-5l23 32.9q-5.31 3.7-10.83 7.01zm-9.06-42.2a149.07 149.07 0 0 0 16.8-14.45l28.4 28.4a189.18 189.18 0 0 1-21.32 18.35z"/><path class="cls-2" d="M96.85 142.44L78.9 168.6l198.27 136.01-136 198.27 26.16 17.94 136-198.27L501.6 458.56l17.94-26.17-198.26-136 136-198.27-26.16-17.94-136 198.27L96.85 142.44z"/><path class="cls-5" d="M95.85 140.44L77.9 166.6l198.27 136.01-136 198.27 26.16 17.94 136-198.27L500.6 456.56l17.94-26.17-198.26-136 136-198.27-26.16-17.94-136 198.27L95.85 140.44z"/></svg>