<svg id="refocus" data-name="refocus" xmlns="http://www.w3.org/2000/svg" viewBox="0 0 1200 272"><defs><style>.a{fill:none}.b{fill:#fafcf8}.c{opacity:.1}.d{clip-path:url(#f)}.e{fill:#1595a3}</style><clipPath id="f"><path class="a" d="M0 292h1600v900H0z"/></clipPath></defs><path class="b" d="M581.43 41.06a95.1 95.1 0 1 0 95.1 95.1 95.1 95.1 0 0 0-95.1-95.1zm-6.15 117.81l-54.35 17.91L597.6 75.56l15.79 126zM0 44.29h86.73c28 0 47.43 7.34 59.74 19.91 10.74 10.48 16.25 24.63 16.25 42.71v.52c0 28-14.94 46.64-37.73 56.34l43.76 63.93h-58.7l-36.94-55.54H50.83v55.55H0V44.29zm84.37 88c17.29 0 27.25-8.38 27.25-21.75v-.52c0-14.41-10.48-21.75-27.51-21.75H50.83v44h33.54zm90.92-88h147.53v43.23H225.6v27.78h88v40.09h-88v29.08h98.52v43.23H175.29V44.29zm161.71 0h146.7v44.55h-95.9V120h86.73v42.2h-86.74v65.51H337V44.29zm346.81 92.23V136c0-53.45 41.14-95.38 96.69-95.38 37.47 0 61.58 15.72 77.82 38.26l-38.26 29.61C809.59 95.39 797.53 87 780 87c-25.68 0-43.76 21.75-43.76 48.48v.52c0 27.51 18.08 49 43.76 49 19.13 0 30.4-8.91 41.4-22.27L859.63 190c-17.29 23.84-40.61 41.4-81.23 41.4-52.4-.02-94.59-40.11-94.59-94.88zm182.11 10.75v-103h51.62v101.95c0 26.46 13.36 39 33.8 39s33.8-12.05 33.8-37.73V44.29h51.62V146c0 59.22-33.8 85.16-85.94 85.16s-84.9-26.51-84.9-83.89zm173.98 53.19l28.3-33.8c18.08 14.41 38.26 22 59.48 22 13.63 0 21-4.72 21-12.58v-.52c0-7.6-6-11.79-30.92-17.56-39-8.91-69.18-19.91-69.18-57.65v-.51c0-34.06 27-58.69 71-58.69 31.18 0 55.55 8.38 75.46 24.37l-25.42 35.9c-16.77-11.79-35.11-18.08-51.36-18.08-12.32 0-18.34 5.24-18.34 11.79v.52c0 8.38 6.29 12.05 31.71 17.82 42.19 9.17 68.39 22.8 68.39 57.12v.52c0 37.47-29.61 59.74-74.15 59.74-32.52 0-63.43-10.21-85.97-30.39z"/><path class="c d e" d="M486.33 130.41c-354.26 0-641.44 287.18-641.44 641.44s287.18 641.44 641.44 641.44 641.44-287.18 641.44-641.44-287.19-641.44-641.44-641.44zM444.84 925L78.29 1045.75l517.1-682.67 106.49 849.76z"/></svg>