<?xml version="1.0" standalone="no"?>
<!DOCTYPE svg PUBLIC "-//W3C//DTD SVG 20010904//EN"
 "http://www.w3.org/TR/2001/REC-SVG-20010904/DTD/svg10.dtd">
<svg version="1.0" xmlns="http://www.w3.org/2000/svg"
 width="700.000000pt" height="700.000000pt" viewBox="0 0 700.000000 700.000000"
 preserveAspectRatio="xMidYMid meet">
<metadata>
Created by potrace 1.11, written by Peter Selinger 2001-2013
</metadata>
<g transform="translate(0.000000,700.000000) scale(0.100000,-0.100000)"
fill="#000000" stroke="none">
<path d="M3278 6995 c-2 -1 -42 -6 -89 -9 -47 -4 -94 -8 -105 -10 -10 -2 -46
-7 -79 -12 -33 -4 -62 -8 -65 -9 -3 0 -27 -4 -55 -9 -61 -9 -280 -60 -355 -82
-801 -236 -1489 -741 -1944 -1428 -256 -385 -442 -840 -522 -1271 -9 -49 -17
-97 -19 -105 -2 -9 -6 -43 -10 -75 -4 -33 -9 -69 -11 -80 -12 -61 -19 -226
-18 -420 0 -284 14 -420 69 -705 20 -102 99 -387 124 -445 5 -11 14 -36 21
-55 7 -19 19 -49 26 -67 8 -17 14 -34 14 -37 0 -10 59 -138 117 -251 223 -441
501 -788 909 -1135 94 -81 323 -239 460 -318 77 -45 347 -182 358 -182 3 0 25
-9 49 -19 60 -27 118 -49 232 -87 196 -67 421 -120 633 -149 20 -3 51 -7 67
-10 166 -26 632 -26 825 0 342 45 635 121 927 241 109 44 368 173 419 208 21
14 42 26 47 26 4 0 13 5 20 10 7 6 56 39 109 75 460 301 850 721 1120 1205
213 380 374 859 413 1230 4 30 8 61 11 68 25 77 25 611 0 812 -2 19 -7 58 -10
86 -4 28 -8 59 -10 70 -2 10 -11 60 -21 109 -81 436 -258 872 -509 1255 -55
83 -210 295 -240 326 -6 6 -42 47 -81 90 -90 100 -261 267 -345 335 -36 30
-67 56 -70 60 -8 9 -189 142 -239 175 -347 228 -682 379 -1061 478 -177 46
-321 73 -480 91 -30 4 -68 9 -85 11 -33 5 -542 14 -547 9z m847 -1500 c14
-115 28 -226 30 -245 3 -19 7 -53 9 -75 4 -38 32 -257 41 -320 2 -16 7 -52 10
-80 12 -95 26 -210 30 -235 2 -14 9 -70 15 -125 6 -55 13 -111 15 -125 2 -14
11 -81 20 -150 8 -69 17 -142 20 -162 3 -21 7 -55 10 -75 2 -21 7 -58 10 -83
2 -25 7 -61 10 -80 6 -39 10 -77 20 -165 4 -33 8 -71 11 -85 2 -14 6 -50 9
-80 3 -30 8 -66 10 -80 3 -14 7 -47 10 -75 3 -27 13 -102 21 -165 8 -63 17
-135 20 -160 2 -25 7 -60 9 -78 3 -18 7 -54 10 -80 3 -26 7 -60 10 -77 2 -16
7 -52 10 -80 3 -27 8 -61 10 -75 3 -14 7 -52 10 -85 4 -33 8 -71 10 -85 3 -14
7 -47 10 -75 3 -27 8 -61 10 -75 2 -14 7 -50 10 -80 3 -30 8 -66 10 -80 2 -14
7 -50 10 -80 4 -30 9 -68 11 -85 2 -16 6 -52 9 -80 3 -27 8 -61 10 -75 2 -14
6 -50 10 -80 4 -30 8 -66 10 -80 2 -14 7 -47 10 -75 3 -27 7 -66 10 -85 3 -19
7 -55 10 -80 3 -25 7 -61 10 -80 2 -19 7 -60 11 -90 3 -30 8 -59 12 -65 15
-26 -37 28 -131 133 -56 64 -111 125 -122 137 -11 11 -51 56 -90 100 -38 43
-74 83 -80 89 -5 6 -28 31 -49 56 -22 25 -62 70 -90 101 -45 49 -131 146 -183
206 -43 49 -160 179 -178 198 -11 12 -51 57 -90 101 -38 43 -72 81 -75 84 -3
3 -41 45 -85 95 -110 124 -145 163 -193 215 l-41 45 -123 -41 c-68 -23 -366
-121 -663 -219 -297 -98 -688 -226 -869 -286 -181 -60 -331 -107 -333 -105 -2
2 7 16 20 32 27 33 314 411 367 484 19 26 62 83 95 126 34 44 160 210 280 369
121 160 223 295 228 300 9 11 147 194 491 650 116 154 213 282 216 285 3 3 32
41 65 85 33 43 65 86 72 95 7 8 56 74 110 145 311 411 523 690 637 840 71 94
150 198 175 232 25 35 49 59 52 55 4 -4 19 -101 34 -217z"/>
</g>
</svg>
